<?xml version="1.0" encoding="UTF-8"?>
<svg version="1.1" viewBox="0 0 2000 2000" width="1280" height="1280" xmlns="http://www.w3.org/2000/svg">
<path transform="translate(803,314)" d="m0 0h22l15 2 19 5 18 8 8 5 9-1 20-5 27-4 11-1h49l29 3 22 4 20 5 9-1 13-6 27-9 14-3 24-2 23 1 20 4 22 8 17 9 15 10 14 11 14 14 13 17 11 17 12 21 14 27 15 33 10 14 10 13 12 17 11 17 12 20 12 22 10 21 9 24 7 24 4 23 2 19v33l-2 17v8l9 6 7 7 9 14 8 18h3l12-12 9-6 6-2h11l9 4 7 7 6 12 2 7 1 8v25l15-5 14-1 10 3 7 6 3 8v9l-4 17-7 16-10 19-13 19-8 10-11 12-11 10-16 9-14 5-9 2-4 9-9 24-9 20-7 14 9 3 21 10 18 11 14 10 14 11 13 12 18 18 9 11 8 10 13 19 9 15 11 20 11 25 10 28 7 25 5 24 4 34 1 15v24l-3 31-4 24-7 26-7 20-9 20-10 19-10 16-13 17-11 13-17 17-11 9-18 14-17 11-16 9-17 9-23 10-25 9-21 7-23 14-16 8-17 7-15 4-8 1h-29l-16-2-18-6-9-4-27-1-36-5-24-5-26-8-13-5-26 5-44 7-24 3-25 2-22 1h-22l-35-2-24-2-29-5-8-1-38 3-39 2h-58l-37-3-18-2h-32l-36 6-30 4-13 1h-34l-18-2-18-4-15-5-18-8-18-10-19-14-14-12-13-12-2-3-1-8-7-3-3-6 3-9 5-6 13-3 28-2-11-18-8-14-8-18-7-23-2-11v-7l3-6 6-5 2-1h12l20 4 11 4 3-15 6-16 7-11 9-6h7l10 5 15 14 12 15 5-1 5-4 2-1h9l6 4 7 8 13 23 2 4 3-1 11-15 11-14 11-13 9-10-1-6-7-10-12-23-5-15-2-8v-6l4-6 2-1h9l18 2v-19l4-13 6-11 8-9-2-4-13-12-13-13-8-11-8-14-5-12-4-17-1-16 3-20 6-18 10-19 8-11 9-11 20-20 14-11 13-10 22-14 21-12 23-12 22-10 12-5h2l2-5 21-56 2-6-12-2-29-6-36-10-25-9-23-10-19-9-19-10-17-9-23-10-38-15-23-11-9-7-4 2-5 5-6 3-11-1-8-4-13-11-11-14-11-18-11-20-15-14-11-14-12-23-8-23-5-28-1-14 1-25 5-26 6-16 9-17 9-12 12-13 14-11 15-10 21-10 18-6 20-4 11-1h34l25 3 20 4 2-5 10-19 9-14 11-15 11-14 14-15 6-7 3-9 4-19 8-26 8-20 12-23 12-16 11-11 13-9 15-7 14-4zm543 585-22 13-18 10-23 12-39 18 3 38 2 18 1 4 6-1 13-6 17-9 16-11 13-10 14-12 20-20 7-8 8-10-1-4-9-14-5-8zm74 215-7 6-7 8-11 12-7 7-8 7-10 9-17 13-16 11-21 13-8 4 1 6 9 21 15 32 11 24 7 14 4 1 3-11 2-12 7-2 6 3 3 1v2l8 7 16 15 13 11 4-1 8-9 8-12 2-5-7-9-24-28-3-5v-7l1-3 5-2 16-7 23-10 6-3 2-2-1-21-10-2-25-3-21-2-4-6 1-6 29-44 3-6-1-5-3-4z" fill="#213C18"/>
<path transform="translate(1203,666)" d="m0 0h24l25 3 17 5 19 8 19 12 10 9 10 11 9 14 6 14 4 13 3 18v25l-4 24-4 10-5 6-4 11-2 13-7 11-11 12-1 2h-2l-2 4-6 8-9 9-17 10-29 14-21 8-18 7-12 5-36 12-21 6-42 11-28 6-7 2 1 1 34-1 1 3-4 28-1 23v24l2 23 4 20 6 20 15 31 13 28 11 27 14 37 10 32 8 29 6 25 7 38 4 33 2 30v27l-2 27-4 27-7 28-9 27-8 16-4 6-9 14-8 13-5 8-7 3-27 6-16 3-35 5-44 3h-36l-27-1-32-3-24-5-23-6-17-6-10-4-16-8-18-10-14-9-10-8-12-11-10-10-4-5v-2h-2l-2-5h-2l-7-11-11-19-8-18-6-18 1-5 10 4 12 6 28 11 28 9 29 7 26 5 29 4 29 2h45l26-2 42-6 33-7 30-8 24-8 7-3-7 1-36 9-32 7-29 4-25 2-24 1h-34l-27-2-18-2-20-3-19-4-35-9-24-8-26-11-23-11-20-12-5-4-2-5-1-6v-40l4-29 8-36 7-29 3-5 12 1 33 7 40 6 43 5 22 1h89l29-2 27-3 35-5 23-4 28-6 12-3-16 2-39 6-38 4-25 2-28 1h-40l-36-2-31-3-42-6-41-8-48-12-4-2v-8l8-32 9-34 12-43 8-26 1-2 9 1 37 8 33 5 29 3 24 1h62l28-2 31-3 39-6 11-2-16 1-45 4h-76l-25-2-38-5-29-5-31-7-28-8-8-3v-7l21-64 16-45 11-27 2-3 24 1h30l-8-2-23-4-30-5-57-16-28-10-28-11-16-8-10-6-16-8-17-10-7-5-30-13-36-13-19-9-9-7-4-5-2-4v-7l5-22 4-4 18-6 6-1h20l16 4 12 5 19 10 13 8 10 5 16 6 20 5 11 2 3 5 13 27 7 11 7 7 6 3h11l10-5 7-8 7-11 5-11 8-22 12-3 31-7 45-12 27-5 23-2 33-1 5 5 12 19 10 13 9 10 8 5 3 1h10l7-4 7-8 7-15 6-25 3-20 19-10 14-9 9-7 12-11 11-13 11-19 11-18 9-12 9-10 10-10 14-9 3-1z" fill="#DFFD65"/>
<path transform="translate(815,329)" d="m0 0 16 1 18 4 17 7 16 10 11 8 13 10 5 1-1-6-10-14 1-3 22-4 20-3 33-2 40 2 36 6 7 2-2 4-8 9-13 17-3 4v5l5-1 13-12 13-11 12-8 10-6 20-8 16-5 16-4 15-2h23l18 3 15 5 17 8 18 11 13 11 8 7 5 5 11 13 9 13 7 11 9 15 10 19 7 16 7 15 8 16 9 14 9 12 18 27 15 26 10 19 10 22 9 25 7 25 3 21 1 13v24l-2 21-4 15-8 14-6 16-7 21-9 15-4 5-2 1-9-1-11-3-7-1h-10l-7 3-6 7-3 3 2-6 5-5 4-13 3-20v-25l-4-22-7-19-8-14-12-14-7-7-19-12-14-7-20-7-19-3-11-1h-24l-13 1-6 2-1-1h-9l-15 5-11 6-4 2v2l-5 5-7 8-11 18-4 4-17-10-19-8-12-3h-14l-6 4-4 6 1 11 7 21 9 26v6l-25 10-19 6-24 5-27 3h-23l-8-16-9-14-11-14-9-8-8-5-6-2h-9l-5 3-4 8-9 45-5 17-5 3-13 4-29 7-27 5-18 3-11 1h-33l-14-2-17-4-14-5-16-8-24-13-17-8-17-5-10-2h-16l-9 2-13 4-26 10-19 4h-18l-7-1-10-4-15-9-4-4v-2l-4-2-11-15-8-16-5-13-4-14-3-13-1-10v-34l3-16 5-17 8-16 7-10 9-10 7-7 13-10 13-8 20-9 5-2 16-4 16-2 15-1h11l30 3 24 6 12-1 26-4 19-2h45l22 3 18 4 21 7 19 10 11 8 10 9 9 10 8 13 6 13 3 9 4 26 1 8h1l1-7v-24l-2-17-6-18-7-13-9-12-12-12-14-10-14-8-20-8-19-5-16-3-25-2h-12l-23 1h-12v-3l15-8 21-8 25-7 25-5 21-3 27-2h43l29 2 25 4 24 5 26 7 21 7 19 8 16 8 18 10 14 10 11 9 8 8 5 3v-3h-2l-4-6-18-20-2-1v-2l-4-2-11-9-18-12-27-14-14-6-28-9-15-4-20-4-30-4-40-3-1-2 7-11 6-12 4-13 1-7v-13l-3-12-4-10-6-8-9-6-5-2-6-1h-8l-8 2-10 5-10 8-9 13-5 10-4 13-1 11v12l2 9 7 15-1 4-25 5-26 6-26 8-25 10h-3l2-6 7-9 9-11 12-13 11-12 3-7 6-28 6-20 6-17 5-11 4-8 10-15 6-8 8-7 4-2v-2l14-8 11-4 15-3z" fill="#57AB15"/>
<path transform="translate(1377,942)" d="m0 0 7 1 8 7 20 13 14 8 20 8 11 4 9 3v7l-7 15-9 19-5 8-7 14-8 12-8 13h-2l-2 5-6 9h-2l-2 4-6 8-9 10-7 8-9 10-15 15h-2v2l-11 9-11 10-17 13-14 10-18 12-21 13-18 10-16 9-2 3 15-4 32-11 8-3 4 1 5 10 13 28 11 23 9 21 5 11 6 17 6 19 5 22 4 16 4 15 3 8 2-4 3-13 2-13 9-6 14-9 11-8 14-11 11-11 1-2h2l2-4 10-13 9-14 10-21 6-18 4-20 1-8v-30l-3-21-5-20v-3h-2l-5-15-6-12-8-17-9-15 1-6 12-17 4-5 4-1 23 10 15 8 25 17 14 12 3 2v2l4 2 11 11 18 22 8 11 10 15 12 22 10 22 7 15 9 27 7 29 5 35 1 28-1 5-6-1-7-3 8 16 3 9 1 5v12l-4 25-8 28-10 25-4 7-5-4-6-10-5-6-5-3 8 24 1 6v13l-4 10-8 11-10 13-9 10-20 20-14 11-5 3-5-1-2-9-2-17-4-12-2-2-1 30-4 20-3 6-13 8-16 8-22 10h-7l-1-3 4-10 5-12 7-24 3-19 2-24v-9l-4-8-8-5-3-1-20-1-5-5-6-10-8-11v-2h-2l-2-5h-2l-9-12-9-9v-2h-2l-7-8-7-7-11-9-15-11-11-8-22-12h-6l11 7 10 7 11 7 5 5 13 11 4 5 8 7 10 12 8 11 10 15 8 15 6 13 2 7-1 4-4 1-9-17v-3l-4-2-3-4-3-1v-2l-4-1h-15l-7 4-10 8-7 8-1 2h-2l-2 6h-2l-1 3-4 1-9-7-5-6-11-7-6-2h-7l-11 3v2l-3 3-4 10-4 14-2 15-1 22-4 4h-33l-15 2-7 5-4 7v14l5 13 6 10 5 9 10 13 1 5-9 1-32-5-21-5-7-3-17-5-10-3-30 6-14 3-40 6-22 2-19 1h-59l-32-3-24-4-28-7-26-9-25-12-17-10-17-12-13-11-17-17-7-9v-2h2l2 5h2l8 10 14 14 10 8 10 7 22 13 15 8 7 3 25 9 15 4 23 5 9 2 35 3 24 1h38l42-3 35-5 29-6 17-4 4-2 8-14 12-19 4-5 8-16 8-22 8-30 4-23 2-18 1-18v-27l-2-30-5-39-7-36-10-40-11-35-7-20-13-34-13-30-16-33-7-16-6-21-3-16-2-23v-24l1-23 4-30-34 1-2-2 8-3 3 1h-2v2l37-2 32-5 29-6 30-8 23-7 5 1 1 3 4 39v15l-9 3-17 3-21 1-2 1 13 4 10 1h13l21-2 20-4 11-2 20-8 19-10 12-8 12-9 14-12 13-13 9-11 1-2h2l2-4z" fill="#498B15"/>
<path transform="translate(1204,668)" d="m0 0 28 1 19 2 15 4 20 8 14 8 9 7 6 5 7 8 6 8 8 14 6 16 3 12 2 21v9l-2 20-4 16-8 13-5 20-5 9-6 7-10 6-9 4-17 5-18 6-29 7-20 4-28 3-4 1-21 2-20 1-7 1h-98l-13-1-50-3-49-4-20-2-33-2h-10l-21 2-11 2v-3l-12 1-11 2-32 3-23-1-33-6-13-3-8-2-30-8-8-2-27-4-37-13-15-5-22-11-7-7-3-5 1-13 5-14 5-4 16-5 5-1h23l17 5 9 4 10 6 11 6 9 6 21 8 19 5 15 3 4 5 7 16 10 18 10 9 7 4h11l10-5 7-8 7-11 5-11 8-22 12-3 31-7 45-12 27-5 23-2 33-1 5 5 12 19 10 13 9 10 8 5 3 1h10l7-4 7-8 7-15 6-25 3-20 19-10 14-9 9-7 12-11 11-13 11-19 11-18 9-12 9-10 10-10 9-6 6-2z" fill="#DFFD65"/>
<path transform="translate(1377,942)" d="m0 0 5 1 3 4 2 3 11 8 11 7 3 3 3 12 1 8v18l-4 16-3 7-4 9-7 12-4 6h-2l-2 4-3 4h-2l-2 4-8 8-28 22-10 7-16 10-18 11-17 9-16 8-14 5-9 4-17 5-12 3-27 4-19 1-2 1 1 5 6 14 10 16 8 11 9 10 10 7 13 8 7 1 3 3 2 9 1 11v18l-3 16-9 30-5 15-4 17v19l6 12 1 3h2l9 11 10 9 9 10 7 8 22 33 5 10 6 10 4 7 3 5-1 7-9 3-7 3-5 5-4 7-2 5-2 9-3 13-2 10-2 18-4 2-38 1-6 1v2l-6 2v2h-2l-2 5-3 7 1 17-1 3-7-1-9-4-17-10-3-3-5 1-9 16-5 9-5 3-5 7-7 3-25 5-4-1 30-7 4-2 8-14 12-19 4-5 8-16 8-22 8-30 4-23 2-18 1-18v-27l-2-30-5-39-7-36-10-40-11-35-7-20-13-34-13-30-16-33-7-16-6-21-3-16-2-23v-24l1-23 4-30-34 1-2-2 8-3 3 1h-2v2l37-2 32-5 29-6 30-8 23-7 5 1 1 3 4 39v15l-9 3-17 3-21 1-2 1 13 4 10 1h13l21-2 20-4 11-2 20-8 19-10 12-8 12-9 14-12 13-13 9-11 1-2h2l2-4z" fill="#57AB15"/>
<path transform="translate(1455,1070)" d="m0 0 20 8 19 10 25 17 14 12 3 2v2l4 2 11 11 18 22 8 11 10 15 12 22 10 22 7 15 9 27 7 29 5 35 1 28-1 5-6-1-7-3 8 16 3 9 1 5v12l-4 25-8 28-10 25-4 7-5-4-6-10-5-6-5-3 8 24 1 6v13l-4 10-8 11-10 13-9 10-20 20-14 11-5 3-5-1-2-9-2-17-4-12-2-2-1 30-4 20-3 6-13 8-16 8-22 10h-7l-1-3 4-10 6-11 1-2h2l4-16 4-23 1-20 3-6 25-15 9-6 6-5h2v-2l13-10 17-16 9-9 8-11h2l2-4 9-12 13-24 5-12v-5h2l1-7 3-9 3-11v-3l1-10h2v-5h3l1-5 2-18 1-28 1-2v-17l-3-9-1-6-2-2-3 6-4 20-3 13-9 19-3 5-1 2h-2l-1 5-6 12-4 5-5 10-5 7h-2l-2 5-6 9-9 11-10 10-11 7-12 8-12 7-2 2-24 9-18 6-33 6-7 3h-11l-9-6-4-7-3-2v-2l-3-1-6-7-2-1-1-3-5-5-1-9 2-15v-20l2-6 16-10 16-11 16-13 10-10 1-2h2l2-4 10-13 9-14 10-21 6-18 4-20 1-8v-30l-3-21-5-20v-3h-2l-5-15-6-12-8-17-9-15 1-6 12-17 4-5z" fill="#57AB15"/>
<path transform="translate(686,1419)" d="m0 0 4 1 2 37 3 24 7 25 9 24 10 21 7 11v2h2l6 9 4 5v2h2l9 11 12 12 8 7 6 4v2l5 2 10 7 21 12 12 6 1 5-2 1-18 1h-57l-29-2-32-3h-21l-19 2-36 6-26 3-26 1-17-1-23-4-21-7-8-4-7-3-15-8-11-8-11-9-13-12-7-8v-4l4-1h21l26 3h10l23-4 3-1-6-3-16-6-10-6-10-9-8-9-11-16-9-17-6-16-2-6v-12h11l18 6 12 9 14 14 2 1v-7l-5-21v-20l1-6h2l1-6 5-8 5 2 5 4 5 5v2l4 2 9 12 9 14 7 12 3 2 1-1 2-12 6-12 4 2 4 5 11 22 5 14 2 31 3-3 1-2h2l3-10 9-20 10-17 11-15 13-16 7-8 17-17 14-11 13-10z" fill="#57AB15"/>
<path transform="translate(1203,666)" d="m0 0h24l25 3 17 5 19 8 19 12 10 9 10 11 9 14 6 14 4 13 3 18v25l-4 24-4 10-5 6-4 11-2 13-7 11-11 12-1 2h-2l-2 4-6 8-9 9-17 10-29 14-21 8-18 7-12 5-36 12-21 6-42 11-28 6-7 2 1 1 34-1 1 3-4 28-1 23h-1l-1-18-51-9-30-7-54-15-6-4-20-4-17-2h-35l-37-3h-7l-5 11-1-3 5-10 24 1h30l-8-2-23-4-30-5-57-16-28-10-28-11-16-8-10-6-16-8-17-10-7-5-30-13-36-13-19-9-9-7-4-5-2-4v-7l5-22 4-4 18-6 6-1h20l16 4 12 5 19 10 13 8 10 5 16 6 20 5 11 2 3 5 13 27 5 8-1 2-6-9-9-17-5-12-2-2-28-6-22-8-8-4-14-9-11-6-9-4-11-4-10-2h-21l-15 4-7 3-3 2-5 14-1 13 6 8 5 4 25 12 36 12 11 4 27 4 35 9 9 3 12 2 24 5 12 2 23 1 40-4 12-2 3 1v3l11-3 23-2 28 1 26 2 31 3 56 4 23 1 15 1h92l7-1 20-1 21-2 21-3 15-2 29-6 23-6 33-11 11-6 5-5h2l7-14 3-16 7-12 3-5 3-14 2-20-1-22-3-17-6-17-7-13-8-11-6-6v-2l-4-2-8-7-15-9-16-7-17-5-12-2-11-1-28-1-16 1-4 1 3-3 3-1z" fill="#AECE58"/>
<path transform="translate(771,1069)" d="m0 0h5l-1 7-2 4-2 11-8 26-7 24-10 30-4 16-5 3-10-8-3-2-1 2 3 7 4 8 3 12v10l-7 29-8 34-4 15-5 23-8 33-7 33-3 7-28 20-3 1v2l-9 6h-5l-7-9-9-17-2-5v-5h13l9 1h16l-4-10-5-11v-19l4-10 5-5 3-5 11-9 3-7-4-6-9-6-9-7-7-5v-2l-4-2-11-12-9-14-7-16-2-16v-9l3-21 5-13 6-11 9-13 12-14 15-14 17-13 17-12 20-12 18-10z" fill="#58AC15"/>
<path transform="translate(1437,777)" d="m0 0 5 1 5 5 7 9 5 11 5 21 2 12 3 3h8l7-7 10-13 5-6 10-8 2-1h6l6 7 2 9v23l-4 21v8l3 3 4 1 9-3 17-9 10-3h10l-1 9-7 19-10 19-11 16-8 10-11 12-3 3h-2v2l-13 9-12 5-5 1h-21l-19-5-11-5-17-8-10-6-10-7-9-7-11-11-4-7-6-8-9-15-8-16-4-13 1-9 1-2h8l17 6 12 8 8 7 2 1 28 1 10 3 14 7 5 3-2-5-11-10-11-7-9-4-7-1-2-2 1-12 5-26 5-19 6-15z" fill="#57AB15"/>
<path transform="translate(1581,1181)" d="m0 0 4 4 9 16 5 14 2 6 3 27 5 4v-2l4-2 2-3 4 8v2h2l4 13 7 29 5 35 1 28-1 5-6-1-7-3 8 16 3 9 1 5v12l-4 25-8 28-10 25-4 7-5-4-6-10-5-6-5-3 8 24 1 6v13l-4 10-8 11-10 13-9 10-20 20-14 11-5 3-5-1-2-9-2-17-4-12-2-2-1 30-4 20-3 6-13 8-16 8-22 10h-7l-1-3 4-10 6-11 1-2h2l4-16 4-23 1-20 3-6 25-15 9-6 6-5h2v-2l13-10 17-16 9-9 8-11h2l2-4 9-12 13-24 5-12v-5h2l1-7 3-9 3-11v-3l1-10h2v-5h3l1-5 2-18 1-28 1-2v-17l-3-9-1-6-2-2-3 6-4 20-3 13-9 19-3 5-1 2h-2l-1 5-6 12-4 5-5 10-5 7h-2l-2 5-6 9-9 11-10 10-11 7-12 8-12 7-2 2-24 9-18 6-33 6-7 3h-11l-9-6-1-3 3 1v2l4 1h14l17-4 12-2 1-1 10-2 14-3v-2l13-4 9-3 10-6 11-6 5-3 3-3h3l1-3 6-4 13-13 6-7 5-7h2l2-5 9-15 7-14 5-11 5-12 3-12 4-14 5-26 3-24v-11l1-18-1-10-4-9-10-18z" fill="#4E9718"/>
<path transform="translate(1376,1515)" d="m0 0h5l3 5 5 13 3 11 3 24 3 3h13l2-9 8-14 8-9 11-8h6l2 2v17l-4 27-7 23-8 16-6 9-9 10-4 5-4 1v2l-17 12-16 8-15 6-16 4-18 1-18-1-19-5-9-4-12-7-10-8-8-8-9-13-7-12-5-11v-5l6-2h29l13 2 2 1 16 1 19 7-2-6-4-2-5-5-9-8-2-4v-27l3-18 2-7h2l1-6h5l10 9 8 7 8 13 4 7 5 2h5l3-1 2-9 7-16 6-9 9-10z" fill="#58AC15"/>
<path transform="translate(1104,422)" d="m0 0h20l15 5 11 8 6 5 9 13 4 7 4 10 3 9 2 14v23l-3 16-7 19-7 13-9 11-7 7-13 8-10 4-4 1h-20l-15-5-12-8-7-7-9-14-6-15-3-11-2-14v-17l3-19 5-15 8-16 8-11 10-9 13-8z" fill="#213C19"/>
<path transform="translate(686,1419)" d="m0 0 4 1 2 37 3 24 7 25 9 24 10 21 7 11v2h2l6 9 4 5v2h2l9 11 12 12 8 7 6 4v2l5 2 10 7 21 12 12 6 1 5-2 1-18 1h-57l-29-2-32-3h-21l-19 2-36 6-26 3-26 1-17-1-23-4-21-7-8-4-7-3-15-8-11-8-11-9-13-12-5-5 1-2 7 6 9 3-1 4 4 1 6 3v3l5 2 1 2 3 1v2l4 2 4 3 4 1v2l9 3 10 5 10 1v2l4-1 7 1h10l44-5 18-6 11-7 3-2h3v-2l14-10 16-8 29-11 5-2h3v-2l9-4 10-6 6-5 1-2h2l2-5 5-9h2v-13l-5-15-3-8-8-26-2-10-2-9-2-15v-19l-2-3 3-7 1-8-6 1z" fill="#498B15"/>
<path transform="translate(732,1311)" d="m0 0 12 1 33 7 32 5v1h-10l-24-4-23-4-12-3-7-1-3 9-3 15-4 15-5 23-4 23-2 28v12l1 15 1 6 4 2 3 3 14 7 17 9 16 7 19 8 19 7 25 6 11 3 28 6 17 3 31 3h53l30-2 32-4 49-10 16-4 10-4 12-3h5v-2l12-3 7-3 13-4 8-1v3l-14 7-12 5-28 11-28 9-26 7-40 8-26 4-27 3-5 1h-52l-36-4-12-2-2-1-21-3-19-4-16-4-15-4-21-7-17-7-9-4-14-6-4-2 3 12 7 18 6 11 10 16 10 13 9 11 16 16 8 6 15 8 14 3 15 3 6 2 26 4 32 3h70l32-2 37-3 39-5 38-6 32-6 12-4 5-6 7-15 7-20 8-31 3-18 2-17 1-21v-28l-2-35v-9h1l3 29 1 18v27l-2 27-4 27-7 28-9 27-8 16-4 6-9 14-8 13-5 8-7 3-27 6-16 3-35 5-44 3h-36l-27-1-32-3-24-5-23-6-17-6-10-4-16-8-18-10-14-9-10-8-12-11-10-10-4-5v-2h-2l-2-5h-2l-7-11-11-19-8-18-6-18 1-5 10 4 12 6 28 11 28 9 29 7 26 5 29 4 29 2h45l26-2 42-6 33-7 30-8 24-8 7-3-7 1-36 9-32 7-29 4-25 2-24 1h-34l-27-2-18-2-20-3-19-4-35-9-24-8-26-11-23-11-20-12-5-4-2-5-1-6v-40l4-29 8-36 7-29z" fill="#AECE58"/>
<path transform="translate(560,557)" d="m0 0h11l30 3 24 6 12-1 26-4 19-2h45l22 3 18 4 21 7 19 10 11 8 10 9 6 6-1 2-12-12-16-11-16-8-16-6-25-6-17-2-27-1-18 1-37 5-2-1v2l-12 1-6 1h-7v-2h-9l-8-3-15-1-13-2h-16l-10 1-6 2-26 4-12 4-20 11-10 8-12 6-1 2h-2l-2 4-4 2-2 4-9 10-4 7-6 11-7 29-1 10 1 4v17l4 23 3 9 4 14 2 1 1 4h2l4 6v2l3 1 4 5v2h2v2h3l2 3 17 8 14 4h18l18-4 15-6 9-3h2v-2l14-4 11-1h14l22 5 10 4 16 8 5 3 11 6 14 7 21 8 9 3 10 2 19 2 19-1 27-3 17-3 11-1 10-3 27-5 12-3 7-1 3-1 4-19 3-15h1l-1 11-5 26-5 17-5 3-13 4-29 7-27 5-18 3-11 1h-33l-14-2-17-4-14-5-16-8-24-13-17-8-17-5-10-2h-16l-9 2-13 4-26 10-19 4h-18l-7-1-10-4-15-9-4-4v-2l-4-2-11-15-8-16-5-13-4-14-3-13-1-10v-34l3-16 5-17 8-16 7-10 9-10 7-7 13-10 13-8 20-9 5-2 16-4 16-2z" fill="#498B15"/>
<path transform="translate(1574,1453)" d="m0 0 4 1 4 7 7 14 4 10 2 14v9l-3 8-4 6-8 11-2 3h-2l-2 4-9 10-19 19-4 3h-2v2l-6 4-7 2-2-2-3-19-4-13-7-14-4-3 1 11 1 7v24l-3 20-5 9-8 6-5 3-10 4-13 6-7 3-4-1-1-3 3-7 5-13 5-22 2-13 1-14 4-8 3-1v-2l8-4 10-7 10-3 6-7 9-7 13-10 5-6 7-6 2-3h2l2-4 9-10 7-10h2l2-5z" fill="#AECE58"/>
<path transform="translate(1437,777)" d="m0 0 5 1 5 5 7 9 5 11 5 21 2 12 3 3h8l7-7 10-13 5-6 10-8 2-1h6l6 7 2 9v23l-4 21v8l3 3 4 1 9-3 17-9 10-3h10l-1 9-7 19-10 19-11 16-8 10-11 12-3 3h-2v2l-13 9-12 5-5 1h-21l-19-5-11-5-17-8-10-6-10-7-9-7-11-11 1-2 8 8 3 2 1-3 4 1 1 2 10 3 5 2 18 7 12 3 18 1 15-2 7-3 5-3 11-7 4-2v-2l5-2v-2h2v-2h2l2-4h2l1-4 3-3 5-8 4-9 1-5-9-1-5-3h-5l-7 3-6 1h-9l-2-5 3-9 10-20 3-10v-14l-1-2-5 1-8 7h-2l-1 4h-2l-2 4-5 4-3 2h-8l-6-4-3-6-2-13-3-12-5-11-2-3v-2l-2-1-3-9h-2l-2-4-3-2z" fill="#498B15"/>
<path transform="translate(1220,961)" d="m0 0 5 1 1 3 4 39v15l-9 3-17 3-21 1-2 1 13 4 10 1h13l21-2 20-4h5l-3 2-18 4-17 3h-28l-16-3-11-3h-29l-43-3h-4v-11l4-26-5 1-31 1-2-2 8-3 3 1h-2v2l37-2 32-5 29-6 30-8z" fill="#498B15"/>
<path transform="translate(1376,1515)" d="m0 0h5l3 5 5 13 3 11 3 24 3 3h13l2-9 8-14 8-9 11-8h6l2 2v17l-4 27-7 23-8 16-6 9-9 10-4 5-4 1v2l-17 12-16 8-15 6-16 4-18 1-18-1-19-5-9-4-12-7-10-8-8-8-9-13-7-12-5-11v-5l6-2h29l13 2 2 1 16 1 19 7-2-6-4-2-5-5-9-8-2-4v-27l3-18 2-7h1l-1 8-2 12v17l2 6v7l1 3 11 9 12 14 1 5-2 2-8-1-7-3-8-4-4-1h-13l-8-2h-21l1-2-21-2 2 6 3 2 1 2 4 2 6 11 2 1 3 5 8 7v2l5 1 10 5 7 3 25 4h17l22-4 7-3 13-4 19-10 10-7 13-12 3-3h2l2-4 9-11 4-9 5-10 3-14 6-12 1-4 3-6 1-5-8 3-10 9-6 8-5 10-2 9v2l-5 4-9 1-6-3-4-5-3-20-3-16-2-5-1-10-1-3-5 1h-3z" fill="#498B15"/>
<path transform="translate(1153,330)" d="m0 0h23l18 3 15 5 17 8 18 11 13 11 8 7 5 5 11 13 9 13 7 11 9 15 10 19 7 16 7 15 8 16 9 14 9 12 18 27 15 26 10 19 10 22 9 25 7 25 3 21 1 13v24l-2 21-4 15-8 14-6 16-7 21-9 15-4 5-2 1-9-1-11-3-7-1h-10l-7 3-6 7-3 3 2-6 8-8h2l2-4 18 1 13 3 2 1 6-2 4-5 1-2h2l1-4 6-15 2-9 3-7 2-5 4-8 5-11 4-13 3-20v-24l-3-26-5-21-2-5-1-7-3-6v-2h-6l-4 8h-2v2h-3v2l-8 4-7 1-12-2-9-5-3-3-3-6v-10l2-5 8-9 4-2 14-1 9 2 5 3 4-2-3-9-4-8v-3h-2l-2-7-7-12-8-14-8-13-6-10-2-5h-2l-5-8-9-13-14-22-6-14v-3h-2l-5-12-15-30-6-9-8-11-3-6-11-16-8-9-2-1v-2l-4-2-3-2v-2l-5-2v-2h-2v-2l-10-5-5-4-13-6-15-6-25-5-29-1-24 3-9 2-5 2-6 2-4 2h-3v2l-3 2-5 1-1 2-7 2h-2l-1 3-7 2-3 1v2l-7 3-21 18-5 2h-6l-1-6 2-1 1 5 5-1 13-12 13-11 12-8 10-6 20-8 16-5 16-4z" fill="#498C15"/>
<path transform="translate(549,567)" d="m0 0h20l22 3 21 6 13 4 14-2 33-5 14-1h34l21 2 19 4 20 7 14 8 12 9 5 5v2l-6-1-8-4-26-7-23-5-24-3-30-1-23 1-30 5-13 4-9-1-12-5-16-5-14-3-16-2h-28l-19 3-21 6-10 3v-3h2v-2l11-7 14-7 16-5 11-2z" fill="#A6D270"/>
<path transform="translate(1464,1152)" d="m0 0 3 3 8 16 7 20 4 18 2 15v15l-3 20-4 17-8 21-12 23-10 15-10 14-12 13-9 9-15 10-15 7-13 3h-8l-1-2v-7l2-6 16-10 16-11 16-13 10-10 1-2h2l2-4 10-13 9-14 10-21 6-18 4-20 1-8v-30l-3-21-5-20z" fill="#ADCE5A"/>
<path transform="translate(750,1560)" d="m0 0h2l2 5h2l8 10 14 14 10 8 10 7 22 13 15 8 7 3 25 9 15 4 23 5 9 2 35 3 24 1h38l42-3 35-5 8-2 19-2 19-4 7-4 6-8h3l2-5 10-19 4-3 4 1 9 6 11 7 10 4 5 1-1-20 6-12h2v-2l4-2 3 1-5 5-5 8v14l5 13 6 10 5 9 10 13 1 5-9 1-32-5-21-5-7-3-17-5-10-3-30 6-14 3-40 6-22 2-19 1h-59l-32-3-24-4-28-7-26-9-25-12-17-10-17-12-13-11-17-17-7-9z" fill="#498B15"/>
<path transform="translate(1302,538)" d="m0 0 14 1 10 3 11 7 2 4 4 2 2 6 3 7-1 9-5 10-8 7-15 7-8 1h-13l-12-5-9-7-5-6-2-3-1-7v-8l4-10 5-7 7-5h3v-2l10-3z" fill="#498B15"/>
<path transform="translate(771,1083)" d="m0 0h1l-1 8-8 26-7 24-10 30-4 16-5 3-10-8-3-2-1 2 3 7 4 8 3 12v10l-7 29-8 34-4 15-5 23-8 33-7 33-3 7-28 20-3 1v2l-9 6h-5l-7-9-9-17-2-5 1-3 1 4 10 1-1 2h-2v8l4 2 5 8v2l9-3 10-8h3v-2l11-7 4-4h2l2-5 4-13 3-13 3-11 6-31 7-26 1-2 1-9 1-5v-26l-5-19-4-18-3-9-4-13v-10l1-7 4-3 7-2h8l11 1 8-3 3-2h3l1-5h2l1-5 3-7 3-12h2v-8h2l1-7 1-5h2l1-7 5-15 2-7z" fill="#498B15"/>
<path transform="translate(1614,1356)" d="m0 0 6 5 9 14 4 11v24l-8 34-7 21-5 13-3 3-4-1-9-12-6-7-8-7-5-1-1-7 7-12 9-20 5-12 6-17 6-23z" fill="#AECE58"/>
<path transform="translate(1455,1070)" d="m0 0 20 8 19 10 25 17 14 12 3 2v2l4 2 11 11 18 22 8 11 10 15 12 22 10 22 7 15 4 11-1 3-4-8-3 3h-3v2l-3-1v-2l-3-1-3-27-6-18-7-13-5-8-5-5-10-15-9-11v-2h-2l-5-7-3-3v-2h-2l-7-8-11-11-10-8-2-1v-2l-6-2h-20l-11 3-10 6-8 11-2 6v4l2 2 1 7 3 4-1 5v5l-2-3-4-12-6-12-8-17-9-15 1-6 12-17 4-5z" fill="#498B15"/>
<path transform="translate(1148,343)" d="m0 0h28l12 2 18 7 12 7 12 9 15 14 8 8 7 10h-3l-15-10-14-8-19-8-21-6-11-2-13-1h-24l-29 4-23 6-12 4-5 2-3-1 4-4 5-2v-2l16-11 15-8 21-7z" fill="#A6D270"/>
<path transform="translate(771,1069)" d="m0 0h5l-1 7-4 8-4 3-12 5-15 8-20 12-18 12-14 11-11 9-11 10-9 11-2 3h-2l-2 5-8 11-8 17-4 15-2 13-1 12-4-1-3-15v-9l3-21 5-13 6-11 9-13 12-14 15-14 17-13 17-12 20-12 18-10z" fill="#ADCE59"/>
<path transform="translate(815,329)" d="m0 0 16 1 18 4 17 7 16 10 11 8 13 10 5 1-1-6-10-14 1-3 22-4 20-3 33-2 40 2 36 6 7 2-2 4-3 2v-4l-20-4-26-3-14-1h-35l-41 5v2l-8 1-2 6 5 8v7l-2 2h-6l-10-6v-2l-5-2-4-3v-2l-10-5-9-4-10-5-17-5-11-2-9-1h-10l-16 2-16 6-3 2-7 2-13 11-7 8-7 11-5 9h-2l-2 5-4 11-5 12-4 12-7 22-4 17-3 6-8 9-3 3-3 7h-2v2h-2l-1 5-3 6 5-3 1 1h11 2l7-1 1-1 8-1 8-3 12-2 6-2 18-3 1-5-5-12-2-14v-10l1-12 7-16 2-4h2v-4l3-3 1-2h2v-2h2l2-4 8-7 9-4 2-1h9v1l-8 2-10 5-10 8-9 13-5 10-4 13-1 11v12l2 9 7 15-1 4-25 5-26 6-26 8-25 10h-3l2-6 7-9 9-11 12-13 11-12 3-7 6-28 6-20 6-17 5-11 4-8 10-15 6-8 8-7 4-2v-2l14-8 11-4 15-3z" fill="#498B15"/>
<path transform="translate(1613,1257)" d="m0 0h6l3 8 2 5 6 31 3 16 2 19v23l-4 1-9-4-5-1-1 3h-3l-3 7-7 27-8 21-15 30-2 3 1 6 5 2 4 3-1 2-5-2-2 3-2-3v-3l-6 1-4 6h-2l-2 5-12 14-4 5-5 5h-2l-2 4h-2l-1 3-8 7-11 9-10 8-3 4-10 3-10 7-6 3h-2v2l-4 4-2 5-2 21h-1l1-28 3-6 25-15 9-6 6-5h2v-2l13-10 17-16 9-9 8-11h2l2-4 9-12 13-24 10-24 9-30 4-15 4-41v-25l-1-15v-11z" fill="#58AC15"/>
<path transform="translate(1056,752)" d="m0 0 2 2 4 12v6l-25 10-19 6-24 5-27 3h-23l-8-16-2-5 6 1 35-3 29-4 25-6 24-7h3z" fill="#498B15"/>
<path transform="translate(560,557)" d="m0 0h11l30 3 24 6 12-1 26-4 19-2h45l22 3 18 4 21 7 19 10 11 8 10 9 6 6-1 2-12-12-16-11-16-8-16-6-25-6-17-2-27-1-18 1-37 5-2-1v2l-12 1-6 1h-7v-2h-9l-8-3-15-1-13-2h-16l-10 1-6 2-26 4-12 4-20 11-10 8-12 6-1 2h-2l-2 4-4 2-2 4-9 10-4 7-6 11-7 29-1 10 1 4v17l4 23 3 9 4 14 2 1 1 4h2l4 6v2l3 1 4 5v2h2v2h3l2 3 17 8 14 4h18l18-4 15-6 1-1h6l-3 3-13 5-13 4-5 1-8 2h-10l-19-4-16-6-1-3-4-2-7-5-5-6v-2h-2l-1-4h-2l-4-8v-3h-2l-6-16-5-25-1-20 1-16 3-16 6-16 2-10 9-14 11-12 12-11 15-10 16-8 14-6 16-4 16-2z" fill="#498C15"/>
<path transform="translate(1121,1307)" d="m0 0h6l-2 2-29 7-28 5-27 4-31 4-21 2h-85l-30-3-30-2-4-1-18-1-29-5-10-3v-3l10 1 6-3h14v3h19l26 4 39 3 42 1h40l28-1 45-4 32-4z" fill="#172910"/>
<path transform="translate(1232,1237)" d="m0 0h5l6 7 3 7v26l-2 7v19l-2 12-2 3v10l3 7v6l-3 12-4 10 1 24 1 6 5 6v2l4 2 4 4v3h2v2h2v2h2l7 11 6 11 10 15 3 3 5 9 6 10 8 12 4 5v2l4 2 3 4-3 1-2-1v4l-10 2h-5l2-2 6-1 1-7-5-9-9-15-6-12-6-8-8-12-10-14-7-7v-2l-3-1-7-8-8-7-5-6v-2h-2l-5-9-3-6v-19l4-17 10-31 5-18 2-14v-16l-1-14-3-7z" fill="#4E9719"/>
<path transform="translate(685,1421)" d="m0 0h4v8l-4 6-8 7-32 32-1 2h-2l-2 4-9 11-8 11-10 16-10 17-5 9-8 16-5 13-3 8-4-1v-16l6-17 10-23 7-14 9-14 8-11 13-16 7-8 17-17 28-22z" fill="#ADCE5A"/>
<path transform="translate(1295,1532)" d="m0 0h1l-1 8-2 12v17l2 6v7l1 3 11 9 12 14 1 5-2 2-8-1-7-3-8-4-4-1h-13l-8-2h-21l1-2-21-2 2 6 3 2 1 2 4 2 6 11 2 1 3 5 8 7v2l5 1 10 5 7 3 25 4h17l22-4 7-3 13-4 19-10 10-7 13-12 3-3h2l2-4 9-11 4-9 5-10 3-14 6-12 1-4 2-5 3 1-7 21-2 9-3 7-2 8-9 18h-2l-1 5-9 12h-2v2l-14 10-14 9-15 6-29 8-24 4h-13l-10-2-7-3-16-6v-2l-4-1-8-6v-3h-3l-3-3-3-4v-2h-2l-2-5h-2l-8-11-5-6v-5l6-2h29l13 2 2 1 16 1 19 7-2-6-4-2-5-5-9-8-2-4v-27l3-18z" fill="#4E9718"/>
<path transform="translate(1102,440)" d="m0 0h10l7 4 2 4h2l3 7v11l-4 12h-2l-2 5-1 3-11 8-4 1v2l-8 2-7-2-6-5v-2h-2l-2-4-1-13 1-9 5-10 8-9 8-4z" fill="#FAFBF7"/>
<path transform="translate(649,890)" d="m0 0h8l19 4 24 7 30 7 17 3 14 1h12l25-2 20-3h6l-3 5-15 7-16 5-21 3h-22l-20-3-29-9-25-10-15-7-10-6z" fill="#223D18"/>
<path transform="translate(1211,584)" d="m0 0 10 1 10 4 9 8 3 8v6l-4 8-5 5-6 5-9 2h-12l-11-6-7-7-2-6v-9l4-8 8-7z" fill="#498B15"/>
<path transform="translate(810,335)" d="m0 0h10l17 2 18 6 14 9 13 11 9 11 3 7-2 1-16-11-11-6-16-8-19-6-7-1h-21l-15 3-15 6-13 8-9 8-4 1 1-5 9-11 8-8 8-6 13-6 14-4z" fill="#A5D271"/>
<path transform="translate(1636,1332)" d="m0 0h1l1 28-1 5-6-1-7-3 8 16 3 9 1 5v12l-4 25-8 28-10 25-4 7-5-4-6-10-5-6-5-3 8 24 1 6v13l-4 10-8 11-10 13-9 10-20 20-14 11-5 3-5-1-2-9-2-17-4-12-2-2-1 30-4 20-3 6-13 8-16 8-22 10h-7l-1-3 4-10 6-11 1-2h2l4-16 3-15h1l-1 11-4 17-6 15-2 6 1 2 5-1 12-5 12-6 7-3 9-6 5-9 3-20v-24l-2-16 1-2 4 2 6 11 5 13 3 14 1 9 3 1 5-2 4-3h2v-2l9-7 22-22 5-7h2l2-4 8-11 5-9 1-4v-9l-2-14-4-10-7-14 1-5 7 3 5 5 8 9 4 5v2l5-1 5-12 6-16 4-15 6-26v-24l-5-12-6-10-4-5v-4l7 1 9 3h3z" fill="#4C9416"/>
<path transform="translate(1410,966)" d="m0 0 4 2 4 8 2 18-1 14-3 13-6 16-3 7h-2l-2 5-10 14-8 9h-2v2l-11 9-11 12h-2v2h-2v2l-11 7-10 6-9 7-13 8-8 3-6 3-3 3-9 3-9 5-9 3-13 5-15 4-8 2-19 5-20 3-13 1-4 1 2 7 5 10 3 9v4h2l5 8v2h2l7 9v2l4 2 5 4v2h3l4 4 3 1v2h2v2l-4-2-9-5-5-4-8-7-10-12-11-18-7-14-2-5 1-4 2-1 19-1 27-4 22-6 15-5 12-5 18-8 8-5 10-5 20-12 14-9 15-11 20-16 10-9 5-5 5-7h2l2-5 6-9 4-7 6-16 3-13v-18l-3-16z" fill="#4E9719"/>
<path transform="translate(1480,1243)" d="m0 0h1v9l-4 20-3 9-2 8-8 16-5 9-5 8-6 8-3 3-2 5-5 7-4 4-4 6-8 8h-4v2l-8 7-3 1v2l-13 6-10 4-11 1-2-1v-7l8-5 10-6 16-11 6-5h2v-2l4-1v-2l6-5h2v-2h2v-2l7-6 5-5 4-2 1-4 6-8 4-7 2-3h2l3-10 4-9 3-7 3-8 3-12h2l2-12z" fill="#E0FE66"/>
<path transform="translate(850,1145)" d="m0 0 8 1 20 1 48 6 15 1h76l45-4 8-1h11l-3 2-35 6-23 3-25 1-11 1h-65l-26-2-21-1-11-2-14-1-8-2v-2h-12l-2-4 1-2h2l1 2 13 2h3l2-4z" fill="#172A10"/>
<path transform="translate(1373,683)" d="m0 0h13l9 4 7 8 2 7v7l-7 10-9 6-7 1-12-2-9-5v-2l-3-1-3-9v-7l4-8 4-2v-2l7-4z" fill="#498B15"/>
<path transform="translate(744,645)" d="m0 0h10l6 3 5 7 2 7v10l-6 12-5 5-6 2h-9l-8-6-6-8h-6l-4 1-1-3 10-16 9-10z" fill="#213B19"/>
<path transform="translate(498,629)" d="m0 0h6l11 6 8 9 6 12 1 7h-9l-6 4-7 6-3 1h-9l-6-3-5-6-2-5v-15l3-8h2v-2h2l1-3z" fill="#213B19"/>
<path transform="translate(804,505)" d="m0 0h43l29 2 25 4 24 5 26 7-4 1-20-5-27-5-29-4-17-1h-50l-29 2-29 5-15 3-18 5-8 5h-2l3 4 7 1 4 1 9 2 13 2 19 3 24 7 16 7 15 8 13 10 3 2v2l4 2v2l4 2 10 13 6 10 4 10-1 4-5-12-7-12-8-10-11-11-14-10-14-8-20-8-19-5-16-3-25-2h-12l-23 1h-12v-3l15-8 21-8 25-7 25-5 21-3z" fill="#498C15"/>
<path transform="translate(1506,813)" d="m0 0 4 1 3 9v11l-2 9-2 8-4 8-2 5h-2v4h-2l1 8h20l5 2 9-1 4-2h4l2 5-6 11-6 9-9 11-6 6h-2l-2 4-5 5-12 9-12 6-19 5-13-1-12-2-7-3-7-2-10-3-7-2v2l-5-2-6-4-2-2v-5l4 1 1 2 10 3 5 2 18 7 12 3 18 1 15-2 7-3 5-3 11-7 4-2v-2l5-2v-2h2v-2h2l2-4h2l1-4 3-3 5-8 4-9 1-5-9-1-5-3h-5l-7 3-6 1h-9l-2-5 3-9 10-20 3-10v-14l-1-2-5 1-8 7h-2l-1 4h-2l-2 4-3 3-2-1 6-7 10-13h2l2-4 3-3z" fill="#4E9718"/>
<path transform="translate(706,1529)" d="m0 0 3 4 4 16v12l-7 11-5 5h-2v2l-15 9-4 3-13 5-20 7-10 3-18 9-17 12-9 5-7 3-18 4-14 4-12 3h-21l-6-1v-2l-3 1-12-3-5-2v-1h10v2l4-1 7 1h10l44-5 18-6 11-7 3-2h3v-2l14-10 16-8 29-11 5-2h3v-2l9-4 10-6 6-5 1-2h2l2-5 5-9h2v-13l-3-9z" fill="#4E9719"/>
<path transform="translate(890,754)" d="m0 0 4 1 8 7 10 11 10 15 3 6v4l-8 2-25 5-11 1 2-17 2-11 2-7 2-14z" fill="#F8FAF2"/>
<path transform="translate(1291,624)" d="m0 0h8l10 4 8 10v8l-4 9-4 1v2l-5 3-12 2-12-5-5-5-2-3v-11l5-7h2l2-4z" fill="#498B15"/>
<path transform="translate(1037,803)" d="m0 0h3l-1 10-6 23-8 15-4 1-9-9-12-17-7-10v-3l28-6z" fill="#F9FBF4"/>
<path transform="translate(745,1157)" d="m0 0h1v5l-3 5-5 3-4 4h-8l-13-3-4 2-1 4 5 6 2 4 1 12 4 2 1 4h-2l-1 3h-2l3 5 2 1 1 3-1 23-2 6-1 14-3 16h-1l-1-26-5-19-4-18-3-9-4-13v-10l1-7 4-3 7-2h8l11 1 8-3 3-2h3l1-5h2z" fill="#4E9719"/>
<path transform="translate(1620,1272)" d="m0 0 4 1 8 37 2 13 1 13v23l-4 1-10-5-7-4-1-7 2-9 3-55z" fill="#AECE58"/>
<path transform="translate(1375,613)" d="m0 0h7l8 3 2 1v2h2l2 5h2v2h2l-1 10-4 8-6 4-6 1h-14l-6-3-5-5-2-9 2-7 5-5 5-4z" fill="#498B15"/>
<path transform="translate(580,802)" d="m0 0h17l12 2 20 8 18 10 17 10 20 8 17 5v1l-9-1-18-6-13-6-14-8-18-10-11-5-13-4-6-1h-20l-16 4-10 4-4 14-2 10v7l5 8 9 7 21 10 26 9 20 8 18 8 14 9 16 9 13 7 19 10 16 7 16 6 19 7 23 7 43 12 30 5 29 5 3 2-1 1h-30l-15-1v-1h27v-1l-13-2-36-7-40-10-32-10-30-13-24-11-22-11-18-11-14-8-17-8-26-10-20-8-19-10-9-8-3-5v-11l4-20 4-5 16-6z" fill="#4E9616"/>
<path transform="translate(1464,1152)" d="m0 0 3 3 8 16 7 20 4 18 2 15v15l-3 20-4 17-8 21-12 23-10 15-10 14-12 13-9 9-15 10-15 7-3 1-16 1-2-2 1-3 1 2 10-1 14-4 9-5 3-1v-3l5-4h2l2-4h2v-2l5-2 3-3h2l2-4 1-3h2l2-5 3-1 2-5 4-5 2-5 5-5 2-5h2l2-5 3-4 12-24 3-13 3-10 3-8 1-8 1-20v-16l-5-21-6-17-4-2-4-14z" fill="#A8D169"/>
<path transform="translate(522,821)" d="m0 0h9v9l-5 19-4 10-2 2-5-1-9-7-9-10-10-14-2-4v-3h27z" fill="#FDFDFD"/>
<path transform="translate(1075,1513)" d="m0 0h6l-2 2-24 7-33 7-44 6-28 1h-36l-37-2-28-4-5-1v-2h9l5 1v-2l4 1 1-2 5 1 26 1 5 2h7l5 1h73l1-3 39-4 24-4 24-5z" fill="#213B19"/>
<path transform="translate(1063,714)" d="m0 0 8 1 12 4 9 4 11 6v2l4 1v4l-9 10-7 7-9 7h-4l-6-17-5-14-4-11z" fill="#F9FBF5"/>
<path transform="translate(750,1560)" d="m0 0h2l2 5h2l8 10 14 14 10 8 10 7 22 13 15 8 7 3 25 9 15 4 23 5 9 2 35 3 24 1h38l42-3 35-5 8-2 19-2 9-2 4 1-12 4-20 4-40 6-22 2-19 1h-59l-32-3-24-4-28-7-26-9-25-12-17-10-17-12-13-11-17-17-7-9z" fill="#4E9716"/>
<path transform="translate(804,400)" d="m0 0 9 1 5 6 1 9-4 9-7 8-6 4-3 1h-7l-6-4-2-4v-12l6-10 9-6z" fill="#F3F7E7"/>
<path transform="translate(769,848)" d="m0 0h10l1 4-5 13-7 12-7 8h-5l-5-6-2-7h-2l-3-5-1-6-3-1-2-4v-5l1-1z" fill="#FBFCFA"/>
<path transform="translate(1377,942)" d="m0 0 5 1 3 4-2 5-14 15-9 9-11 9-10 8-17 11-17 10-20 9-15 5-14 2v-2l24-8 23-11 17-11 12-9 14-12 13-13 9-11 1-2h2l2-4z" fill="#A7D16C"/>
<path transform="translate(717,1487)" d="m0 0 8 2 16 8 20 8 36 12 18 5 39 8 23 3 37 2h36l28-1 44-6 36-8 21-6-7 1-8 2h-8v-1l30-7 28-7h5l-4 3-19 7-32 9-36 8-24 4-34 4-15 1h-45l-29-2-35-5-33-7-26-7-29-10-28-12-10-5-1 4 7 21 10 21 8 13 4 6-1 2-4-5-14-24-8-20-5-15v-5z" fill="#4E9716"/>
<path transform="translate(1507,1529)" d="m0 0 4 2 6 11 5 13 3 14 1 9 3 1 5-2 4-3h2v-2l9-7 22-22v3l-25 25-4 5-12 9-6 1-2-4-3-23-4-12-2-2-1 30-4 20-3 6-13 8-16 8-22 10h-7l-1-3 4-10 6-11 1-2h2l4-16 3-15h1l-1 11-4 17-6 15-2 6 1 2 5-1 12-5 12-6 7-3 9-6 5-9 3-20v-24l-2-16z" fill="#4A8E15"/>
<path transform="translate(1333,842)" d="m0 0 1 4-1 6v12l3 9 1 7-3 5-15 10-9 5-24 14-32 16-16 7-27 11-38 13h-5l3-2 35-12 11-5 15-6 14-5 31-15 15-9 11-11 6-9h2l2-4 10-11 6-10 3-17z" fill="#498C15"/>
<path transform="translate(520,1587)" d="m0 0h6l1 4-8 4-14 4-11 1h-58l-7-6-1-3 1-1h27l21 2h14l25-4z" fill="#A5D273"/>
<path transform="translate(447,1492)" d="m0 0 2 1-5 5v13l1-1 2 2v3h2l3 6 5 12 6 8 9 13 2 4 4 2 5 5 5 3 1 2 11 5 10 4 2 1v2l6 1v2l4 1-2 2-15 3-14 2h-14l-21-2h-27l-1 3-1-5 4-1h21l26 3h10l23-4 3-1-6-3-16-6-10-6-10-9-8-9-11-16-9-17-6-16-1-6 2 2 4-6z" fill="#498B15"/>
<path transform="translate(1381,572)" d="m0 0 4 4 8 15 3 7 9 19 3 9 5 11 1 8-2-1-2-7h-6l-4 8h-2v2h-3v2l-8 4-7 1-12-2-9-5-3-3-3-6v-10l2-5 8-9 4-2 14-1 9 2 5 3 4-2-3-9-4-8v-3h-2l-2-7-7-12zm-6 41-10 5-5 5-3 4-1 8 3 7 7 6 5 1h12l8-2 5-4 4-11v-6h-2v-2h-2l-2-5h-2v-2l-3-2-7-2z" fill="#4E9718"/>
<path transform="translate(463,598)" d="m0 0 1 3h-2l-2 4-4 2-2 4-9 10-4 7-6 11-7 29-1 10 1 4v17l4 23 3 9 4 14 2 1 1 4h2l4 6v2l3 1 4 5v2h2v2h3l2 3 17 8 14 4h18l18-4 15-6 1-1h6l-3 3-13 5-13 4-5 1-8 2h-10l-19-4-16-6-1-3-4-2-7-5-5-6v-2h-2l-1-4h-2l-4-8v-3h-2l-6-16-5-25-1-20 1-16 3-16 6-16 6-12 11-14 6-6h2v-2z" fill="#4E9719"/>
<path transform="translate(1104,420)" d="m0 0h22l9 2 13 7 5 3 4 4v3l3 1 3 4v2h2l3 7 5 8 2 8h2l1 10 2 7 1 12v10l-1 14-4 17-8 18-6 10h-2l-2 4-7 8-9 7-7 4-3-1 14-9 8-8 9-13 7-15 5-16 2-12v-23l-3-17-3-10-5-10-8-12-5-6-11-8-8-4-10-3h-20l-13 4-14 9-8 7v-3l5-5h2l1-3 6-4h3v-2l12-5z" fill="#4A8E16"/>
<path transform="translate(1375,1309)" d="m0 0 5 3 13 13 6 5-1 3-18 13-9 6-3-1 1-11 5-30z" fill="#DAF864"/>
<path transform="translate(1295,1532)" d="m0 0h1l-1 8-2 12v17l2 6v7l1 3 11 9 12 14 1 5-2 2-8-1-7-3-8-4-4-1h-13l-8-2h-21l1-2-21-2v7l-2-2v-5l6-2h29l13 2 2 1 16 1 19 7-2-6-4-2-5-5-9-8-2-4v-27l3-18z" fill="#498D15"/>
<path transform="translate(1354,847)" d="m0 0h8l17 6 12 8 8 7 2 1 28 1 10 3 14 7 5 3-2-5-11-10-11-7-9-4-7-1-2-2 1-4 1 3 6 1 4-1 1 2 7 2 12 7v2l4 1 1 3 4 2v3l3 1 8 14-1 2h-5v-2l-4-2-9-6-5-3-9-4-8-1h-26l-6-3-5-5-5-4-8-5-10-2-4-4-9-3z" fill="#4A8E16"/>
<path transform="translate(1436,779)" d="m0 0 4 1-1 8-4 13-6 29-4 21-3 4-5-2-1-4 4-24 5-21 5-15 4-8z" fill="#ADCE5A"/>
<path transform="translate(1302,538)" d="m0 0 14 1 10 3 11 7 2 4 4 2 2 6 3 7-1 9-5 10-8 7-15 7-8 1h-13l-12-5-9-7-5-6-2-3-1-7v-8l4-10 5-7 7-5h3v-2l10-3zm-2 2-11 4-10 8-4 7-1 4v13l3 8 2 4 5 4h3l1 3 7 3 5 1h9l15-4 10-5 5-5 5-8 1-5-2-10-4-8-3-1v-2h-3l-2-4h-2v-2l-5-2h-5v-2l-5-1z" fill="#4E9719"/>
<path transform="translate(775,1145)" d="m0 0 9 1 37 8 12 2v1h-8l-28-5-15-4-5-1-5 16-7 23-7 24-11 43-7 28v6l2 1v2l8 1 41 10 26 6 48 8 7 1v1l-16-1-36-6-36-7-43-11-4-2v-8l8-32 9-34 12-43 8-26z" fill="#AECE58"/>
<path transform="translate(624,1489)" d="m0 0 2 1-10 15v1l7-9 1 3-11 18-10 17-5 9-8 16-5 13-3 4h-2l-1-2v-10l4-11 1 4 1 1 6-11 5-9-3-1 4-13 1-2h2l1-4 1-3h2v-3h2l2-4 4-5 2-5 7-8z" fill="#A6D26F"/>
<path transform="translate(1141,335)" d="m0 0h33l5 1 15 1 8 3 10 3 17 9 12 6 5 4v2l4 2 8 6 7 7-1 2-3-2v-2l-4-2-3-2v-2l-5-2v-2h-2v-2l-10-5-5-4-13-6-15-6-25-5-29-1-24 3-9 2-5 2-6 2-4 2h-3v2l-3 2-5 1-1 2-7 2h-2l-1 3-7 2-3 1v2l-6 1 5-5 9-6 19-10 21-7 16-3z" fill="#4E9719"/>
<path transform="translate(1129,546)" d="m0 0h6l5 4 2 4-1 7-5 8-5 4-4 2h-7l-5-4-1-2v-8l4-8 6-5z" fill="#AECE58"/>
<path transform="translate(677,1323)" d="m0 0h6l5 3 1 3-5 6-8 7-6 8-5 12-3 7h-2l-3-7v-15l4-10 6-7 8-6z" fill="#ADCE59"/>
<path transform="translate(719,1466)" d="m0 0 5 2 24 13 13 6 34 14 23 7 28 7 24 5 20 3 24 2 16 1h34l24-1 25-2 29-4 8-2h6l-3 2-9 2-27 4-33 3h-69l-35-4-29-5-25-6-33-10-28-11-25-12-17-10z" fill="#4E9716"/>
<path transform="translate(494,626)" d="m0 0h10l8 2 1 2 7 4 6 8 6 11 3 8-1 6-6 1h-7l-5 3-3 3-6 3h-11l-8-4-4-4-1-3-2-1-2-12 2-12 5-9 6-4h2zm4 3-8 4v2h-2v2h-2l-3 8v15l4 8 6 5 3 1h9l7-4 7-6 7-1h4l-1-7-6-12-8-9-11-6z" fill="#4A8E16"/>
<path transform="translate(952,323)" d="m0 0h49l29 3 22 4 3 3h-8l-7-1-15-1-2-1-14-1h-27l-7-1-5 1h-32l-7-1-1-2 2-1z" fill="#182A11"/>
<path transform="translate(775,1143)" d="m0 0 12 2 31 7 17 3h12l14 1 11 2 38 2 9 1h65l11-1h14v1l-22 2-18 1h-62l-24-1-36-4-36-6-36-8-3 11-6 20-1-4 7-23z" fill="#3B6F17"/>
<path transform="translate(1354,848)" d="m0 0h5l2 5 2 12 5 13 8 16 10 16 9 12-1 3-8-7-8-9-7-10-9-16-7-14-3-11 1-9z" fill="#ADCE59"/>
<path transform="translate(731,1309)" d="m0 0h7l22 5 33 6 40 6 40 3 17 1 81 1v1h-89l-22-1-43-5-40-6-39-8h-6l-3 7-11 47-5 27-2 17v40l2 9 5 5 1 2-5-2-3-3-2-10-1-20 1-22 4-31 8-36 7-28z" fill="#4B9016"/>
<path transform="translate(726,1104)" d="m0 0m-1 1 1 2-4 4-16 10-13 10-16 13-11 10-9 11-2 3h-2l-2 5-8 11-8 17-4 15-2 13h-2l-1 7-2-2-1-3v-24h1l1 11 2-2 3-12 6-13 6-11 7-11 4-5h2l2-4 11-12 8-8 11-9 16-12 12-8z" fill="#A8D168"/>
<path transform="translate(1165,1597)" d="m0 0 5 1 9 6 11 7 10 4 5 1 1-6 2 4-1 4-3 2-9-2-9-3-18-9-4 1-2 1-1 4-4 10v6l6 4-3 1-6-2-6 1-2-1v2l-5 1v2l-7 1 4-3 5-5 4-5h3l2-5 10-19z" fill="#4E9719"/>
<path transform="translate(1373,683)" d="m0 0h13l9 4 7 8 2 7v7l-7 10-9 6-7 1-12-2-9-5v-2l-3-1-3-9v-7l4-8 4-2v-2l7-4zm5 1-10 4-6 5-4 7v8l2 5 5 5 4 2 6 1h8l9-3v-2l4-1 4-6v-10l-6-9-3-3z" fill="#4E9719"/>
<path transform="translate(841,407)" d="m0 0 3 2 5 16v23l-5 16-7 14-1 5 26 2 10 2 25 3 20 4 21 6 25 9-4 1-24-8-15-4-20-4-30-4-40-3-1-2 7-11 6-12 4-13 1-7v-13l-3-12-3-7z" fill="#498D15"/>
<path transform="translate(649,890)" d="m0 0h8l14 3v1l-13-1 3 3 26 11 36 12 12 3 18 2h19l16-2 21-7 10-5-6-1v-1l11-1-3 5-15 7-16 5-21 3h-22l-20-3-29-9-25-10-15-7-10-6z" fill="#509B16"/>
<path transform="translate(1124,1638)" d="m0 0 4 1-12 4-20 4-40 6-22 2-19 1h-59v-2h48v-2l21-1 28-2 35-5 8-2 19-2z" fill="#4D9515"/>
<path transform="translate(549,567)" d="m0 0h20l22 3 21 6-4 1-18-5-14-2h-30l-17 3-13 4-11 4-4 3h-2v2l17-4 10-2 12-1h17l14 1 22 5-4 1-17-3-9-1h-28l-19 3-21 6-10 3v-3h2v-2l11-7 14-7 16-5 11-2z" fill="#AECE58"/>
<path transform="translate(623,1237)" d="m0 0 2 3 3 4 2-4 2 12 4 5v2h2l1 4 4 4 5 6v2l3 1 5 6 4 3v2l4 1 2 2 4 2 5 5 5 3 7 8 1 5-2 5-2 4-9 3-6 5-2-1 8-7 6-5 2-6-4-6-9-6-9-7-7-5v-2l-4-2-11-12-9-14-7-16z" fill="#4A8E16"/>
<path transform="translate(810,335)" d="m0 0h10l17 2 18 6 14 9 13 11 3 3-1 2-7-7-13-10-16-8-10-3-17-1-24 2-7 2-12 4h-3v2l-9 6-2 3h-2l-1 4h-2v2l4-1-5 5-10 8h-2l1-5 9-11 8-8 8-6 13-6 14-4z" fill="#AECE58"/>
<path transform="translate(987,533)" d="m0 0h5l7 4 12 7 3 3 11 4 4 2 8 1v2l4 2 15 16 5 7v2h2l1 4-7-4-10-10-16-12-13-8-20-11-13-6v-2z" fill="#172A12"/>
<path transform="translate(497,1448)" d="m0 0 5 2 4 5-2 6-5 12-3 16-1 14-3-3-3-14v-16l2-12 5-9z" fill="#A6D16E"/>
<path transform="translate(505,1453)" d="m0 0 7 6v2l4 2 9 12 9 14 7 12 3 2 1-1 2-12 4-9 1 3-3 8v8l2 1-3 10-5 1-5-5-6-10v-3h-2l-8-13-2-2v-3l-3-1-7-9-1-3-4-2z" fill="#498C15"/>
<path transform="translate(797,389)" d="m0 0h9v1l-8 2-10 5-10 8-9 13-5 10-4 13-1 11v12l2 9 7 15-1 4-25 5-18 4h-5l3-2h2v-2l10-2 10-3 18-3 1-5-5-12-2-14v-10l1-12 7-16 2-4h2v-4l3-3 1-2h2v-2h2l2-4 8-7 9-4z" fill="#4A8E16"/>
<path transform="translate(1459,1313)" d="m0 0v3l-6 11h-2l-2 5-7 11v5l-14 15-8 8-15 10-15 7-3 1-16 1-2-2 1-3 1 2 10-1 14-4 9-5 3-1v-3l5-4h2l2-4h2v-2l5-2 3-3h2l2-4 1-3h2l2-5 3-1 2-5 4-5 2-5 5-5 2-5h2l2-5z" fill="#A7D16A"/>
<path transform="translate(692,484)" d="m0 0 1 3-2 4h-2v2h-2l-1 5-3 6 5-3 1 1h11 2l7-1 1-1 8-1 1-1h5l-2 2h-3v2l-29 9-11 4-10 2-1-4 9-12 10-11z" fill="#4D9518"/>
<path transform="translate(1582,1456)" d="m0 0 7 3 5 5 7 8-3 1-4-5-5-3 8 24 1 6v13l-4 10-8 11-10 13-9 10-20 20-2-1 26-26 2-5 3-4h2l2-4 8-11 5-9 1-4v-9l-2-14-4-10-7-14z" fill="#4A8E15"/>
<path transform="translate(1330,858)" d="m0 0h1v9l-3 5-4 5h-2l-2 4-7 8h-2l-2 4-19 19-17 9-23 11-29 12-24 9-24 8h-5l3-2 35-12 11-5 15-6 14-5 31-15 15-9 11-11 6-9h2l2-4 10-11 6-10z" fill="#509B15"/>
<path transform="translate(1291,624)" d="m0 0h8l10 4 8 10v8l-4 9-4 1v2l-5 3-12 2-12-5-5-5-2-3v-11l5-7h2l2-4zm5 2-9 3-5 4-4 6-1 5 2 8h2v2l9 6 8-1 11-7 6-8-2-5-4-7-3-1v-2l-9-3z" fill="#4E9719"/>
<path transform="translate(1113,1502)" d="m0 0h6l-4 3-19 7-32 9-36 8-24 4-34 4h-50v-1l58-2 44-6 36-8 21-6-7 1-8 2h-8v-1l30-7z" fill="#4C9215"/>
<path transform="translate(1376,1515)" d="m0 0h5l3 5 5 13 3 11 3 24 3 3h13l2-9 3-2-2 12v2l-5 4-9 1-6-3-4-5-3-20-3-16-2-5-1-10-1-3-5 1h-3z" fill="#498D15"/>
<path transform="translate(558,561)" d="m0 0h29l16 3v1h-13l-13-2h-16l-10 1-6 2-26 4-12 4-20 11-10 8-12 6v-3l6-5h3l1-3 6-4 5-4 16-8 13-5 16-4z" fill="#4E9719"/>
<path transform="translate(1370,1519)" d="m0 0 2 1-7 7-7 10-8 19-2 11h-3v2l-6 1-7-2-2-1v-2h-2v-2h-2l-6-12v-2h-2l-1-4-3-1-3-3v-2h-2l-7-11h-4v-2h5l10 9 8 7 8 13 4 7 5 2h5l3-1 2-9 7-16 6-9z" fill="#4A8D15"/>
<path transform="translate(1377,1516)" d="m0 0 4 1-1 7-8 6-9 12-6 13-5 9-2 1-2-1 1-8 8-19 8-11 7-7z" fill="#A5D272"/>
<path transform="translate(862,1525)" d="m0 0 7 1 25 1 5 2h7l5 1h69l4-1h11v2l-18 2-40 1h-18l-27-2-1-1h-19l-12-1-2-4 4 1z" fill="#142410"/>
<path transform="translate(553,1478)" d="m0 0 4 2 4 5 11 22 5 14 2 31 5-5-1 6-4 9h-2l-3-9-2-30-5-14-6-12-2-5v-6l-4-5h-3z" fill="#4A8E16"/>
<path transform="translate(1146,679)" d="m0 0 2 1-4 2v2l-5 5-7 8-11 18-4 4-6-4 2-1 3-9 7-11 5-7 8-6z" fill="#498B15"/>
<path transform="translate(1448,1238)" d="m0 0h3v7l-6 21h-3l-8-8-6-7 1-4 15-7z" fill="#E0FE66"/>
<path transform="translate(1211,584)" d="m0 0 10 1 10 4 9 8 3 8v6l-4 8-5 5-6 5-9 2h-12l-11-6-7-7-2-6v-9l4-8 8-7zm1 2-10 2-8 7-4 8v7l3 7 4 5h2l1 3 8 4h9l10-3 6-4 7-9v-12l-2-4-10-8-10-3z" fill="#4E9719"/>
<path transform="translate(1121,1019)" d="m0 0h6l1 2 9 2h17l15 2 5 2 4 3-11-1h-26l-40-3 2-2 4-1 1-1 9-1z" fill="#4E9719"/>
<path transform="translate(973,338)" d="m0 0 29 1 21 2 29 5 7 2-2 4-3 2v-4l-20-4-26-3-14-1h-35l-25 3-12 1 1-3 20-3z" fill="#498C15"/>
<path transform="translate(1435,1146)" d="m0 0 3 1 6 16 1 6-1 1-21-1-1-4 9-13z" fill="#AECE58"/>
<path transform="translate(1377,942)" d="m0 0 5 1 3 4-2 4-1-5-4 8-4 2-2 4-3 1-1 3-8 6-2-1-5 4-11 11-8 6-3 3h-2v2l-5 3h-2v2l-17 10-2-1 17-11 12-9 14-12 13-13 9-11 1-2h2l2-4z" fill="#ADCE5A"/>
<path transform="translate(1494,1100)" d="m0 0h10l8 3 8 6 1 2-5-2v-2l-6-2h-20l-11 3-10 6-8 11-2 6v4l2 2 1 7 3 4-1 2h-2l-5-13-2-7 1-8 7-8 7-6 12-6z" fill="#4E9718"/>
<path transform="translate(520,1587)" d="m0 0h6l1 4-8 4-3-1 7-3v-1l-11 1-1 3-6 2h-13v-1h-10l-28-3h-23l4 5 2 1h54l13-1 8-1-3 2-15 2h-58l-7-6-1-3 1-1h27l21 2h14l25-4z" fill="#AECE58"/>
<path transform="translate(673,1435)" d="m0 0 3 1-1 3h-2l-2 4h-2l-2 4h-2l-2 4-8 8h-2l-2 4h-2v2h-2v2h-2l-2 4h-2l-2 4-4 5-3 3h-5l5-8 4-4h3l1-5h2l2-5 3-4h2v-2h2v-2h2v-2h2v-2h2v-2h3l1-3h2l2-4 6-4z" fill="#E0FE66"/>
<path transform="translate(849,628)" d="m0 0h6l2 2 2 7 3 11v24l-2 9-2-2-4-29-3-11z" fill="#162811"/>
<path transform="translate(489,1462)" d="m0 0h1v24l4 18 2 1 2 9v8l-5 1-5-3v-2l-3-1-7-8-2-4h-2v-2l-4-2-4-3v-2l-12-6 3-1 9 4 11 8 14 14 2 1v-7l-5-21v-20z" fill="#498C15"/>
<path transform="translate(1441,1533)" d="m0 0h4v5l-8 8h-2v2l-5 5-4 5-7 10h-4l1-8 6-10 11-12z" fill="#AECE58"/>
<path transform="translate(1428,1332)" d="m0 0 2 1-4 5-1 3-6 5h-2v2l-4 1v2l-15 11-10 7-11 6-5 3-1 7 13-1 6-1 1-2 13-6 3 1-8 5-10 4-15 3-4-1 1 2h12v1l-6 1h-8l-1-2v-7l2-6 16-10 16-11 16-13z" fill="#AACF61"/>
<path transform="translate(687,1425)" d="m0 0h1v6l-43 43-1 2h-2l-2 4-5 6-4 3-2-1 6-7 2-5 4-5 4-4h2v-2h2v-2l8-7 7-7 5-6 4-4 5-3 7-6z" fill="#AACF62"/>
<path transform="translate(772,956)" d="m0 0h10l43 12 30 5 29 5 3 2-1 1h-30l-15-1v-1h27v-1l-13-2-36-7-40-10-7-2z" fill="#4F9916"/>
<path transform="translate(888,1645)" d="m0 0 18 1 8 2 35 3 55 2v1l-7 1h-55l-32-4-22-5z" fill="#519D16"/>
<path transform="translate(674,912)" d="m0 0 5 2 10 5 19 10 16 7 16 6 19 7 19 6v1h-9l-24-8-26-11-26-12-14-7-3-3-2-1z" fill="#4F9916"/>
<path transform="translate(1516,1542)" d="m0 0 3 4 4 13 3 19 3 1 5-2 4-3h2v-2l9-7 22-22v3l-25 25-4 5-12 9-6 1-2-4-3-27-3-9z" fill="#52A117"/>
<path transform="translate(812,1029)" d="m0 0 1 3-17 50-10 31-1 3v7l7 3 36 10 27 6 10 2v1l-11-1-27-6-31-8-14-5v-7l21-64z" fill="#ADCE58"/>
<path transform="translate(808,1308)" d="m0 0 12 1 23 4 37 5 36 3v1h-19l-39-3-26-4h-16l-3-1-1-4z" fill="#305B18"/>
<path transform="translate(731,538)" d="m0 0 8 1 19 3 24 7 16 7 15 8 13 10 3 2v2l4 2v2l4 2 10 13 6 10 4 10-1 4-5-12-7-12-8-10-11-11-14-10-14-8-20-8-19-5-16-3-9-1v-2z" fill="#498C15"/>
<path transform="translate(522,821)" d="m0 0h9v9l-5 19-4 10-2 2-5-1-9-7-9-10-10-14-2-4v-3h27zm0 2-10 1h-23l-1 3 4 7 12 14 8 8 5 3 4-2 4-11 4-16v-7z" fill="#B1D159"/>
<path transform="translate(1171,671)" d="m0 0h6l-2 6-8 7-10 10-10 13-3-1 2-3 1-6 6-8 5-3 2-5h2l2-4 5-5z" fill="#192F11"/>
<path transform="translate(794,1517)" d="m0 0 9 2 26 6 25 5 23 3 37 2 6 1 35 1v1h-45l-29-2-35-5-33-7-16-4z" fill="#509B16"/>
<path transform="translate(624,1489)" d="m0 0 2 1-10 15-9 15-6 12-5 7-3-1 4-13 1-2h2l1-4 1-3h2v-3h2l2-4 4-5 2-5 7-8z" fill="#E0FE66"/>
<path transform="translate(677,1323)" d="m0 0h6l5 3 1 3-5 6-8 7-6 8-5 12-3 7h-2l-3-7v-15h2l1 11 3-3 4-8 9-10 7-6 1-3-1-1-8-1v-2z" fill="#A7D16D"/>
<path transform="translate(1199,320)" d="m0 0 9 1 20 8 18 10 14 10 6 5-1 2-4-1v-2l-4-1-2-1v-2h-2v-2l-4-1-8-5-3-1-1-2-7-3-8-5-2 1v-2h-4v-2l-4 1v-2l-10-3v-2z" fill="#192D11"/>
<path transform="translate(1564,1454)" d="m0 0 3 1-5 7h-2l-2 4-8 10-16 16-8 7-11 9h-2v2l-13 10-6 3-2-1 10-7h2l1-3h2l1-3 6-5 9-6 7-7h2v-2l4-4h2v-2h2v-2l5-5 7-8h2l2-4 4-6 4-2z" fill="#4E9719"/>
<path transform="translate(691,1374)" d="m0 0h1l-1 10-3 6h-2l-2 4-8 6h-2v2l-5 3-5 4h-2v2l-4 1v2l-9 5-5-3-4-5-9-16v-3l9 1-1 2h-2v8l4 2 5 8v2l9-3 10-8h3v-2l11-7 4-4h2l2-5z" fill="#4E9719"/>
<path transform="translate(477,840)" d="m0 0h2l7 8 1 3h2v4l4 1 3 5 2 1v2l4 2 7 4 5 2h15l-1 3-5 2-11-1-8-4-13-11-11-14-3-5z" fill="#1C3012"/>
<path transform="translate(802,333)" d="m0 0h26l12 2 1 3 7 1 7 3-3 1-15-5-17-2h-10l-16 2-16 6-3 2-3-1 10-6h2v-2l10-3z" fill="#519E17"/>
<path transform="translate(1582,1456)" d="m0 0 7 3 5 5 7 8-3 1-4-5-5-3 8 24 1 6v13l-2 3-1-19-3-11v-3h-2v-3h-2l-7-14z" fill="#4A8F15"/>
<path transform="translate(799,1320)" d="m0 0h7l16 3 18 1 15 2 29 2 20 2v1h-14l-44-3-21-2-26-4z" fill="#213B19"/>
<path transform="translate(628,1386)" d="m0 0h13l22 2 5 2v3l-7 1-31-3z" fill="#AECE58"/>
<path transform="translate(1146,362)" d="m0 0h20l26 4 15 5 2 2-10-2-16-4-19-2h-24l-29 4-9 1 3-2 18-4z" fill="#AECE58"/>
<path transform="translate(807,473)" d="m0 0h6l3 4-2 7-7 3h-6l-3-2 1-5 4-5z" fill="#AECE58"/>
<path transform="translate(1464,1152)" d="m0 0 3 3 8 16 7 20 2 8v4l-3-1-6-20-3-8-4-2-4-14z" fill="#A7D16C"/>
<path transform="translate(712,522)" d="m0 0 4 1-11 6h-2l3 4 7 1 4 1 9 2v1h-8l-10-1-17-1-3-3h2v-2l10-5z" fill="#4E9719"/>
<path transform="translate(496,1449)" d="m0 0 1 2-1 4h3l2 1-1 5-4 13-4 2-1-3v18h-1l-1-5v-16l2-12z" fill="#AECE58"/>
<path transform="translate(1636,1332)" d="m0 0h1l1 28-1 5-6-1-7-3 7 13-1 3v-2l-3-1-6-10-4-5v-4l7 1 9 3h3z" fill="#4C9115"/>
<path transform="translate(1448,1238)" d="m0 0h3v7l-6 21h-3l-8-8-6-7 1-4 15-7zm-2 3-13 8v4l7 8h3v-2l2-1 2-10 2-3-1-4z" fill="#AECE58"/>
<path transform="translate(733,649)" d="m0 0 2 1-9 10-9 15v2l10-1 8 10 6 4h9l7-3 5-6 1 2-6 7-6 3h-9l-8-4-7-9-6-1-2 2h-5l-1-4 4-8 3-5h2l2-5z" fill="#4A8E16"/>
<path transform="translate(645,916)" d="m0 0 7 1 16 7 5 3 12 6 5 2v2l5 2v2l-5-1-16-8-23-11-6-4z" fill="#1A2E12"/>
<path transform="translate(726,1104)" d="m0 0m-1 1 1 2-4 4-16 10-13 10-16 13-5 5-2-1 12-13 17-13 16-11z" fill="#A9D065"/>
<path transform="translate(818,907)" d="m0 0h6l-3 5-15 7-16 5-21 3h-22l-10-3v-1l16 1h19l16-2 21-7 10-5-6-1v-1z" fill="#4F9916"/>
<path transform="translate(1414,645)" d="m0 0 3 4 2 8 2 6 3 18 2 15v35l-2 16-2 1v-7l2-13v-24l-3-26-5-21-2-5z" fill="#4E9719"/>
<path transform="translate(1299,1527)" d="m0 0 4 1 1 2-4 10-5 22-1 3h-2v-13l4-20z" fill="#AECE58"/>
<path transform="translate(1466,1570)" d="m0 0h1l-1 11-4 17-6 15-2 6 1 2 5-1 10-4 2 1-8 4-13 4-3-4 2-7 6-11 1-2h2l4-16z" fill="#52A016"/>
<path transform="translate(1363,1529)" d="m0 0v3l-5 10-3 9h2l1-5 7-11 5-6 2 1-9 12-6 13-5 9-2 1-2-1 1-8 8-19z" fill="#AECE58"/>
<path transform="translate(700,902)" d="m0 0 8 1 27 6 12 2 14 1h12l25-2 14-1-4 2-13 2-15 1h-30l-27-5-23-6z" fill="#4E9615"/>
<path transform="translate(1150,1300)" d="m0 0h7l-2 2-10 4-27 6h-5l4-2 8-2-15 1 4-2 22-5z" fill="#AECE58"/>
<path transform="translate(769,848)" d="m0 0h10l1 4-5 13-7 12-7 8h-5l-3-3 1-2 3 3 4-1 7-9 7-14 3-9-22 2h-16l2 9-3-3-1-7 1-1z" fill="#AFCF58"/>
<path transform="translate(1330,858)" d="m0 0h1v9l-3 5-4 5h-2l-2 4-7 8h-2l-2 4-16 16-3-1 8-7 7-8 4-6h2l2-4 10-11 6-10z" fill="#57AA15"/>
<path transform="translate(1624,1274)" d="m0 0 3 3 6 26 3 20v36h-1l-2-36-3-19-6-27z" fill="#4E9816"/>
<path transform="translate(1054,809)" d="m0 0h1v12l-5 20-1 2h-2l-2 6-2-2 3-5-1-5 1-6 3-7 2-6 1-7h2z" fill="#192E11"/>
<path transform="translate(623,1497)" d="m0 0 1 3-11 18-10 17h-3v-3l11-21 5-5z" fill="#A9D065"/>
<path transform="translate(1129,317)" d="m0 0h8l-3 3-5 2-2-1-1 2-6 2h-6l-1 2-12 2-5 1 1-3 24-8z" fill="#192D11"/>
<path transform="translate(1121,1307)" d="m0 0h6l-2 2-29 7-13 2v-2l-5-1v-1z" fill="#2E5518"/>
<path transform="translate(900,760)" d="m0 0 5 2 6 7 4 4 4 2 3 5h2l2 6-1 3h2v6l-3-1-8-14-11-14z" fill="#162911"/>
<path transform="translate(1467,1549)" d="m0 0h1v13l-4 23-5 16h-2l-2 6-1-2 7-23 3-15 2-17z" fill="#4A8F16"/>
<path transform="translate(1413,1371)" d="m0 0m-1 1m-2 1 4 2-11 7-13 6-3 1-16 1-2-2 1-3 1 2 10-1 14-4 9-5z" fill="#A6D26E"/>
<path transform="translate(445,1510)" d="m0 0 2 2v3h2l3 6 5 12 6 8 9 13 2 4 4 2 1 3-3-1-7-8-9-12-6-9-6-11-5-10h2z" fill="#4E9719"/>
<path transform="translate(1104,979)" d="m0 0 4 1 8-1v2l2 1-7 2-14 3h-16l1-2 20-5z" fill="#142510"/>
<path transform="translate(696,478)" d="m0 0 1 3-3 3-5 4-9 11-7 8-4 6v3l8-1-4 3-8 3h-3l2-6 7-9 9-11 12-13z" fill="#498B15"/>
<path transform="translate(687,1425)" d="m0 0h1v6l-33 33-3-1 19-19 2-5 5-3 7-6z" fill="#A7D16A"/>
<path transform="translate(884,736)" d="m0 0h9l9 4 11 8 2 4-6-4-6-3-1-3-9-3h-6l-8 8h-3l1-5 5-5z" fill="#172A12"/>
<path transform="translate(781,338)" d="m0 0 3 1-11 6-11 8-10 9-10 14-6 11h-2l-1 3-1-2 3-6 10-15 6-8 11-9 13-9z" fill="#4E9719"/>
<path transform="translate(553,1480)" d="m0 0 4 2 3 4-1 5-7 6-3 1-1-1 1-8z" fill="#A6D26F"/>
<path transform="translate(520,1587)" d="m0 0h6l1 4-8 4-3-1 7-3v-1l-11 1-1 3-6 2h-13l1-3 5-2z" fill="#ADCE5B"/>
<path transform="translate(987,533)" d="m0 0h5l7 4 12 7 4 4v2l-6-2-24-12v-2z" fill="#172912"/>
<path transform="translate(1426,831)" d="m0 0h1v9l-2 11-3 4-5-2-1-4 2-13h2v10l2-1 3-13z" fill="#A8D16A"/>
<path transform="translate(841,407)" d="m0 0 3 2 5 16v23l-5 16-7 14-2-2 7-14 4-13 1-7v-13l-3-12-3-7z" fill="#498D15"/>
<path transform="translate(763,486)" d="m0 0h2v3l-7 3h-3v2l-31 7h-5l3-2h2v-2l10-2 10-3 18-3z" fill="#4B8F16"/>
<path transform="translate(1371,1375)" d="m0 0 2 2-1 1-1 7 13-1 6-1 1-2 13-6 3 1-8 5-10 4-15 3-4-1 1 2h12v1l-6 1h-8l-1-2v-7l2-6z" fill="#ADCE58"/>
<path transform="translate(1366,956)" d="m0 0m-1 1v3l-2-1zm-3 3m-1 1m-1 1m-1 2v3l-17 17-8 6-3 3h-2v2l-5 3h-2v2l-17 10-2-1 17-11 12-9 14-12z" fill="#AECE58"/>
<path transform="translate(649,890)" d="m0 0h8l14 3v1l-13-1 3 3 16 7 1 2-12-3-8-4-10-6z" fill="#4E9816"/>
<path transform="translate(1100,979)" d="m0 0 4 1-13 4-9 2 14 1v1l-9 1h-18v-2h2v-2z" fill="#254318"/>
<path transform="translate(623,1207)" d="m0 0h1l1 11 2-2 2-4h1v12l-1 5h-2l-1 7-2-2-1-3z" fill="#A6D270"/>
<path transform="translate(1459,1313)" d="m0 0v3l-6 11h-2l-2 5-7 11-6 8-5 5-3 2 2-4 1-3h2l2-5 3-1 2-5 4-5 2-5 5-5 2-5h2l2-5z" fill="#AECE58"/>
<path transform="translate(764,1084)" d="m0 0 3 1-6 2v2l-16 8-10 6-6 1 4-4 23-13z" fill="#A8D067"/>
<path transform="translate(1516,1542)" d="m0 0 3 4 4 13 3 19 3 1 4 1-6 3-2-1-2-11-2-1-1-3-1-12-3-9z" fill="#4F9817"/>
<path transform="translate(872,1147)" d="m0 0 12 1 42 5v1h-25l-8-2-11-1v-2l-10-1z" fill="#315C17"/>
<path transform="translate(1084,716)" d="m0 0 5 1v3l3-1 1 3 3-1 2 3 2-1 4 2v2l4 2 2 3-7-1v-2l-5-2-8-4-7-3-3-3z" fill="#1C2F13"/>
<path transform="translate(1070,1149)" d="m0 0h11l-3 2-29 5h-5l4-2-7-1v-1z" fill="#2E5517"/>
<path transform="translate(1289,909)" d="m0 0 4 1-12 7-23 11-15 7-2-1 5-3 31-15z" fill="#4E9816"/>
<path transform="translate(1284,1018)" d="m0 0 3 1h-2v2l5-1-2 2-18 6-14 2v-2l24-8z" fill="#AECE58"/>
<path transform="translate(1243,1600)" d="m0 0h18l12 2 3 1 15 1v1l-13 1-8-2h-21l1-2-7-1z" fill="#4E9719"/>
<path transform="translate(1258,1026)" d="m0 0h5l-3 2-18 4-17 3h-19v-1l10-1 1-1 21-2z" fill="#4B9016"/>
<path transform="translate(837,1520)" d="m0 0h4v2l6 1 9 3 2 2-17-1-13-4-1-2z" fill="#142410"/>
<path transform="translate(1616,1467)" d="m0 0 1 4-2 8-5 9-5-4-6-11h3l4 5v2l5-1z" fill="#4D9416"/>
<path transform="translate(1507,1529)" d="m0 0 4 2 2 5h-3v43h-2v-32l-2-16z" fill="#54A516"/>
<path transform="translate(751,511)" d="m0 0m-6 1h6v3l-20 4-11 3-4-1 7-2h4l1-3z" fill="#4B9016"/>
<path transform="translate(1062,367)" d="m0 0 2 1-9 8-8 6-5 5-5 2h-6l-1-6 2-1 1 5 5-1 13-12 4-1z" fill="#4A8D15"/>
<path transform="translate(1233,1598)" d="m0 0h29l7 1 1 2-41-1v7l-2-2v-5z" fill="#498B15"/>
<path transform="translate(729,394)" d="m0 0 1 4-5 12-6 17-6 19h-1l1-8 5-16 7-20z" fill="#4E9719"/>
<path transform="translate(1377,1516)" d="m0 0 4 1-1 7h-2l2-5h-2l-2 4-10 8-2-4 8-8z" fill="#AECE58"/>
<path transform="translate(1354,529)" d="m0 0h2l9 14 2 3v3l3 1 6 11 5 9-1 2-6-8-5-10-6-9-6-10v-2h-2z" fill="#4E9719"/>
<path transform="translate(678,1328)" d="m0 0 2 1-2 5-8 7-2 4-4 1 2-7 6-8 2-2z" fill="#E0FE66"/>
<path transform="translate(652,787)" d="m0 0 4 1 16 8 21 8 9 3-4 1-18-6-12-5-8-4-8-5z" fill="#4E9719"/>
<path transform="translate(733,649)" d="m0 0 2 1-9 10-9 15v2l8-1-5 4-1 1h-5l-1-4 4-8 3-5h2l2-5z" fill="#498D15"/>
<path transform="translate(1581,843)" d="m0 0 5 1 6 7 1 2v12l-2-1-4-10-4-8-2-1z" fill="#1A2C12"/>
<path transform="translate(1086,1146)" d="m0 0h15l-1 2-20 4h-7v-1l5-1-6-1v-1z" fill="#AECE58"/>
<path transform="translate(841,336)" d="m0 0 16 4 14 7 6 4-2 2-24-12-10-3z" fill="#4E9719"/>
<path transform="translate(750,1560)" d="m0 0h2l2 5h2l8 10 14 14 11 9-1 2-14-12-17-17-7-9z" fill="#4C9315"/>
<path transform="translate(1125,738)" d="m0 0 1 2-3 7-13 15h-3l1-3 6-7 1-2h2l2-4z" fill="#203B13"/>
<path transform="translate(731,538)" d="m0 0 8 1 19 3 24 7v1l-8-1-25-6-16-2v-2z" fill="#4A8E16"/>
<path transform="translate(1338,1183)" d="m0 0m-1 1m-1 1m-2 1h2l-2 4-20 12-3-1h2v-3l8-5 5-1v-2l7-3z" fill="#172A11"/>
<path transform="translate(1354,848)" d="m0 0h5l-4 3 2 2 2 11-1 4-4-2-2-8 1-9z" fill="#BBDC5F"/>
<path transform="translate(1521,1570)" d="m0 0 3 1 1 11 5-1 7-5h2l-2 4-9 6-5-1-2-9z" fill="#4A8E16"/>
<path transform="translate(657,1362)" d="m0 0 2 3 3 5 3 3 3 7 2 10-7-1 3-2-4-10-5-11z" fill="#4B9016"/>
<path transform="translate(777,848)" d="m0 0 3 1-2 9-8 16-7 9-2 2h-5l-3-3 1-2 3 3 4-1 7-9 7-14 3-9h-5z" fill="#B6D55A"/>
<path transform="translate(726,1104)" d="m0 0m-1 1 1 2-4 4-16 10-6 3-2-1 11-8 11-7z" fill="#A8D068"/>
<path transform="translate(711,444)" d="m0 0h1l-1 11-5 16-8 9-1-3 7-9 3-10 3-13z" fill="#4A8E16"/>
<path transform="translate(425,1465)" d="m0 0 10 1-4 2-8 3-4 1-1 7-1 2h-2l1-9 7-6z" fill="#172A11"/>
<path transform="translate(466,1496)" d="m0 0 4 2 3 2v2l4 2 5 6 5 5 7 6h2l1-7h1v8l-5 1-5-3v-2l-3-1-7-8-2-4h-2v-2l-4-2-4-3z" fill="#4E9719"/>
<path transform="translate(510,1463)" d="m0 0 5 4v2h2l9 13 6 12h-2l-8-13-2-2v-3l-3-1-7-9z" fill="#4E9719"/>
<path transform="translate(1435,1144)" d="m0 0 4 2 6 15 1 10h-12l-13-1-1-4 2-1 1 3 21 1-2-9-5-13h-3z" fill="#4B9016"/>
<path transform="translate(1480,1613)" d="m0 0 2 1-12 6-16 7h-7l-1-3 3-3 3 3 17-6 5-3z" fill="#498B15"/>
<path transform="translate(650,900)" d="m0 0 8 2 16 9v3l5 2-2 1-16-9-11-7z" fill="#4E9615"/>
<path transform="translate(436,1486)" d="m0 0 9 1 3 1v3l-8 2-1 4-3-2z" fill="#ADCE5A"/>
<path transform="translate(797,578)" d="m0 0 11 6 10 7 10 9 6 6-1 2-12-12-16-11-8-4z" fill="#498D15"/>
<path transform="translate(1405,1185)" d="m0 0h23l8 2 3 2h-12l-22-3z" fill="#1B3012"/>
<path transform="translate(807,334)" d="m0 0h13v1l-21 2-17 5-7 4-3-1 10-6 16-4z" fill="#58AC15"/>
<path transform="translate(447,1492)" d="m0 0 2 1-5 5v13l-4-1-3-9 1-3 1 2 4-6z" fill="#4D9518"/>
<path transform="translate(496,1449)" d="m0 0 1 2-3 9-2 11h-2l1 10v10h-1l-1-5v-16l2-12z" fill="#ABCF5F"/>
<path transform="translate(676,1326)" d="m0 0h7l2 3-15 15-2-1 7-8 3-1v-4l-4-2z" fill="#AECE58"/>
<path transform="translate(1363,874)" d="m0 0h3l8 16 6 11-1 2-4-5-12-22z" fill="#A8D169"/>
<path transform="translate(1439,779)" d="m0 0 4 2 4 7 5 9 5 11v5l-3-4-4-10-2-3v-2l-2-1-3-9h-2z" fill="#4E9718"/>
<path transform="translate(1501,1599)" d="m0 0 1 4-14 8-10 4-6 1 1-2 11-5 7-3 9-6z" fill="#4E9715"/>
<path transform="translate(1464,1152)" d="m0 0 3 3 8 16-1 3-3-6v-2h-2v6l-2-4-3-10z" fill="#AECE58"/>
<path transform="translate(485,822)" d="m0 0h13l14 1v2h-23l2 8-4-4-2-4z" fill="#B6D65A"/>
<path transform="translate(610,1364)" d="m0 0h9l2 2-10 2-4 2 1 5-1 4h-2l-1-2v-6l4-6z" fill="#1E3514"/>
<path transform="translate(737,923)" d="m0 0 34 2-2 2h-22l-10-3z" fill="#4F9915"/>
<path transform="translate(873,368)" d="m0 0h4v2l4 1 8 6-4-7 1-2 6 8 2 5-2 1-16-11z" fill="#ADCE58"/>
<path transform="translate(633,1388)" d="m0 0h16l14 1 2 1v2h-12l-20-3z" fill="#A5D374"/>
<path transform="translate(1428,1332)" d="m0 0 2 1-4 5-1 3-6 5h-2v2l-4 1v2l-3 1-2-2 10-8z" fill="#ACCF5D"/>
<path transform="translate(847,319)" d="m0 0 9 1 17 7 1 2-8-1-11-5h-3v-2l-5-1z" fill="#182D11"/>
<path transform="translate(671,903)" d="m0 0 9 1 15 6 1 2 5 2-3 1-25-10z" fill="#53A115"/>
<path transform="translate(1248,386)" d="m0 0 5 4 7 10h-3l-15-10-1-2 9 3-1-1z" fill="#AECE58"/>
<path transform="translate(413,1603)" d="m0 0 4 2 9 11 8 7-3 1-10-10-7-6z" fill="#1D3412"/>
<path transform="translate(1124,1638)" d="m0 0 4 1-12 4-9 2h-13v-1l26-5z" fill="#4B9117"/>
<path transform="translate(1589,1475)" d="m0 0 1 3h2l4 14v22h-3l1-6v-9l-2-14-3-6z" fill="#54A416"/>
<path transform="translate(647,1468)" d="m0 0 1 3-4 5h-2l-2 4-5 6-4 3-2-1 7-9h2l2-4z" fill="#A7D16C"/>
<path transform="translate(1355,849)" d="m0 0h5l3 20-1 2-3-8-3-10-2-1z" fill="#A9D065"/>
<path transform="translate(1052,571)" d="m0 0 5 5 4 5v2h2l1 4-7-4-6-7z" fill="#203A18"/>
<path transform="translate(1178,665)" d="m0 0h10l-1 4-3 1-1-1h-9l-10 3-3-1 13-5z" fill="#4A8F16"/>
<path transform="translate(764,1508)" d="m0 0h6l24 8v2l2 1-9-2-23-8z" fill="#509B16"/>
<path transform="translate(633,1486)" d="m0 0v3l-8 10h-3l-7 10-1-2 6-10z" fill="#A9D065"/>
<path transform="translate(1413,1371)" d="m0 0m-1 1m-2 1 4 2-11 7-6 3h-2l2-4 10-6z" fill="#A8D169"/>
<path transform="translate(806,388)" d="m0 0h13l12 6 8 7 2 3-1 3-6-8-9-6-5-2-14-2z" fill="#4A8E16"/>
<path transform="translate(1070,1315)" d="m0 0h13v3l-9 2-8-1z" fill="#1E3813"/>
<path transform="translate(1286,995)" d="m0 0 2 1-5 5-4 1v2l-7 3-3-1 4-4z" fill="#182D11"/>
<path transform="translate(717,1487)" d="m0 0 6 1-4 2 1 7 6 18 1 6-2-2-9-26v-5z" fill="#4E9616"/>
<path transform="translate(1299,1527)" d="m0 0 4 1 1 2-4 10h-2l-1 2-1-4 2-10z" fill="#A8D169"/>
<path transform="translate(709,1422)" d="m0 0h1l1 28 2 9 5 5 1 2-5-2-3-3-2-10-1-20z" fill="#509B16"/>
<path transform="translate(841,1314)" d="m0 0h10l21 3v1h-21l-10-2z" fill="#396B17"/>
<path transform="translate(1068,986)" d="m0 0 3 1h-2v2h24v1l-31 1-2-2z" fill="#4F9815"/>
<path transform="translate(583,1550)" d="m0 0m-1 3 1 4-3 8v12l4-3-1 6-4 1-1-1v-16z" fill="#AECE58"/>
<path transform="translate(1624,1274)" d="m0 0 3 3 3 12 1 15-2-3-5-24z" fill="#4F9A16"/>
<path transform="translate(1581,1181)" d="m0 0 4 4 9 16 3 7-1 4-3-7-6-12-6-10z" fill="#4E9719"/>
<path transform="translate(1367,1402)" d="m0 0h1v10l-1 6 1 8 5 5-1 3-1-3-3-1-2-3v-3l-2-1v-7l2-5z" fill="#4E9719"/>
<path transform="translate(1121,1307)" d="m0 0h6l-2 2-16 4h-5l-1-3z" fill="#4F9915"/>
<path transform="translate(1470,1031)" d="m0 0 1 3-8 15h-1l1-8 4-8z" fill="#152711"/>
<path transform="translate(1076,783)" d="m0 0m-2 1h2l-1 4-8 4h-5l1-3 7-4z" fill="#192F11"/>
<path transform="translate(888,1645)" d="m0 0 18 1 2 2 16 3v1l-14-1-22-5z" fill="#498C15"/>
<path transform="translate(631,1467)" d="m0 0v3l-14 17-7 10v-3l7-10 7-9z" fill="#498B15"/>
<path transform="translate(635,890)" d="m0 0 6 2 8 4 6 4-3 1-8-3-5-3v-2l-4-1z" fill="#509C16"/>
<path transform="translate(558,1485)" d="m0 0 2 1-1 5-7 6-3 1-1-1 1-8 2-2 1 5 4-1z" fill="#AECE58"/>
<path transform="translate(1426,1358)" d="m0 0 2 1-7 6-5 5-8 5-1-2 5-4h2l2-4h2v-2l5-2z" fill="#AECE58"/>
<path transform="translate(1275,393)" d="m0 0h2l6 9 7 11 3 5-1 2-7-9-3-6-7-10z" fill="#4E9719"/>
<path transform="translate(1389,1364)" d="m0 0 3 1-4 4-11 6-5 1 4-4z" fill="#ABCF5E"/>
<path transform="translate(674,912)" d="m0 0 5 2 10 5 5 4-7-1-8-4-3-3-2-1z" fill="#509C16"/>
<path transform="translate(522,821)" d="m0 0h9v9h-2v-7l-7 1h-10l1-2z" fill="#AECE58"/>
<path transform="translate(840,1629)" d="m0 0 8 1 16 6v1h-7l-15-6z" fill="#4D9416"/>
<path transform="translate(1412,1570)" d="m0 0 2 4-5 4-9 1-6-3-2-4 5 3h12z" fill="#4E9719"/>
<path transform="translate(1521,1555)" d="m0 0 2 4 3 19 3 1 4 1-6 3-2-1-3-17z" fill="#58AC15"/>
<path transform="translate(1473,1534)" d="m0 0h2v3l-4 4-1 2-1 20-1 7h-1l1-28 3-6z" fill="#519F17"/>
<path transform="translate(1370,1334)" d="m0 0h1v12l1 2 7-4 2 1-10 7-3-1 1-11z" fill="#AECE58"/>
<path transform="translate(821,1618)" d="m0 0 14 7 7 3v1l-7-1-14-7z" fill="#4F9915"/>
<path transform="translate(588,873)" d="m0 0 8 1 17 6v1l-9-1-16-6z" fill="#4F9916"/>
<path transform="translate(737,561)" d="m0 0h7l11 3v2l-24-3v-1z" fill="#4A8F16"/>
<path transform="translate(1629,1375)" d="m0 0 1 2h2l3 9-1 19h-1l-1-19-3-8z" fill="#519E15"/>
<path transform="translate(1317,883)" d="m0 0 1 2-5 7-7 6-5 5-4 2 6-7 7-7z" fill="#4E9719"/>
<path transform="translate(1102,764)" d="m0 0h3l-1 4-9 7-4-1 4-2 1-3 5-3z" fill="#1E3813"/>
<path transform="translate(1174,668)" d="m0 0h9l1 3-8 4v-3l-5-1z" fill="#274718"/>
<path transform="translate(1453,1614)" d="m0 0 1 4 1 3 5-1 10-4 2 1-8 4-9 3-4-1 1-6z" fill="#55A616"/>
<path transform="translate(755,564)" d="m0 0 8 1 11 3 1 2-9-1-11-3z" fill="#498D15"/>
<path transform="translate(1336,1274)" d="m0 0h3l6 13v2l-4-1-5-12z" fill="#1B3211"/>
<path transform="translate(629,1240)" d="m0 0h1l2 12 4 5v2h2l-1 4-9-14-1-4z" fill="#4E9719"/>
<path transform="translate(862,976)" d="m0 0h9l11 2 1 2h-15v-2l-6-1z" fill="#4B9015"/>
<path transform="translate(1086,426)" d="m0 0 2 1-2 1zm-3 2h3v2l-13 9-5 4 2-4 4-4h2l1-3z" fill="#4A8F16"/>
<path transform="translate(1623,1452)" d="m0 0 1 4-7 18-1-3 2-8 3-7z" fill="#4C9215"/>
<path transform="translate(1433,1155)" d="m0 0h4l-1 7-5 2-1-6z" fill="#E0FE66"/>
<path transform="translate(1261,940)" d="m0 0 3 1v3l-12 5-4-1 8-5 2-1 2 1z" fill="#1B2F13"/>
<path transform="translate(569,764)" d="m0 0h8l-4 2-14 4-5 2-3-1 4-1v-2z" fill="#4E9719"/>
<path transform="translate(1322,476)" d="m0 0 3 3 8 16 2 6-4-4-8-16z" fill="#4E9719"/>
<path transform="translate(1545,1593)" d="m0 0 3 1-11 9-6 3 2-4 3-3 7-4z" fill="#1B3111"/>
<path transform="translate(520,1587)" d="m0 0h6l1 4-8 4-3-1 7-3v-1h-11l4-2z" fill="#AECE58"/>
<path transform="translate(916,346)" d="m0 0h5l-3 1v2l-8 1-1 5-3 1-1-6 2-2z" fill="#4E9719"/>
<path transform="translate(719,498)" d="m0 0h5l-2 2-10 2-7 3-4-1 5-3 12-2z" fill="#4E9719"/>
<path transform="translate(1292,1569)" d="m0 0h1l2 6v7l1 3 3 3-6-2-1-2z" fill="#4E9719"/>
<path transform="translate(479,1563)" d="m0 0 4 2 5 3 1 2 11 5v1h-5l-7-4-3-2v-2l-4-1z" fill="#4E9719"/>
<path transform="translate(441,1467)" d="m0 0h8l8 2v3l-9-1-7-2z" fill="#1C3113"/>
<path transform="translate(1393,1326)" d="m0 0 4 2 2 4-12 9-2-1 5-5 4-2v-5z" fill="#AECE58"/>
<path transform="translate(872,1147)" d="m0 0 12 1 16 2v1h-18v-2l-10-1z" fill="#407A17"/>
<path transform="translate(1100,979)" d="m0 0 4 1-13 4-9 1v-2z" fill="#325D17"/>
<path transform="translate(764,484)" d="m0 0h2l2 4-1 4-3 1h-9l3-2 7-2z" fill="#498B15"/>
<path transform="translate(1070,1149)" d="m0 0h11l-3 2-11 2-4-1-1-2z" fill="#509A15"/>
<path transform="translate(676,1140)" d="m0 0m-1 1m-1 1m-1 1v3l-10 12-2-3z" fill="#A7D16C"/>
<path transform="translate(818,907)" d="m0 0h6l-3 5-8 4-4-1 10-5-6-1v-1z" fill="#4C9115"/>
<path transform="translate(1054,331)" d="m0 0 14 3 1 2h-12z" fill="#1E3215"/>
<path transform="translate(1510,1579)" d="m0 0 1 2-4 17-3 4h-2l1-4 2-1 4-17z" fill="#498C15"/>
<path transform="translate(512,1582)" d="m0 0 6 1v2l4 1-2 2-9 1 3-3z" fill="#4A8F16"/>
<path transform="translate(548,1500)" d="m0 0 3 1-3 10-5 1-5-5 1-2 4 4 3 1z" fill="#4E9719"/>
<path transform="translate(1436,787)" d="m0 0h1v8l-5 12-1-3z" fill="#A7D16C"/>
<path transform="translate(808,562)" d="m0 0 5 2 13 10-3 1-9-7-6-4z" fill="#4A8E16"/>
<path transform="translate(1175,1665)" d="m0 0h7l6 3v2l-8-1-5-2z" fill="#1C3013"/>
<path transform="translate(826,1146)" d="m0 0h2l1 2 10 2-2 2h-10l-2-4z" fill="#142410"/>
<path transform="translate(844,973)" d="m0 0h11l10 2-3 2-7-1-11-2z" fill="#4D9415"/>
<path transform="translate(1063,583)" d="m0 0 6 5v3l-6-1v-2l-4-2-1-2 5 2z" fill="#498C15"/>
<path transform="translate(1049,346)" d="m0 0 10 2-2 4-3 2v-4l-10-2v-1z" fill="#4B9016"/>
<path transform="translate(1229,1600)" d="m0 0h8l1 3-4 2-5-1z" fill="#AECE58"/>
<path transform="translate(1583,1528)" d="m0 0 1 4-5 6-7 5 2-4 2-3h2l2-4z" fill="#4E9816"/>
<path transform="translate(712,1113)" d="m0 0 1 2-5 5-8 4-2-1 11-8z" fill="#A7D16A"/>
<path transform="translate(797,389)" d="m0 0h9v1l-8 2-10 5h-3l3-4z" fill="#4A8D15"/>
<path transform="translate(1507,1580)" d="m0 0h1v10l-3 8-3 1 2-6z" fill="#53A316"/>
<path transform="translate(1544,1569)" d="m0 0 3 1-5 6-6 2h-3l5-4h2v-2z" fill="#509C15"/>
<path transform="translate(1599,1473)" d="m0 0h3l4 5v2l6-1-2 4h-4l-4-4z" fill="#509B15"/>
<path transform="translate(657,1347)" d="m0 0h1l1 14 2 4 3-3-1 6-3 1-3-7z" fill="#AECE58"/>
<path transform="translate(1620,1255)" d="m0 0 2 3 4 15-1 3-5-14z" fill="#4A8F16"/>
<path transform="translate(633,1200)" d="m0 0h1l-1 8-2 8-2-4 1-8z" fill="#A9D067"/>
<path transform="translate(851,1144)" d="m0 0h8l13 2v1h-14l-7-1z" fill="#366617"/>
<path transform="translate(764,1084)" d="m0 0 3 1-6 2v2l-11 3 4-4z" fill="#A6D26F"/>
<path transform="translate(807,988)" d="m0 0 1 2-2 9-1 3h-2l-1 3 1-8z" fill="#1A2F11"/>
<path transform="translate(772,956)" d="m0 0h10l4 1 1 2 3 2-8-1-10-3z" fill="#4C9315"/>
<path transform="translate(786,958)" d="m0 0 10 2 7 2-2 2-11-2v-2l-4-1z" fill="#509A15"/>
<path transform="translate(528,830)" d="m0 0h2l-1 8-3 9-2 1z" fill="#B6D65C"/>
<path transform="translate(445,1607)" d="m0 0 4 1 6 3v3l5 2v2l-4-2-6-4z" fill="#4E9719"/>
<path transform="translate(623,1497)" d="m0 0 1 3-5 8h-3l2-5z" fill="#A7D16A"/>
<path transform="translate(495,1482)" d="m0 0h1l-1 21-3-3 1-6z" fill="#AECE58"/>
<path transform="translate(705,1312)" d="m0 0h1v7l-1 1-3 15h-1v-7z" fill="#4E9719"/>
<path transform="translate(905,356)" d="m0 0h3l5 8v7l-4 2 2-6-4-8z" fill="#4A8D15"/>
<path transform="translate(1113,1502)" d="m0 0h6l-4 3-8 3-3-1 2-1-1-2z" fill="#53A216"/>
<path transform="translate(443,1491)" d="m0 0h4v2l-5 3-2 5-2-1v-2h-2l1-3 2 1 1-3z" fill="#56A815"/>
<path transform="translate(1428,1332)" d="m0 0 2 1-4 5-1 3-5 2-4 2 6-7z" fill="#A9D066"/>
<path transform="translate(801,963)" d="m0 0 9 1 8 2v2l-7-1-9-2z" fill="#4D9415"/>
<path transform="translate(857,662)" d="m0 0h1l2 10h1v7l-2 2-2-10z" fill="#213B19"/>
<path transform="translate(1062,367)" d="m0 0 2 1-9 8-6 5-2-1 13-12z" fill="#4E9719"/>
<path transform="translate(550,874)" d="m0 0 11 3 3 2v2l-5-1-9-5z" fill="#1A3011"/>
<path transform="translate(1421,748)" d="m0 0h1v8l-5 10-1-3z" fill="#4E9719"/>
<path transform="translate(706,404)" d="m0 0 2 3-5 10h-2l3-11z" fill="#162911"/>
<path transform="translate(627,1666)" d="m0 0 3 2-6 2h-9l2-2z" fill="#192F12"/>
<path transform="translate(1430,811)" d="m0 0h1v8l-3 8h-1l1-11z" fill="#A6D270"/>
<path transform="translate(1144,707)" d="m0 0 3 1-6 8-3-1 1-4z" fill="#1E3813"/>
<path transform="translate(1146,679)" d="m0 0 2 1-5 3-3 1h-7l3-3z" fill="#4D9418"/>
<path transform="translate(835,479)" d="m0 0 1 4 14 1v1h-17l1-5z" fill="#4E9719"/>
<path transform="translate(706,467)" d="m0 0 1 2-4 6-6 5 1-4 7-8z" fill="#4B9016"/>
<path transform="translate(1484,1609)" d="m0 0 3 1-3 3-12 3 1-2z" fill="#52A016"/>
<path transform="translate(1595,1492)" d="m0 0h1v22h-3l1-6z" fill="#519D16"/>
<path transform="translate(1355,849)" d="m0 0h4l1 11-3-3-2-5z" fill="#A5D273"/>
<path transform="translate(1095,422)" d="m0 0h5v2l-10 4-4 1 5-5z" fill="#498C15"/>
<path transform="translate(1459,1593)" d="m0 0h1v6l-1 2h-2l-2 6-1-2 4-11z" fill="#4A8D15"/>
<path transform="translate(647,1468)" d="m0 0 1 3-4 5h-2l-1 3-2-3z" fill="#A8D169"/>
<path transform="translate(1289,909)" d="m0 0 4 1-10 6h-5l4-3z" fill="#4F9A15"/>
<path transform="translate(1563,1579)" d="m0 0 2 1-10 9h-2l1-3 7-6z" fill="#1A2F11"/>
<path transform="translate(671,1327)" d="m0 0 3 1-9 9-1-3 5-5z" fill="#AAD064"/>
<path transform="translate(644,1178)" d="m0 0 1 4-3 5-1 2-3-1 4-8z" fill="#A7D16C"/>
<path transform="translate(1291,1015)" d="m0 0 3 1v3l-9 2v-2h2v-2z" fill="#A8D169"/>
<path transform="translate(1372,890)" d="m0 0h2l6 11-1 2-4-5-3-5z" fill="#A7D16B"/>
<path transform="translate(1125,738)" d="m0 0 1 2-3 7-4-1z" fill="#1C3412"/>
<path transform="translate(623,1494)" d="m0 0v3l-8 12-1-2 6-10z" fill="#AECE58"/>
<path transform="translate(1582,1456)" d="m0 0 5 2-3 2 2 5-1 3-4-7z" fill="#509B18"/>
<path transform="translate(1292,927)" d="m0 0h3v2l-8 4-4-1z" fill="#1F3A12"/>
<path transform="translate(1436,779)" d="m0 0 4 1-1 8-2 3 1-9-4-1z" fill="#AECE58"/>
<path transform="translate(1050,700)" d="m0 0h3l-2 5-3 1-1 2-1-4z" fill="#142510"/>
<path transform="translate(1176,482)" d="m0 0h3v12l-2-1z" fill="#498C15"/>
<path transform="translate(1481,1630)" d="m0 0h4l-1 3-6 3-4-1z" fill="#162711"/>
<path transform="translate(717,1487)" d="m0 0 6 1-4 2v9l-2-3-1-8z" fill="#4B9016"/>
<path transform="translate(1625,1441)" d="m0 0 1 4-1 7h-2l-1 4-1-2z" fill="#519D16"/>
<path transform="translate(1405,1376)" d="m0 0m-1 1m-1 1m-2 1h2v3l-6 3h-2l2-4z" fill="#A7D16C"/>
<path transform="translate(1481,1249)" d="m0 0 2 2-3 12-2-2 2-11z" fill="#AECE58"/>
</svg>
