<svg id="svg" xmlns="http://www.w3.org/2000/svg" xmlns:xlink="http://www.w3.org/1999/xlink" width="64" height="64" viewBox="0 0 64"><g id="svgg"><path id="path0" d="M24.64 10.277c-1.165 0.558 -2.017 1.812 -2.427 3.569 -0.124 0.532 -0.324 0.934 -0.667 1.337 -0.419 0.494 -1.039 1.373 -1.514 2.147 -0.109 0.178 -0.203 0.187 -0.637 0.065 -1.973 -0.555 -4.739 0.438 -5.77 2.072 -1.076 1.704 -0.839 4.453 0.516 5.983 0.291 0.329 0.684 0.867 0.873 1.195 0.682 1.183 1.55 1.774 1.978 1.346 0.184 -0.184 0.232 -0.182 0.533 0.026 0.182 0.125 0.676 0.361 1.099 0.524s1.373 0.598 2.112 0.967c1.501 0.749 3.116 1.345 4.323 1.594 0.895 0.185 0.865 0.08 0.375 1.345l-0.294 0.76 -1.279 0.645c-4.625 2.334 -6.02 5.57 -3.366 7.804l0.373 0.314 -0.258 0.422c-0.142 0.232 -0.258 0.616 -0.258 0.853 0 0.399 -0.026 0.426 -0.344 0.365 -0.8 -0.153 -0.901 0.402 -0.291 1.603 0.331 0.652 0.365 0.8 0.224 0.992 -1.193 1.619 -1.09 1.565 -1.547 0.813 -0.332 -0.547 -0.387 -0.583 -0.784 -0.519 -0.372 0.06 -0.491 0.004 -0.917 -0.432 -0.738 -0.756 -1.42 -0.542 -1.653 0.518 -0.079 0.359 -0.1 0.367 -0.856 0.346 -1.211 -0.034 -1.294 0.53 -0.353 2.382 0.466 0.916 0.474 0.86 -0.127 0.86 -0.286 0 -0.589 0.087 -0.704 0.201 -0.251 0.251 -0.263 0.695 -0.018 0.695 0.101 0 0.202 0.125 0.224 0.279 0.054 0.367 1.536 1.487 2.497 1.887 0.999 0.416 2.816 0.5 4.619 0.213 1.079 -0.172 1.512 -0.184 2.465 -0.068 0.636 0.077 2.321 0.125 3.744 0.106s3.403 0.013 4.4 0.072c1.508 0.088 2.078 0.066 3.392 -0.132 1.894 -0.286 2.385 -0.288 3.308 -0.009 0.387 0.117 1.22 0.272 1.851 0.345s1.462 0.224 1.846 0.336c1.011 0.294 1.9 0.166 3.148 -0.452 0.564 -0.279 1.419 -0.655 1.899 -0.836 2.84 -1.067 4.696 -2.664 5.79 -4.981 2.274 -4.816 0.037 -11.595 -4.572 -13.856l-0.705 -0.346 0.398 -0.912c0.521 -1.193 0.525 -1.198 0.972 -1.296 0.666 -0.146 1.727 -1.25 2.299 -2.393 0.786 -1.571 0.645 -2.218 -0.466 -2.129 -0.552 0.044 -0.556 0.041 -0.556 -0.377 0 -1.312 -0.927 -1.953 -1.781 -1.234l-0.393 0.331 -0.116 -0.306c-0.064 -0.168 -0.276 -0.495 -0.471 -0.727 -0.331 -0.394 -0.356 -0.507 -0.381 -1.721 -0.043 -2.092 -0.766 -4.012 -2.338 -6.209 -0.421 -0.588 -1.1 -1.734 -1.509 -2.546C40.772 10.584 38.091 9.218 35.2 10.369c-0.664 0.264 -0.756 0.27 -1.6 0.108 -1.128 -0.217 -3.636 -0.22 -4.483 -0.005 -0.589 0.15 -0.696 0.14 -1.28 -0.12 -0.98 -0.436 -2.375 -0.469 -3.197 -0.075m2.424 0.53c0.676 0.203 1.651 0.796 1.557 0.948 -0.047 0.076 0.512 0.108 0.662 0.038 0.019 -0.009 -0.057 -0.156 -0.169 -0.327l-0.204 -0.311 0.617 -0.102c0.812 -0.134 2.606 -0.135 3.532 -0.003l0.739 0.106 -0.366 0.47c-0.754 0.97 -0.6 1.182 0.296 0.406C36.665 9.49 39.966 10.443 41.937 14.4c0.421 0.845 1.059 1.968 1.419 2.496 2.015 2.957 2.817 6.056 1.983 7.657 -0.147 0.282 -0.329 0.733 -0.405 1.004 -0.236 0.838 -0.548 1.106 -1.107 0.952 -0.722 -0.2 -1.121 0.105 -1.222 0.932 -0.16 1.313 -3.238 2.96 -7.213 3.86 -1.125 0.255 -1.552 0.464 -0.719 0.352l0.528 -0.071 -0.075 0.433c-0.041 0.238 -0.095 0.498 -0.118 0.578 -0.052 0.175 0.616 0.298 1.665 0.307 0.422 0.004 1.001 0.052 1.287 0.108 1.707 0.331 3.907 -0.501 5.34 -2.02 0.813 -0.862 0.846 -0.882 1.059 -0.646 0.121 0.134 0.319 0.275 0.44 0.313 0.535 0.17 0.686 1.545 0.268 2.433 -0.845 1.793 -4.873 4.16 -7.081 4.16 -0.714 0 -0.698 -0.044 -0.272 0.732 0.465 0.847 0.791 1.183 1.424 1.468l0.544 0.245v0.742c0 0.419 -0.115 1.071 -0.264 1.498 -0.639 1.834 -0.618 2.09 0.247 2.972 1.353 1.38 2.391 3.224 1.815 3.224 -0.379 0 -0.737 0.661 -0.841 1.552l-0.087 0.752h-0.555c-1.089 0 -1.607 0.44 -1.358 1.154l0.128 0.368 -0.471 -0.262c-0.259 -0.144 -0.562 -0.342 -0.673 -0.441 -0.292 -0.259 -0.328 -0.239 -0.702 0.4 -0.424 0.724 -0.48 0.752 -2.04 1.03 -5.685 1.014 -10.284 -0.673 -11.713 -4.299 -0.319 -0.81 -0.291 -0.854 0.34 -0.535 2.969 1.499 7.879 1.728 11.406 0.533 0.795 -0.269 0.686 -0.255 -1.042 0.138 -4.142 0.941 -10.881 -0.399 -11.154 -2.218 -0.149 -0.996 0.5 -4.415 0.825 -4.343 2.877 0.638 7.73 0.817 10.122 0.374l1.088 -0.201 -1.216 0.087c-4.309 0.31 -10.12 -0.415 -9.925 -1.238 0.764 -3.23 1.16 -4.387 1.477 -4.315 1.989 0.451 2.604 0.512 5.056 0.505 1.408 -0.004 2.79 -0.065 3.072 -0.134 0.389 -0.096 0.125 -0.112 -1.096 -0.068 -2.188 0.079 -5.44 -0.329 -6.799 -0.853l-0.343 -0.132 0.423 -1.319c0.233 -0.725 0.585 -1.765 0.782 -2.311l0.359 -0.992 0.776 -0.008c0.774 -0.008 0.773 -0.009 -0.646 -0.304 -2.249 -0.467 -3.673 -0.988 -5.313 -1.941 -0.536 -0.312 -1.544 -0.795 -2.24 -1.073 -1.452 -0.581 -1.688 -0.795 -1.61 -1.462 0.123 -1.052 1.35 -1.135 3.154 -0.214 0.678 0.346 1.46 0.668 1.739 0.715 0.459 0.078 0.544 0.157 0.917 0.857 0.701 1.316 1.375 1.265 2 -0.152l0.326 -0.738 1.673 -0.423c0.981 -0.248 2.123 -0.445 2.761 -0.476l1.088 -0.054 0.238 0.408c1.057 1.813 2.352 1.484 2.38 -0.604 0.005 -0.351 0.083 -0.453 0.514 -0.673 0.803 -0.409 1.395 -1.003 2.115 -2.118 0.367 -0.569 0.892 -1.224 1.166 -1.457 0.477 -0.405 0.484 -0.42 0.144 -0.342 -0.737 0.169 -1.694 0.72 -1.91 1.098l-0.217 0.382 -0.608 -0.261c-1.299 -0.557 -1.87 -0.131 -1.399 1.045 0.111 0.277 0.202 0.525 0.202 0.55 0 0.097 -1.247 0.449 -2.048 0.579 -1.487 0.241 -1.621 0.212 -2.292 -0.503 -0.935 -0.996 -1.385 -0.894 -1.696 0.384L27.584 25.28l-0.841 0.21c-2.805 0.701 -4.003 0.62 -6.071 -0.408 -1.498 -0.745 -1.894 -0.784 -3.239 -0.314 -2.003 0.7 -3.358 0.034 -3.747 -1.84 -0.602 -2.901 1.626 -5.221 4.746 -4.942 1.161 0.104 1.654 0.11 3.968 0.047 2.927 -0.079 4.697 1.064 4.95 3.198 0.099 0.834 0.298 0.723 0.298 -0.166 0 -2.332 -2.107 -3.937 -5.082 -3.869 -1.103 0.025 -0.939 -0.115 0.683 -0.581 3.181 -0.914 8.368 0.036 10.336 1.893 0.628 0.593 0.736 0.475 0.188 -0.206 -1.139 -1.417 -3.3 -2.411 -5.88 -2.704l-1.242 -0.141 0.232 -0.4c0.436 -0.751 0.381 -1.762 -0.122 -2.265 -1.236 -1.236 -3.116 0.903 -2.384 2.712 0.068 0.167 -0.033 0.223 -0.531 0.291 -0.338 0.046 -1.015 0.225 -1.504 0.398 -1.107 0.39 -1.116 0.378 -0.355 -0.463 0.517 -0.572 0.659 -0.84 0.836 -1.584 0.66 -2.772 2.17 -3.96 4.24 -3.337m-0.89 2.244c0.104 0.326 -0.132 0.759 -0.487 0.893 -0.569 0.216 -0.814 -0.418 -0.344 -0.888 0.326 -0.326 0.728 -0.329 0.83 -0.005m8.56 0.634c-2.154 1.314 -1.6 5.382 0.734 5.386 2.419 0.003 3.197 -4.3 0.985 -5.451 -0.484 -0.252 -1.246 -0.223 -1.72 0.066m1.173 0.702c0.256 0.39 0.008 1.089 -0.505 1.425 -0.43 0.282 -0.971 -0.011 -0.971 -0.526 0 -0.996 1.009 -1.611 1.476 -0.899M26.112 15.3c0 0.204 -0.34 0.403 -0.469 0.273 -0.041 -0.041 -0.04 -0.163 0.001 -0.272 0.098 -0.256 0.468 -0.257 0.468 -0.002m14.937 2.239c-0.441 0.347 -0.526 0.675 -0.292 1.127 0.448 0.866 2.119 0.662 2.326 -0.284 0.189 -0.86 -1.252 -1.458 -2.034 -0.843M36.48 17.783c0 0.253 -0.314 0.649 -0.514 0.649 -0.193 0 -0.281 -0.259 -0.2 -0.583 0.1 -0.401 0.714 -0.457 0.714 -0.066m1.92 1.07c-0.702 0.353 -0.375 1.294 0.449 1.294 0.828 0 1.174 -0.616 0.644 -1.145 -0.351 -0.351 -0.621 -0.388 -1.094 -0.149m5.044 1.051c-0.194 0.296 -0.194 0.344 0 0.64 0.374 0.571 1.484 0.315 1.484 -0.342 0 -0.616 -1.127 -0.843 -1.484 -0.298m-2.456 0.263c-0.374 0.262 -0.361 0.641 0.029 0.896 0.696 0.456 1.469 -0.319 0.893 -0.895 -0.255 -0.255 -0.56 -0.256 -0.922 -0.002m-25.427 0.13c-0.231 0.231 -0.262 0.726 -0.069 1.087 0.161 0.301 0.789 0.333 1.022 0.053 0.092 -0.111 0.263 -0.163 0.397 -0.12 0.217 0.069 0.222 0.044 0.066 -0.327 -0.36 -0.857 -0.959 -1.15 -1.416 -0.693m7.969 0.444c-0.196 0.114 -0.746 0.892 -0.746 1.055 0 0.038 0.105 0.041 0.233 0.008 0.128 -0.033 0.308 0.03 0.4 0.14 0.4 0.482 1.159 0.058 1.159 -0.648 0 -0.618 -0.491 -0.879 -1.046 -0.555m19.943 1.418c-0.328 0.469 0.003 1.009 0.619 1.009 0.431 0 0.836 -0.321 0.836 -0.662 0 -0.579 -1.108 -0.843 -1.455 -0.347m-8.524 1.012c0.279 0.142 0.507 0.312 0.507 0.378 0 0.131 -0.879 0.838 -0.943 0.758 -0.082 -0.103 -0.465 -1.148 -0.465 -1.268 0 -0.199 0.352 -0.147 0.901 0.133m-5.839 1.556c0.602 0.704 0.582 0.797 -0.214 0.962 -0.819 0.17 -0.758 0.243 -0.582 -0.704 0.175 -0.94 0.204 -0.949 0.796 -0.257m17.402 0.915c0.104 0.294 0.224 0.695 0.267 0.891 0.129 0.602 0.419 0.57 1.033 -0.116l0.56 -0.625 0.006 0.458c0.003 0.252 -0.138 0.742 -0.314 1.088 -0.388 0.762 -0.346 1.002 0.14 0.817 0.188 -0.072 0.447 -0.096 0.576 -0.056 0.129 0.041 0.358 0.008 0.51 -0.073l0.275 -0.147 -0.239 0.405c-1.114 1.893 -2.935 2.391 -4.526 1.238 -0.106 -0.076 -0.048 0.028 0.128 0.232l0.32 0.371 -0.407 -0.281c-0.718 -0.496 -1.809 -2.391 -1.535 -2.665 0.102 -0.102 0.531 0.064 1.011 0.39 0.241 0.164 0.729 0.329 1.102 0.373 0.368 0.044 0.844 0.203 1.056 0.355 0.587 0.418 0.586 0.206 -0.001 -0.382 -0.333 -0.333 -0.639 -0.523 -0.843 -0.523 -0.38 0 -0.392 -0.124 -0.125 -1.258 0.348 -1.474 0.611 -1.603 1.006 -0.492m-13.299 0.502c-0.244 1.164 -0.466 1.262 -1.07 0.472l-0.434 -0.568 0.626 -0.148c0.969 -0.229 0.977 -0.227 0.879 0.244M17.024 26.339c0 0.328 -0.327 1.181 -0.453 1.181 -0.155 0 -1.083 -0.98 -1.083 -1.143 0 -0.04 0.346 -0.075 0.768 -0.077s0.768 0.015 0.768 0.039m7.862 1.085c-0.298 0.942 -0.662 1.066 -1.058 0.361l-0.283 -0.503 0.355 -0.054c0.93 -0.14 1.082 -0.11 0.985 0.196m-4.072 1.109c0.789 0.707 3.548 1.236 4.726 0.906 0.913 -0.256 0.775 -0.334 -0.493 -0.28 -0.796 0.034 -1.444 -0.016 -2.007 -0.155l-1.586 -0.389c-0.415 -0.102 -0.703 -0.139 -0.64 -0.082m22.522 0.709c0.333 0.508 -1.04 1.953 -2.612 2.75 -0.674 0.342 -0.648 0.365 -0.743 -0.653l-0.077 -0.826 0.752 -0.343c0.414 -0.188 1.098 -0.542 1.52 -0.784 0.932 -0.536 0.905 -0.533 1.16 -0.144M24.766 34.4c-0.133 0.317 -0.52 1.533 -0.693 2.175 -0.148 0.551 -0.746 1.042 -1.044 0.858 -0.688 -0.425 -0.857 0.184 -0.446 1.607 0.338 1.172 0.322 1.714 -0.112 3.632L22.063 44.48l-0.625 0.474c-0.683 0.517 -0.812 0.498 -1.158 -0.17 -0.261 -0.505 -0.252 -0.514 0.456 -0.42 0.684 0.091 0.734 0.04 0.448 -0.46 -0.315 -0.551 -0.233 -0.897 0.344 -1.446l0.536 -0.51 -0.376 -0.301c-1.666 -1.331 -2.047 -2.113 -1.668 -3.42 0.344 -1.185 1.588 -2.362 3.791 -3.588 0.936 -0.521 1.088 -0.559 0.954 -0.24m24.052 1.246c2.27 1.731 2.798 4.036 1.62 7.07 -1.149 2.959 -5.042 4.965 -6.428 3.312 -0.569 -0.679 -0.398 -1.874 0.328 -2.302 2.33 -1.374 3.27 -3.906 2.497 -6.726l-0.284 -1.035 0.292 -0.311c0.506 -0.538 1.274 -0.541 1.974 -0.007m-3.429 0.546c-0.102 0.194 -0.334 0.55 -0.515 0.793 -0.601 0.804 -0.488 0.974 0.758 1.128 1.165 0.144 1.159 0.52 -0.016 1.086 -1.072 0.516 -1.077 0.532 -0.369 1.362l0.579 0.678 -0.22 0.373c-0.292 0.495 -0.396 0.475 -1.066 -0.208 -0.633 -0.645 -1.021 -0.708 -1.156 -0.187 -0.072 0.275 -0.176 0.125 -0.741 -1.069 -0.799 -1.688 -0.836 -1.431 0.309 -2.195 0.528 -0.352 1.288 -0.971 1.688 -1.376 0.797 -0.805 1.036 -0.928 0.749 -0.384m0.805 0.943c0.131 0.377 0.124 0.394 -0.148 0.322 -0.158 -0.042 -0.36 -0.078 -0.449 -0.079 -0.12 -0.001 -0.107 -0.087 0.047 -0.322 0.274 -0.419 0.382 -0.404 0.55 0.079m0.208 2.919c-0.116 0.526 -0.253 0.583 -0.501 0.206 -0.199 -0.303 -0.193 -0.321 0.146 -0.5 0.432 -0.227 0.463 -0.2 0.355 0.294m5.691 1.181c0.35 1.461 0.355 2.475 0.011 2.29 -0.392 -0.21 -0.431 -0.157 -0.149 0.2 0.487 0.619 0.391 1.885 -0.265 3.492l-0.177 0.433 -0.35 -0.529c-0.436 -0.658 -0.66 -0.695 -0.333 -0.054 0.508 0.997 0.135 1.888 -1.332 3.171l-0.658 0.576 -0.136 -0.671c-0.223 -1.098 -0.388 -1.232 -0.385 -0.314 0.004 1.273 -0.069 1.403 -1.045 1.857 -1.028 0.477 -0.992 0.495 -0.679 -0.331 0.138 -0.364 0.289 -0.981 0.335 -1.371 0.083 -0.705 0.087 -0.711 0.947 -1.282 2.534 -1.684 3.762 -4.111 3.77 -7.444 0.003 -1.588 0.073 -1.591 0.449 -0.023m-7.359 1.259c0.074 0.12 -0.796 0.848 -0.895 0.749 -0.032 -0.032 -0.022 -0.355 0.021 -0.718l0.078 -0.661 0.363 0.258c0.199 0.142 0.394 0.309 0.433 0.372m-22.296 5.889c0.506 1.51 0.185 2.046 -1.581 2.638 -0.383 0.128 -0.954 0.425 -1.267 0.658 -1.538 1.145 -3.776 1.079 -5.254 -0.155 -0.832 -0.695 -0.806 -0.729 0.468 -0.643 1.658 0.112 2.077 -0.039 1.203 -0.434 -0.87 -0.393 -2.175 -2.161 -2.031 -2.75 0.072 -0.294 0.806 0.012 1.335 0.558 0.639 0.659 0.705 0.645 0.477 -0.095 -0.199 -0.646 -0.159 -1.504 0.081 -1.744 0.171 -0.17 0.412 0.11 1.054 1.228 0.47 0.817 0.612 0.907 0.615 0.388 0.007 -1.238 0.763 -0.124 0.89 1.312l0.068 0.768 0.353 -0.896c0.44 -1.117 1.451 -2.479 2.389 -3.215l0.715 -0.562 0.086 1.003c0.047 0.552 0.227 1.425 0.4 1.941M44.435 49.44c0.221 1.151 0.538 1.315 0.922 0.475 0.131 -0.285 0.377 -0.61 0.548 -0.722 0.335 -0.219 0.575 -0.134 0.326 0.115 -0.083 0.083 -0.152 0.257 -0.152 0.386 0 1.587 -2.421 3.295 -4.443 3.135 -1.151 -0.091 -1.872 -0.573 -2.323 -1.553 -0.088 -0.19 1.987 0.024 2.424 0.25 0.594 0.307 0.63 0.098 0.071 -0.414 -0.485 -0.444 -0.672 -1.796 -0.299 -2.168 0.118 -0.118 0.703 0.431 0.937 0.881 0.101 0.194 0.291 0.352 0.422 0.352 0.154 0 0.269 -0.124 0.324 -0.352 0.119 -0.487 0.677 -1.312 0.888 -1.312 0.115 0 0.235 0.316 0.353 0.928" stroke="none" fill="#000000" fill-rule="evenodd" stroke-width="0.16"/></g></svg>