<?xml version="1.0" encoding="UTF-8"?>
<svg version="1.1" viewBox="0 0 2048 573" width="1280" height="1280" xmlns="http://www.w3.org/2000/svg">
<path transform="translate(150,78)" d="m0 0h1687l59 1 16 4 16 8 9 7 9 8 10 14 7 14 4 15 1 20v251l-1 16-4 16-8 16-9 12-10 10-14 9-15 6-14 3-15 1h-1726l-17-1-19-5-15-8-11-9-7-7-7-10-8-15-5-15-1-14v-258l1-17 4-15 7-14 10-14 12-12 11-7 13-6 11-3z" fill="#FCFCFC"/>
<path transform="translate(246,168)" d="m0 0h54l10 3 20 9 15 9 11 9 10 9 10 12 10 17 8 19 3 9 2 19v21l-3 19-5 15-8 16-7 11-18 20-8 8-18 12-17 8-3 1-16 2-11 2h-19l-35-5-19-8-11-7-9-7-9-8-5-5-13-18-8-16-7-24-4-12v-29l3-8 3-7 3-14 8-16 6-10 10-13 11-12 11-9 15-10 20-9z" fill="#3188E2"/>
<path transform="translate(246,168)" d="m0 0h54l10 3 20 9 15 9 11 9 10 9 8 10 1 8-3 3-4 8-5 6-3 5-8 7-4 5h-2l-2 4-8 10-7 6h-2l-2 4-8 6-7 4-14 7-7 3-12 3-8 4-5 4-2 3-6 1h-6l-1 1 1 8 7 14-5-4-5-10-2-11v-23l4-18 5-13 8-10 8-8 10-6 7-2 9 1 7 4 7 8-1 7-6 12v6l6 1 8-6 6-10 1-3v-9l-3-6-1-3-4-2-9-6-9-2h-14l-14 3-14 7-13 11-9 12-6 13-3 11-1 6v31l-3 3-8 3-10 2-20 6-11 4-7-1-6-4-4-11-4-10 4 12 4 15 8 17 5 8-1 2-7-10-7-14-7-24-4-12v-29l3-8 3-7 3-14 8-16 6-10 10-13 11-12 11-9 15-10 20-9z" fill="#00BDD4"/>
<path transform="translate(398,286)" d="m0 0h1v18l-3 19-5 15-8 16-7 11-18 20-8 8-18 12-17 8-3 1-16 2-11 2h-19l-35-5-19-8-11-7-9-7-9-8-1-6h-2l-6-9 1-5 3-1 22-1 12-3 19-9 4 2 7 6 13 6 12 3h11l16-4 14-9 3-3h2l2-4 8-9 6-12 1-3 7-1 1 3 5 1 1 7-1 4 15-7 8-4 11-8 8-6 3-4h3l2-5 3-1 1-2z" fill="#5539F4"/>
<path transform="translate(453,500)" d="m0 0h1249l-1 2-32 3-43 2-4 1h-1200v-1l13-2h5v2h3v-2l7-2v-2z" fill="#D4D7DF"/>
<path transform="translate(351,195)" d="m0 0 4 2 12 11 7 9 1 8-3 3-4 8-5 6-3 5-8 7-4 5h-2l-2 4-8 10-7 6h-2l-2 4-8 6-7 4-14 7-7 3-12 3-8 4-5 4-2 3-6 1h-6l-1 1 1 8 7 14-5-4-5-10-2-11v-23l4-18 5-13 8-10 8-8 10-6 7-2 9 1 7 4 7 8-1 7-6 12v6l6 1 8-6 6-10 1-3h2v-10l1 2 10-5 10-19 6-10 1-12v-3z" fill="#2298DE"/>
<path transform="translate(1247,272)" d="m0 0h15l10 3 6 4 5 4 6 9 4 11v21l-3 10-5 8-7 7-12 6-4 1h-15l-11-4-8-7-6-8-4-10-1-12 2-16 5-12 6-7 10-6z" fill="#08080A"/>
<path transform="translate(632,273)" d="m0 0h20l12 6 8 8 6 12 1 4v22l-4 12-8 10-12 7-7 2h-15l-10-4-9-7-7-10-3-8-1-11 1-13 4-11 6-9 8-6z" fill="#08080A"/>
<path transform="translate(158,244)" d="m0 0 1 2-2 6-1 10 2-2 4 1 6 13 9 2h30l8-3 5 1 3 4v4l4-11 1 3-3 11-1 6v31l-3 3-8 3-10 2-20 6-11 4-7-1-6-4-4-11-4-10 4 12 4 15 8 17 5 8-1 2-7-10-7-14-7-24-4-12v-29l3-8 3-7 3-14z" fill="#08B1D9"/>
<path transform="translate(284,227)" d="m0 0h14l11 3 8 6 5 5 3 6v9l-5 10-6 7-5 3-6-1-1-1v-6l7-14-1-7-9-8-7-2-9 1-10 5-10 9-8 10-5 13-4 18v23l3 13 5 9 9 9 10 3h13l11-4 11-8 7-7 6-8 2-2 4 1v6l-5 8-9 10-12 9-15 7-5 1h-16l-10-3-12-7-9-9-7-12-4-15v-26l3-14 5-12 7-11 8-9 10-8 14-7z" fill="#F9F9FA"/>
<path transform="translate(392,253)" d="m0 0 2 2 3 9 2 22-1 13-5 5-2 3-4 2-5 5-5 4-14 10-6 2-12 6h-2v-8l-1-3-4-1-2-2h-6l-1 3-2-8-5 1-5 5-8 11-13 10-8 4-11 1-8-2-8-5-7-7-2-8 12 2 11-1 25-8 9-1 16-8 3-1 2-5 4-1 2-4 4-4 4-5 9-4 3-1 1-3 4-1 5-5 3-5 6-8 9-9 8 1z" fill="#3C72F0"/>
<path transform="translate(916,272)" d="m0 0h14l10 3 10 9 4 6 3 12v9l-1 4-11 2-16 1h-28l-2-1 6 16 6 7 6 3h12l10-4 12-8 4-1v7l-3 7-5 5-12 6-4 1h-17l-9-4-8-6-6-7-4-8-2-9v-14l3-13 6-10 7-7 10-5z" fill="#08080A"/>
<path transform="translate(1481,272)" d="m0 0h12l9 3 8 6 4 8 1 7v43l5 4 4 2 2 9-11 2-7-1-3-7-1-6-8 7-9 6-3 1h-14l-10-5-6-8-2-6v-10l3-7 5-5 14-7 25-6v-7l-2-7-2-2-4-1h-8l-10 3-14 8-3-3v-8l5-5 11-6z" fill="#08080A"/>
<path transform="translate(1741,273)" d="m0 0h16l9 3v2l4 2 5 6 2 7 1 46 4 4 5 2 3 5-1 3-2-2-3 5-11-1-4-4-3-8-5 4-5 5-9 4h-13l-8-3-7-6-3-8v-14l5-8 10-6 10-4 19-4 2-1v-13l-3-3-2-1h-10l-14 4-10 5h-5l1-7 2-4 8-6 7-3z" fill="#08080A"/>
<path transform="translate(1391,246)" d="m0 0h12l16 4 8 5 7 8 2 6-2 6h-6l-14-11-10-4h-14l-7 3-8 6-6 10-3 13v21l3 10 6 10 7 6 8 3h15l10-5 5-4 6-8 5-5 6 3 1 2v6l-5 9-8 8-12 6-8 2h-16l-10-3-9-5-8-7-7-10-4-10-2-10v-20l2-12 4-9 6-8 8-7 8-5 9-3z" fill="#08080A"/>
<path transform="translate(538,247)" d="m0 0h20l12 4 10 6 6 9v7l-7 2-16-12-9-3h-14l-10 5-9 10-4 10-1 6v22l3 9 4 8 7 8 8 4 12 1 8-2 10-6 8-8 4-6h6l2 5-1 9-7 9-10 7-10 4-4 1h-16l-13-4-10-7-8-9-7-14-2-9v-24l3-12 5-10 9-10 9-6z" fill="#08080A"/>
<path transform="translate(834,272)" d="m0 0 13 1 8 4 6 7 3 8 1 6v57h-15l-1-60-3-5-6-5h-8l-10 4-4 4h-2l-2 4-2 5-1 53h-15l-1-42v-38l8-1 7 3 2 3v5l11-9z" fill="#08080A"/>
<path transform="translate(1576,273)" d="m0 0h16l9 4 5 6 4 9 1 6v57h-15l-1-59-2-5-5-4-2-1h-11l-8 4-5 4-3 5-1 18-1 38-11 1-3-1-1-7v-73l2-1 9 1 5 5 1 4 10-8z" fill="#08080A"/>
<path transform="translate(742,272)" d="m0 0 13 2 9 6 4 7 2 11v57h-15l-1-60-3-5-5-4-7-1-11 4-7 5-3 10-1 29v22l-3 1h-12v-82h8l6 3 4 7 11-9 5-2z" fill="#08080A"/>
<path transform="translate(1e3 272)" d="m0 0h13l10 3 8 5 4 5 1 2v8l-4 2-8-4-8-5-10-3-9 3-6 5-4 7-1 4v22l5 10 6 5 5 2h7l11-4 13-11 5 3 1 5-4 8-7 6-10 5-4 1h-16l-12-6-8-7-7-12-2-9v-13l3-14 6-10 9-8 9-4z" fill="#08080A"/>
<path transform="translate(1168,256)" d="m0 0h9l2 2 2 14 21 2 2 1v8l-1 3h-19l-4-1v49l2 5 6 3h17v10l-4 3-5 1h-14l-11-4-5-6-3-12-1-37-1-9-7-2-4-3-1-5 5-4 6-3 4-12z" fill="#08080A"/>
<path transform="translate(1073,254)" d="m0 0 6 4 3 13 4 2 17 1 2 1v7l-2 5h-22v49l2 4 2 1h20l1 2v7l-2 4-7 2h-14l-9-3-6-7-3-8-1-9-1-42-9-1-4-2 2-6 4-4 5-2 4-13z" fill="#08080A"/>
<path transform="translate(1626,274)" d="m0 0h13l4 2 7 21 11 30 4 9 2 1 5-12 16-48 2-2 5-1h7l2 1-1 6-6 16-17 45-5 12-9 2-10-1-6-18-10-25-11-30z" fill="#08080A"/>
<path transform="translate(287,236)" d="m0 0 9 1 7 4 7 8-1 7-6 12v6l6 1 9-6-2 4-5 4-3 2h-5l-3-3-1-4-4 4-7 3-10 2-8 4-8 7-6 1-2-4-4-1-2 8h-1v18l4 16 5 8v3l-5-6-4-8-2-11v-23l4-18 5-13 8-10 8-8 10-6z" fill="#08B1DA"/>
<path transform="translate(640,284)" d="m0 0 9 2 8 5 5 6 2 7v21l-4 9-5 6-8 4h-12l-6-3-7-8-3-8v-20l3-8 4-6 8-6z" fill="#F9FAFC"/>
<path transform="translate(149,307)" d="m0 0 2 3 8 23 4 4 7 2 5-1 30-10 10-2 7-2 1-2h2l4 12 7 11 12 12 10 5 10 2h12l14-4 13-8 5-4 1 2-12 9-10 5-13 3h-11l-14-4-14-7-6-6-6 2-15 7-12 3-22 1-3 1 1 6 4 5v2h2v3l-4-2-6-8-3-7-10-19-4-13-3-12-3-8z" fill="#3381E7"/>
<path transform="translate(1249,285)" d="m0 0h12l10 5 5 7 2 8v19l-4 10-4 5-10 5h-10l-8-4-6-8-3-8v-19l4-10 5-6z" fill="#F8F9FC"/>
<path transform="translate(320,176)" d="m0 0 6 2 16 9 9 7 5 7-2 1 1 5-2 9-8 14-7 13-6 4-5 1-1 8h-1l-2-12-3-4v-2l-4-2-7-5 4-4 2-8 5-10 2-10 2-16-4-4z" fill="#08B0DA"/>
<path transform="translate(383,234)" d="m0 0h2l8 18-1 4-5 1v-2l-5 3-5 5-7 8-2 4-3 5-5 4h-3l-4 4-10 5-5 7-6 5-2 2-2 1v2l-12 7-7 3-12 2-22 7-11 1-12-3-3-5v-2l8 2h13l9-3 11-5 8-3h3v-2l7-3 11-5 11-4 14-9 10-10 3-5 16-15 7-12 2-4z" fill="#3480E8"/>
<path transform="translate(148,279)" d="m0 0h1l1 19 3 13 3 5v2h2l3 4 9 1 21-8 5-2 15-1 6-3h2l1-11h1l1 19h2l-1 7-10 4-10 2-20 6-11 4-7-1-6-4-4-11-6-17-1-1z" fill="#2298DE"/>
<path transform="translate(149,290)" d="m0 0h3v3h2l5 9 2 2 14 1 21-5 15-2 6-3 3 1v8l-1 5-8 4-15 1-16 6-10 4-9-1-3-3v-2h-2l-5-10-2-10z" fill="#0AA9D8"/>
<path transform="translate(287,236)" d="m0 0 9 1 7 4 7 8-1 7-6 12v6l6 1 9-6-2 4-5 4-3 2h-5l-3-3-2-17-5-5h-7l-13 2-12 6-4 5-8 24-1 5h-1v18l4 16 5 8v3l-5-6-4-8-2-11v-23l4-18 5-13 8-10 8-8 10-6z" fill="#00BDD4"/>
<path transform="translate(345,190)" d="m0 0 5 3 6 8-2 1 1 5-2 9-8 14-7 13-6 4-5 1-1 8h-1l-2-12-1-7 10-16 4-9 4-8 2-7z" fill="#0AA8D8"/>
<path transform="translate(226,338)" d="m0 0 3 1 9 12 4 6-4-2-5-5-6 2-15 7-12 3-22 1-3 1-2 3-8-15v-2h27l11-3 22-8z" fill="#3C73F1"/>
<path transform="translate(1501,314)" d="m0 0 2 1-3 16-6 9-8 5-3 1h-7l-8-7-2-3v-8l4-6 8-5 11-2z" fill="#F4F6FB"/>
<path transform="translate(1760,315)" d="m0 0h5v9l-4 11-9 9-10 3-7-3-5-6-1-8 3-6 6-5 9-3z" fill="#F2F4FA"/>
<path transform="translate(917,284)" d="m0 0h13l8 5 3 3 2 7v5l-2 2-6 1h-30l-5-1 4-11 7-8z" fill="#F3F5FB"/>
<path transform="translate(149,307)" d="m0 0 2 3 8 23 4 4 7 2 5-1 30-10 10-2 7-2 1-2h2l2 10h-4l-6 3-8 2-18 6-13 2h-14l1 5 9 17 6 8v2h2v3l-4-2-6-8-3-7-10-19-4-13-3-12-3-8z" fill="#3089E1"/>
<path transform="translate(281,268)" d="m0 0h9l8 4-1 3-9 4-10 2-8 4-8 7-6 1-2-4-4-2 1-6h2l2-4 10-5z" fill="#09A9D8"/>
<path transform="translate(323,316)" d="m0 0 5 1 1 2v9l-7 12-8 8-6 4-10 7-13 5-5 1h-12l-13-3-10-6-2-3 5 2 9 5 8 2h16l10-3 13-7 10-8 9-10 3-6v-6l-4 1-9 11-7 7-11 7-9 3h-13l-10-3-6-6-3-5-1-2 4 2 8 7 6 3 11 1 9-2 13-9 6-5 8-12z" fill="#1F9BDE"/>
<path transform="translate(323,321)" d="m0 0 4 1v6l-5 8-9 10-12 9-15 7-5 1h-16l-10-3-7-4 2-1 9 4 4 1h18l13-4 5-2v-6l-11 4-8 1-12-2v-1h18l11-4 11-8 7-7 6-8z" fill="#D3D6DF"/>
<path transform="translate(205,401)" d="m0 0 6 2 15 7 10 3 30 4h19l16-3h11l-3 2-16 5-9 2h-19l-15-3-24-7-16-8-5-3z" fill="#D3D6DF"/>
<path transform="translate(162,234)" d="m0 0 1 2-7 14-4 17-4 8-1 4v29l6 19 5 17 8 16 11 15-1 2-10-13-6-10-6-13-9-28-1-5v-28l2-9 6-19 4-13 4-4z" fill="#D3D6DF"/>
<path transform="translate(1744,271)" d="m0 0h16l6 2v2l5 2 6 8 3 12v24h-1v13l1 4 4 2 3 5-5-1-5-5-1-46-3-9-7-6-1-2-8-2-16-1z" fill="#4276F0"/>
<path transform="translate(227,332)" d="m0 0 3 4 7 10 8 9 10 6 13 3h12l14-4 13-8 5-4 1 2-12 9-10 5-13 3h-11l-14-4-11-5-6-8-8-11z" fill="#3286E3"/>
<path transform="translate(323,319)" d="m0 0 5 1v10l-7 11-7 7-6 4-10 7-13 5-5 1h-12l-13-3-10-6-2-3 5 2 9 5 8 2h16l10-3 13-7 10-8 9-10 3-6v-6l-4 1-4 3 2-4z" fill="#08B1DA"/>
<path transform="translate(270,244)" d="m0 0 2 1-10 10-6 9-7 21-2 9v20l4 16 5 8v3l-5-6-4-8-2-11v-23l4-18 5-13 8-10z" fill="#09AFDA"/>
<path transform="translate(286,235)" d="m0 0h7l9 3 7 7-1 2-9-8-7-2-9 1-10 5-10 9-8 10-5 13-2 7-1-4 4-13 5-10 6-7 13-9z" fill="#D3D6DF"/>
<path transform="translate(227,332)" d="m0 0 3 4 7 10 8 9 11 7-3 1-11-5-6-8-8-11z" fill="#2B8EE1"/>
<path transform="translate(287,236)" d="m0 0 9 1 7 4 7 8-1 7-2 2-1-9-7-8-5-2h-9l-10 3 3-3z" fill="#08B1DA"/>
<path transform="translate(323,319)" d="m0 0 5 1v10l-7 11-7 7-4 1 6-7 8-10 2-4v-6l-4 1-4 3 2-4z" fill="#1AAADB"/>
<path transform="translate(539,244)" d="m0 0h2v2h12v1l-15 1-12 4-6 3-2-2 6-4z" fill="#CDD7E7"/>
<path transform="translate(1780,302)" d="m0 0h1l1 36h-2l-2-4v-15h1z" fill="#D3D6DF"/>
<path transform="translate(1734,308)" d="m0 0 4 1-16 8-5 8-2-4 6-8 8-4z" fill="#8EA9E7"/>
<path transform="translate(303,264)" d="m0 0 1 2-1 2v6l6 1 9-6-2 4-5 4-3 2h-5l-3-3v-7z" fill="#09AFDA"/>
<path transform="translate(253,335)" d="m0 0 4 2 8 7 8 5v1l-8-1-8-7-3-5z" fill="#2396DF"/>
<path transform="translate(373,368)" d="m0 0v3l-9 11-11 10-2-1 13-13 7-8z" fill="#D3D6DF"/>
<path transform="translate(306,335)" d="m0 0m-1 1m-1 1m-1 1m-2 1h2l-2 4-12 6-4 1h-12l-1-2h10l9-2z" fill="#3189E2"/>
<path transform="translate(1760,315)" d="m0 0h5v9l-2 7h-1v-14h-15v-1z" fill="#7D9DE9"/>
<path transform="translate(1744,271)" d="m0 0h16l6 2v1l-25-1z" fill="#97AEE6"/>
<path transform="translate(256,362)" d="m0 0 22 3v2h-11l-12-3z" fill="#3384E5"/>
<path transform="translate(1777,334)" d="m0 0h2l1 4 4 2 3 5-5-1-5-5z" fill="#426DCF"/>
<path transform="translate(1717,290)" d="m0 0 1 4 9-3 4-1v2l-9 5-6-1z" fill="#91AAE6"/>
<path transform="translate(158,244)" d="m0 0 1 2-2 6-2 12h-2l1-11z" fill="#0DABDA"/>
<path transform="translate(322,335)" d="m0 0 1 3-7 8-4 3-2-1 9-9z" fill="#14A5DC"/>
<path transform="translate(172,368)" d="m0 0 6 4 2 5h2v3l-4-2-6-8z" fill="#1F99DF"/>
<path transform="translate(539,244)" d="m0 0h2v2h12v1l-15 1-5 1 1-3z" fill="#8DAEE5"/>
<path transform="translate(1765,342)" d="m0 0 2 1 2 7-9-2z" fill="#9DB2E5"/>
<path transform="translate(1715,325)" d="m0 0h1l1 14 1 6h-2l-2-6z" fill="#678FEB"/>
<path transform="translate(227,332)" d="m0 0 3 4 4 6-1 2-5-5z" fill="#1B9DDD"/>
<path transform="translate(1747,284)" d="m0 0h10l5 3 1 4-2 1-3-5-2-1-9-1z" fill="#3C73F1"/>
</svg>
