<svg id="svg" xmlns="http://www.w3.org/2000/svg" xmlns:xlink="http://www.w3.org/1999/xlink" width="400" height="400" viewBox="0, 0, 400,400"><g id="svgg"><path id="path0" d="M154.000 64.232 C 146.720 67.721,141.392 75.554,138.830 86.536 C 138.055 89.860,136.802 92.371,134.661 94.895 C 132.042 97.981,128.165 103.479,125.200 108.311 C 124.519 109.422,123.929 109.482,121.219 108.720 C 108.888 105.250,91.602 111.458,85.155 121.671 C 78.431 132.323,79.912 149.503,88.380 159.064 C 90.199 161.119,92.656 164.480,93.838 166.533 C 98.098 173.928,103.524 177.619,106.200 174.943 C 107.352 173.791,107.647 173.805,109.532 175.103 C 110.669 175.886,113.760 177.360,116.400 178.379 C 119.040 179.397,124.980 182.118,129.600 184.425 C 138.979 189.109,149.072 192.831,156.618 194.390 C 162.210 195.545,162.027 194.890,158.964 202.798 L 157.124 207.549 149.132 211.583 C 120.228 226.172,111.504 246.397,128.095 260.357 L 130.426 262.319 128.816 264.959 C 127.930 266.412,127.205 268.812,127.203 270.293 C 127.200 272.784,127.038 272.956,125.051 272.576 C 120.049 271.620,119.421 275.088,123.235 282.595 C 125.306 286.669,125.516 287.598,124.635 288.792 C 117.179 298.910,117.821 298.573,114.969 293.875 C 112.893 290.456,112.552 290.231,110.067 290.634 C 107.744 291.011,106.996 290.659,104.335 287.934 C 99.721 283.209,95.462 284.544,94.006 291.173 C 93.514 293.415,93.383 293.468,88.659 293.335 C 81.092 293.124,80.569 296.650,86.450 308.224 C 89.360 313.951,89.412 313.600,85.657 313.600 C 83.867 313.600,81.973 314.141,81.257 314.857 C 79.686 316.428,79.614 319.200,81.144 319.200 C 81.774 319.200,82.404 319.983,82.544 320.941 C 82.881 323.233,92.147 330.235,98.152 332.735 C 104.398 335.335,115.750 335.859,127.018 334.068 C 133.761 332.995,136.467 332.921,142.425 333.646 C 146.400 334.129,156.930 334.427,165.826 334.308 C 174.722 334.189,187.097 334.390,193.327 334.755 C 202.751 335.307,206.312 335.168,214.527 333.928 C 226.367 332.140,229.433 332.131,235.200 333.870 C 237.620 334.599,242.826 335.569,246.770 336.025 C 250.713 336.481,255.906 337.426,258.310 338.125 C 264.627 339.961,270.184 339.164,277.986 335.303 C 281.514 333.557,286.853 331.207,289.852 330.081 C 307.602 323.412,319.202 313.434,326.041 298.952 C 340.254 268.855,326.271 226.483,297.465 212.355 L 293.057 210.193 295.544 204.496 C 298.800 197.041,298.823 197.010,301.616 196.397 C 305.781 195.482,312.409 188.584,315.983 181.443 C 320.898 171.623,320.014 167.583,313.072 168.135 C 309.624 168.410,309.600 168.394,309.600 165.780 C 309.600 157.583,303.809 153.571,298.467 158.067 L 296.011 160.133 295.284 158.221 C 294.884 157.170,293.560 155.125,292.342 153.677 C 290.272 151.217,290.116 150.511,289.961 142.922 C 289.695 129.846,285.176 117.846,275.346 104.116 C 272.715 100.439,268.472 93.278,265.917 88.201 C 254.823 66.152,238.066 57.614,220.000 64.807 C 215.853 66.458,215.277 66.497,210.000 65.480 C 202.953 64.121,187.275 64.105,181.983 65.450 C 178.303 66.386,177.632 66.323,173.983 64.700 C 167.855 61.975,159.138 61.771,154.000 64.232 M169.150 67.545 C 173.373 68.816,179.466 72.523,178.882 73.467 C 178.587 73.944,182.085 74.144,183.018 73.703 C 183.139 73.646,182.664 72.726,181.964 71.657 L 180.691 69.714 184.545 69.079 C 189.622 68.243,200.834 68.233,206.620 69.060 L 211.239 69.720 208.954 72.660 C 204.239 78.725,205.201 80.046,210.802 75.199 C 229.156 59.313,249.790 65.266,262.106 90.000 C 264.735 95.280,268.726 102.300,270.975 105.600 C 283.569 124.084,288.584 143.450,283.368 153.457 C 282.451 155.217,281.311 158.039,280.836 159.729 C 279.364 164.965,277.412 166.644,273.920 165.680 C 269.405 164.433,266.913 166.334,266.281 171.505 C 265.280 179.709,246.046 190.003,221.200 195.631 C 214.169 197.224,211.502 198.529,216.704 197.831 L 220.002 197.389 219.532 200.095 C 219.273 201.583,218.940 203.207,218.792 203.705 C 218.468 204.796,222.645 205.566,229.200 205.626 C 231.840 205.650,235.459 205.953,237.243 206.299 C 247.912 208.368,261.664 203.167,270.616 193.677 C 275.699 188.289,275.902 188.165,277.235 189.639 C 277.992 190.475,279.229 191.355,279.984 191.595 C 283.325 192.655,284.271 201.252,281.657 206.800 C 276.377 218.009,251.202 232.800,237.403 232.800 C 232.938 232.800,233.041 232.524,235.701 237.372 C 238.608 242.668,240.643 244.767,244.600 246.546 L 248.000 248.075 248.000 252.713 C 248.000 255.332,247.283 259.409,246.353 262.076 C 242.358 273.539,242.491 275.140,247.896 280.653 C 256.350 289.276,262.840 300.800,259.242 300.800 C 256.871 300.800,254.635 304.930,253.988 310.502 L 253.443 315.200 249.974 315.200 C 243.169 315.200,239.929 317.951,241.484 322.411 L 242.285 324.708 239.342 323.073 C 237.724 322.173,235.832 320.934,235.137 320.319 C 233.310 318.700,233.085 318.828,230.747 322.818 C 228.097 327.340,227.748 327.516,218.000 329.256 C 182.466 335.596,153.727 325.048,144.795 302.387 C 142.800 297.327,142.977 297.050,146.922 299.042 C 165.481 308.409,196.167 309.843,218.208 302.374 C 223.176 300.691,222.497 300.780,211.698 303.235 C 185.811 309.119,143.689 300.744,141.984 289.373 C 141.050 283.145,145.108 261.778,147.139 262.228 C 165.122 266.214,195.454 267.336,210.400 264.567 L 217.200 263.308 209.600 263.854 C 182.670 265.789,146.352 261.260,147.569 256.118 C 152.345 235.931,154.820 228.701,156.800 229.150 C 169.232 231.967,173.076 232.350,188.400 232.304 C 197.200 232.277,205.840 231.900,207.600 231.467 C 210.030 230.868,208.383 230.766,200.752 231.041 C 187.074 231.535,166.749 228.986,158.259 225.710 L 156.118 224.885 158.763 216.642 C 160.217 212.109,162.417 205.610,163.651 202.200 L 165.895 196.000 170.748 195.948 C 175.587 195.896,175.577 195.891,166.708 194.048 C 152.653 191.128,143.749 187.874,133.503 181.915 C 130.150 179.965,123.850 176.947,119.503 175.209 C 110.426 171.579,108.953 170.241,109.440 166.070 C 110.208 159.495,117.875 158.976,129.150 164.734 C 133.387 166.898,138.277 168.909,140.017 169.203 C 142.886 169.688,143.418 170.185,145.749 174.558 C 150.132 182.781,154.340 182.462,158.252 173.609 L 160.292 168.994 170.746 166.353 C 176.875 164.805,184.013 163.574,188.000 163.377 L 194.800 163.041 196.288 165.593 C 202.895 176.924,210.987 174.869,211.165 161.816 C 211.195 159.625,211.683 158.986,214.378 157.611 C 219.395 155.052,223.099 151.341,227.594 144.374 C 229.887 140.820,233.166 136.722,234.881 135.267 C 237.863 132.737,237.903 132.643,235.778 133.131 C 231.173 134.189,225.188 137.631,223.843 139.995 L 222.486 142.380 218.686 140.751 C 210.566 137.270,207.000 139.935,209.940 147.284 C 210.633 149.016,211.200 150.564,211.200 150.724 C 211.200 151.328,203.404 153.533,198.400 154.345 C 189.106 155.852,188.269 155.668,184.074 151.200 C 178.229 144.974,175.420 145.610,173.472 153.600 L 172.400 158.000 167.145 159.314 C 149.612 163.695,142.125 163.192,129.200 156.761 C 119.837 152.102,117.364 151.862,108.954 154.800 C 96.438 159.173,87.969 155.013,85.537 143.298 C 81.774 125.169,95.701 110.667,115.200 112.410 C 122.456 113.059,125.538 113.095,140.000 112.705 C 158.294 112.210,169.357 119.358,170.936 132.691 C 171.553 137.902,172.800 137.208,172.800 131.653 C 172.800 117.077,159.629 107.048,141.040 107.469 C 134.144 107.626,135.174 106.749,145.307 103.838 C 165.187 98.128,197.606 104.065,209.909 115.669 C 213.836 119.373,214.509 118.637,211.087 114.380 C 203.971 105.524,190.461 99.310,174.338 97.477 L 166.575 96.594 168.023 94.097 C 170.745 89.403,170.405 83.082,167.262 79.938 C 159.535 72.212,147.787 85.581,152.365 96.891 C 152.788 97.937,152.158 98.282,149.044 98.709 C 146.930 98.998,142.700 100.117,139.644 101.195 C 132.727 103.634,132.668 103.558,137.425 98.300 C 140.658 94.728,141.542 93.053,142.651 88.400 C 146.777 71.078,156.214 63.652,169.150 67.545 M163.590 81.570 C 164.237 83.607,162.762 86.313,160.548 87.153 C 156.993 88.501,155.461 84.539,158.400 81.600 C 160.440 79.560,162.948 79.546,163.590 81.570 M217.093 85.535 C 203.628 93.745,207.095 119.174,221.682 119.195 C 236.803 119.216,241.665 92.317,227.840 85.124 C 224.812 83.548,220.052 83.730,217.093 85.535 M224.424 89.924 C 226.021 92.361,224.472 96.730,221.267 98.830 C 218.577 100.592,215.200 98.762,215.200 95.542 C 215.200 89.317,221.509 85.475,224.424 89.924 M163.200 95.625 C 163.200 96.902,161.074 98.141,160.267 97.333 C 160.011 97.078,160.016 96.313,160.276 95.635 C 160.890 94.036,163.200 94.028,163.200 95.625 M256.555 109.621 C 253.800 111.788,253.268 113.838,254.729 116.663 C 257.528 122.075,267.970 120.800,269.268 114.888 C 270.450 109.510,261.441 105.777,256.555 109.621 M228.000 111.143 C 228.000 112.722,226.039 115.200,224.790 115.200 C 223.586 115.200,223.031 113.582,223.540 111.555 C 224.168 109.051,228.000 108.698,228.000 111.143 M240.000 117.830 C 235.613 120.039,237.656 125.920,242.809 125.920 C 247.981 125.920,250.146 122.073,246.836 118.764 C 244.645 116.573,242.957 116.342,240.000 117.830 M271.526 124.400 C 270.313 126.253,270.313 126.547,271.526 128.400 C 273.864 131.968,280.800 130.368,280.800 126.261 C 280.800 122.408,273.758 120.995,271.526 124.400 M256.178 126.045 C 253.843 127.681,253.920 130.049,256.361 131.648 C 260.710 134.498,265.543 129.657,261.943 126.057 C 260.349 124.464,258.442 124.460,256.178 126.045 M97.257 126.857 C 95.815 128.299,95.620 131.395,96.828 133.653 C 97.836 135.535,101.758 135.737,103.215 133.982 C 103.792 133.287,104.856 132.964,105.695 133.230 C 107.050 133.660,107.082 133.503,106.109 131.189 C 103.857 125.833,100.114 124.001,97.257 126.857 M147.062 129.629 C 145.839 130.343,142.400 135.204,142.400 136.220 C 142.400 136.456,143.055 136.479,143.856 136.269 C 144.657 136.060,145.781 136.454,146.354 137.144 C 148.854 140.157,153.600 137.506,153.600 133.097 C 153.600 129.234,150.530 127.606,147.062 129.629 M271.706 138.492 C 269.653 141.423,271.723 144.800,275.574 144.800 C 278.265 144.800,280.800 142.793,280.800 140.661 C 280.800 137.044,273.876 135.393,271.706 138.492 M218.432 144.816 C 220.174 145.705,221.600 146.767,221.600 147.176 C 221.600 147.994,216.106 152.411,215.708 151.912 C 215.197 151.269,212.800 144.736,212.800 143.984 C 212.800 142.740,215.001 143.066,218.432 144.816 M181.938 154.544 C 185.703 158.942,185.573 159.524,180.600 160.555 C 175.481 161.616,175.860 162.075,176.961 156.153 C 178.053 150.281,178.238 150.221,181.938 154.544 M290.702 160.263 C 291.355 162.098,292.105 164.605,292.368 165.834 C 293.176 169.598,294.984 169.395,298.825 165.109 L 302.328 161.200 302.364 164.064 C 302.384 165.640,301.500 168.700,300.399 170.864 C 297.976 175.629,298.234 177.128,301.277 175.971 C 302.451 175.524,304.070 175.368,304.875 175.624 C 305.681 175.880,307.114 175.674,308.060 175.168 L 309.781 174.247 308.290 176.778 C 301.325 188.609,289.944 191.722,280.000 184.518 C 279.340 184.040,279.700 184.691,280.800 185.966 L 282.800 188.284 280.257 186.528 C 275.770 183.430,268.949 171.585,270.664 169.870 C 271.299 169.234,273.982 170.268,276.984 172.305 C 278.492 173.328,281.539 174.359,283.872 174.636 C 286.174 174.908,289.144 175.906,290.474 176.853 C 294.143 179.466,294.139 178.139,290.467 174.467 C 288.387 172.387,286.473 171.200,285.200 171.200 C 282.824 171.200,282.747 170.423,284.417 163.338 C 286.589 154.126,288.234 153.321,290.702 160.263 M207.582 163.400 C 206.054 170.678,204.667 171.290,200.893 166.350 L 198.181 162.800 202.091 161.877 C 208.148 160.446,208.198 160.460,207.582 163.400 M106.400 164.618 C 106.400 166.668,104.354 172.000,103.567 172.000 C 102.600 172.000,96.799 165.876,96.801 164.856 C 96.801 164.605,98.961 164.387,101.601 164.372 C 104.240 164.357,106.400 164.467,106.400 164.618 M155.539 171.400 C 153.678 177.285,151.403 178.061,148.927 173.655 L 147.160 170.510 149.380 170.175 C 155.195 169.297,156.144 169.486,155.539 171.400 M130.086 178.331 C 135.018 182.751,152.258 186.056,159.624 183.993 C 165.328 182.396,164.468 181.906,156.545 182.241 C 151.570 182.451,147.522 182.139,144.000 181.275 C 141.140 180.574,136.679 179.480,134.086 178.845 C 131.493 178.210,129.693 177.979,130.086 178.331 M270.850 182.764 C 272.930 185.939,264.350 194.970,254.522 199.950 C 250.309 202.085,250.473 202.230,249.879 195.869 L 249.398 190.709 254.099 188.568 C 256.684 187.390,260.960 185.183,263.600 183.665 C 269.424 180.315,269.259 180.336,270.850 182.764 M154.786 215.000 C 153.956 216.984,151.535 224.583,150.455 228.595 C 149.528 232.039,145.794 235.109,143.931 233.957 C 139.633 231.301,138.577 235.106,141.145 244.000 C 143.260 251.323,143.155 254.710,140.446 266.697 L 137.891 278.000 133.982 280.962 C 129.715 284.195,128.908 284.076,126.747 279.898 C 125.115 276.741,125.172 276.688,129.600 277.276 C 133.875 277.843,134.186 277.524,132.400 274.400 C 130.431 270.955,130.945 268.795,134.551 265.365 L 137.902 262.177 135.551 260.298 C 125.139 251.977,122.756 247.089,125.129 238.926 C 127.282 231.519,135.054 224.163,148.822 216.500 C 154.673 213.244,155.620 213.005,154.786 215.000 M305.110 222.786 C 319.295 233.605,322.596 248.013,315.234 266.973 C 308.052 285.467,283.719 298.006,275.061 287.673 C 271.507 283.432,272.571 275.960,277.110 273.283 C 291.670 264.695,297.545 248.869,292.716 231.247 L 290.943 224.777 292.771 222.831 C 295.931 219.467,300.736 219.449,305.110 222.786 M283.681 226.200 C 283.043 227.410,281.594 229.640,280.460 231.155 C 276.701 236.183,277.412 237.242,285.200 238.207 C 292.481 239.109,292.446 241.455,285.098 244.994 C 278.396 248.222,278.369 248.322,282.792 253.504 L 286.408 257.740 285.031 260.070 C 283.204 263.163,282.559 263.037,278.371 258.770 C 274.413 254.737,271.992 254.345,271.146 257.600 C 270.699 259.319,270.049 258.381,266.513 250.917 C 261.517 240.369,261.291 241.971,268.445 237.200 C 271.744 235.000,276.492 231.130,278.997 228.600 C 283.978 223.567,285.473 222.801,283.681 226.200 M288.712 232.091 C 289.533 234.448,289.484 234.556,287.790 234.102 C 286.805 233.838,285.542 233.617,284.982 233.611 C 284.233 233.603,284.311 233.069,285.274 231.600 C 286.989 228.981,287.661 229.077,288.712 232.091 M290.015 250.334 C 289.292 253.622,288.431 253.976,286.886 251.619 C 285.644 249.724,285.678 249.610,287.799 248.497 C 290.496 247.080,290.693 247.244,290.015 250.334 M325.586 257.714 C 327.775 266.846,327.805 273.180,325.653 272.028 C 323.203 270.717,322.961 271.044,324.721 273.281 C 327.763 277.149,327.162 285.063,323.062 295.109 L 321.957 297.818 319.767 294.509 C 317.044 290.394,315.645 290.166,317.686 294.169 C 320.864 300.403,318.527 305.966,309.359 313.986 L 305.244 317.586 304.392 313.393 C 302.998 306.530,301.968 305.690,301.985 311.430 C 302.009 319.389,301.553 320.200,295.453 323.034 C 289.030 326.018,289.250 326.126,291.210 320.967 C 292.075 318.691,293.017 314.836,293.303 312.401 C 293.821 307.992,293.845 307.960,299.221 304.386 C 315.057 293.858,322.736 278.693,322.781 257.859 C 322.802 247.935,323.236 247.913,325.586 257.714 M279.591 265.585 C 280.053 266.333,274.616 270.883,273.998 270.264 C 273.801 270.067,273.859 268.047,274.128 265.776 L 274.617 261.646 276.885 263.260 C 278.131 264.148,279.349 265.194,279.591 265.585 M140.238 302.394 C 143.403 311.833,141.396 315.182,130.356 318.884 C 127.960 319.687,124.396 321.538,122.436 322.998 C 112.822 330.155,98.833 329.742,89.600 322.030 C 84.403 317.689,84.562 317.471,92.522 318.009 C 102.884 318.710,105.502 317.764,100.039 315.295 C 94.603 312.838,86.444 301.789,87.347 298.107 C 87.798 296.268,92.383 298.184,95.691 301.594 C 99.685 305.711,100.099 305.628,98.671 301.000 C 97.425 296.965,97.676 291.602,99.180 290.103 C 100.248 289.039,101.753 290.791,105.769 297.776 C 108.705 302.882,109.594 303.443,109.612 300.200 C 109.655 292.461,114.380 299.425,115.175 308.400 L 115.600 313.200 117.804 307.600 C 120.551 300.621,126.875 292.108,132.733 287.504 L 137.200 283.994 137.737 290.265 C 138.032 293.715,139.157 299.172,140.238 302.394 M277.718 309.000 C 279.098 316.196,281.080 317.216,283.483 311.968 C 284.299 310.186,285.840 308.155,286.908 307.456 C 288.999 306.086,290.504 306.616,288.947 308.173 C 288.426 308.694,288.000 309.780,288.000 310.587 C 288.000 320.503,272.870 331.180,260.234 330.182 C 253.043 329.614,248.537 326.600,245.717 320.473 C 245.170 319.286,258.133 320.621,260.864 322.033 C 264.577 323.953,264.802 322.646,261.310 319.445 C 258.280 316.668,257.113 308.220,259.439 305.894 C 260.179 305.154,263.835 308.590,265.297 311.400 C 265.926 312.610,267.113 313.600,267.934 313.600 C 268.899 313.600,269.616 312.823,269.962 311.400 C 270.703 308.354,274.193 303.200,275.514 303.200 C 276.233 303.200,276.985 305.178,277.718 309.000 " stroke="none" fill="#000000" fill-rule="evenodd"></path></g></svg>