<svg version="1.1" viewBox="0 0 100 100" width="64" height="64" xmlns="http://www.w3.org/2000/svg"><path d="M40.15 15.7h1.1l0.75 0.1 0.95 0.25 0.9 0.4 0.4 0.25 0.45 -0.05 1 -0.25 1.35 -0.2 0.55 -0.05h2.45l1.45 0.15 1.1 0.2 1 0.25 0.45 -0.05 0.65 -0.3 1.35 -0.45 0.7 -0.15 1.2 -0.1 1.15 0.05 1 0.2 1.1 0.4 0.85 0.45 0.75 0.5 0.7 0.55 0.7 0.7 0.65 0.85 0.55 0.85 0.6 1.05 0.7 1.35 0.75 1.65 0.5 0.7 0.5 0.65 0.6 0.85 0.55 0.85 0.6 1 0.6 1.1 0.5 1.05 0.45 1.2 0.35 1.2 0.2 1.15 0.1 0.95v1.65l-0.1 0.85v0.4l0.45 0.3 0.35 0.35 0.45 0.7 0.4 0.9h0.15l0.6 -0.6 0.45 -0.3 0.3 -0.1h0.55l0.45 0.2 0.35 0.35 0.3 0.6 0.1 0.35 0.05 0.4v1.25l0.75 -0.25 0.7 -0.05 0.5 0.15 0.35 0.3 0.15 0.4v0.45l-0.2 0.85 -0.35 0.8 -0.5 0.95 -0.65 0.95 -0.4 0.5 -0.55 0.6 -0.55 0.5 -0.8 0.45 -0.7 0.25 -0.45 0.1 -0.2 0.45 -0.45 1.2 -0.45 1 -0.35 0.7 0.45 0.15 1.05 0.5 0.9 0.55 0.7 0.5 0.7 0.55 0.65 0.6 0.9 0.9 0.45 0.55 0.4 0.5 0.65 0.95 0.45 0.75 0.55 1 0.55 1.25 0.5 1.4 0.35 1.25 0.25 1.2 0.2 1.7 0.05 0.75v1.2l-0.15 1.55 -0.2 1.2 -0.35 1.3 -0.35 1 -0.45 1 -0.5 0.95 -0.5 0.8 -0.65 0.85 -0.55 0.65 -0.85 0.85 -0.55 0.45 -0.9 0.7 -0.85 0.55 -0.8 0.45 -0.85 0.45 -1.15 0.5 -1.25 0.45 -1.05 0.35 -1.15 0.7 -0.8 0.4 -0.85 0.35 -0.75 0.2 -0.4 0.05h-1.45l-0.8 -0.1 -0.9 -0.3 -0.45 -0.2 -1.35 -0.05 -1.8 -0.25 -1.2 -0.25 -1.3 -0.4 -0.65 -0.25 -1.3 0.25 -2.2 0.35 -1.2 0.15 -1.25 0.1 -1.1 0.05h-1.1l-1.75 -0.1 -1.2 -0.1 -1.45 -0.25 -0.4 -0.05 -1.9 0.15 -1.95 0.1h-2.9l-1.85 -0.15 -0.9 -0.1h-1.6l-1.8 0.3 -1.5 0.2 -0.65 0.05h-1.7l-0.9 -0.1 -0.9 -0.2 -0.75 -0.25 -0.9 -0.4 -0.9 -0.5 -0.95 -0.7 -0.7 -0.6 -0.65 -0.6 -0.1 -0.15 -0.05 -0.4 -0.35 -0.15 -0.15 -0.3 0.15 -0.45 0.25 -0.3 0.65 -0.15 1.4 -0.1 -0.55 -0.9 -0.4 -0.7 -0.4 -0.9 -0.35 -1.15 -0.1 -0.55v-0.35l0.15 -0.3 0.3 -0.25 0.1 -0.05h0.6l1 0.2 0.55 0.2 0.15 -0.75 0.3 -0.8 0.35 -0.55 0.45 -0.3h0.35l0.5 0.25 0.75 0.7 0.6 0.75 0.25 -0.05 0.25 -0.2 0.1 -0.05h0.45l0.3 0.2 0.35 0.4 0.65 1.15 0.1 0.2 0.15 -0.05 0.55 -0.75 0.55 -0.7 0.55 -0.65 0.45 -0.5 -0.05 -0.3 -0.35 -0.5 -0.6 -1.15 -0.25 -0.75 -0.1 -0.4v-0.3l0.2 -0.3 0.1 -0.05h0.45l0.9 0.1v-0.95l0.2 -0.65 0.3 -0.55 0.4 -0.45 -0.1 -0.2 -0.65 -0.6 -0.65 -0.65 -0.4 -0.55 -0.4 -0.7 -0.25 -0.6 -0.2 -0.85 -0.05 -0.8 0.15 -1 0.3 -0.9 0.5 -0.95 0.4 -0.55 0.45 -0.55 1 -1 0.7 -0.55 0.65 -0.5 1.1 -0.7 1.05 -0.6 1.15 -0.6 1.1 -0.5 0.6 -0.25h0.1l0.1 -0.25 1.05 -2.8 0.1 -0.3 -0.6 -0.1 -1.45 -0.3 -1.8 -0.5 -1.25 -0.45 -1.15 -0.5 -0.95 -0.45 -0.95 -0.5 -0.85 -0.45 -1.15 -0.5 -1.9 -0.75 -1.15 -0.55 -0.45 -0.35 -0.2 0.1 -0.25 0.25 -0.3 0.15 -0.55 -0.05 -0.4 -0.2 -0.65 -0.55 -0.55 -0.7 -0.55 -0.9 -0.55 -1 -0.75 -0.7 -0.55 -0.7 -0.6 -1.15 -0.4 -1.15 -0.25 -1.4 -0.05 -0.7 0.05 -1.25 0.25 -1.3 0.3 -0.8 0.45 -0.85 0.45 -0.6 0.6 -0.65 0.7 -0.55 0.75 -0.5 1.05 -0.5 0.9 -0.3 1 -0.2 0.55 -0.05h1.7l1.25 0.15 1 0.2 0.1 -0.25 0.5 -0.95 0.45 -0.7 0.55 -0.75 0.55 -0.7 0.7 -0.75 0.3 -0.35 0.15 -0.45 0.2 -0.95 0.4 -1.3 0.4 -1 0.6 -1.15 0.6 -0.8 0.55 -0.55 0.65 -0.45 0.75 -0.35 0.7 -0.2zm27.15 29.25 -1.1 0.65 -0.9 0.5 -1.15 0.6 -1.95 0.9 0.15 1.9 0.1 0.9 0.05 0.2 0.3 -0.05 0.65 -0.3 0.85 -0.45 0.8 -0.55 0.65 -0.5 0.7 -0.6 1 -1 0.35 -0.4 0.4 -0.5 -0.05 -0.2 -0.45 -0.7 -0.25 -0.4zm3.7 10.75 -0.35 0.3 -0.35 0.4 -0.55 0.6 -0.35 0.35 -0.4 0.35 -0.5 0.45 -0.85 0.65 -0.8 0.55 -1.05 0.65 -0.4 0.2 0.05 0.3 0.45 1.05 0.75 1.6 0.55 1.2 0.35 0.7 0.2 0.05 0.15 -0.55 0.1 -0.6 0.35 -0.1 0.3 0.15 0.15 0.05v0.1l0.4 0.35 0.8 0.75 0.65 0.55 0.2 -0.05 0.4 -0.45 0.4 -0.6 0.1 -0.25 -0.35 -0.45 -1.2 -1.4 -0.15 -0.25v-0.35l0.05 -0.15 0.25 -0.1 0.8 -0.35 1.15 -0.5 0.3 -0.15 0.1 -0.1 -0.05 -1.05 -0.5 -0.1 -1.25 -0.15 -1.05 -0.1 -0.2 -0.3 0.05 -0.3 1.45 -2.2 0.15 -0.3 -0.05 -0.25 -0.15 -0.2z" fill="#213C18"/><path d="M60.15 33.3h1.2l1.25 0.15 0.85 0.25 0.95 0.4 0.95 0.6 0.5 0.45 0.5 0.55 0.45 0.7 0.3 0.7 0.2 0.65 0.15 0.9v1.25l-0.2 1.2 -0.2 0.5 -0.25 0.3 -0.2 0.55 -0.1 0.65 -0.35 0.55 -0.55 0.6 -0.05 0.1h-0.1l-0.1 0.2 -0.3 0.4 -0.45 0.45 -0.85 0.5 -1.45 0.7 -1.05 0.4 -0.9 0.35 -0.6 0.25 -1.8 0.6 -1.05 0.3 -2.1 0.55 -1.4 0.3 -0.35 0.1 0.05 0.05 1.7 -0.05 0.05 0.15 -0.2 1.4 -0.05 1.15v1.2l0.1 1.15 0.2 1 0.3 1 0.75 1.55 0.65 1.4 0.55 1.35 0.7 1.85 0.5 1.6 0.4 1.45 0.3 1.25 0.35 1.9 0.2 1.65 0.1 1.5v1.35l-0.1 1.35 -0.2 1.35 -0.35 1.4 -0.45 1.35 -0.4 0.8 -0.2 0.3 -0.45 0.7 -0.4 0.65 -0.25 0.4 -0.35 0.15 -1.35 0.3 -0.8 0.15 -1.75 0.25 -2.2 0.15h-1.8l-1.35 -0.05 -1.6 -0.15 -1.2 -0.25 -1.15 -0.3 -0.85 -0.3 -0.5 -0.2 -0.8 -0.4 -0.9 -0.5 -0.7 -0.45 -0.5 -0.4 -0.6 -0.55 -0.5 -0.5 -0.2 -0.25v-0.1h-0.1l-0.1 -0.25h-0.1l-0.35 -0.55 -0.55 -0.95 -0.4 -0.9 -0.3 -0.9 0.05 -0.25 0.5 0.2 0.6 0.3 1.4 0.55 1.4 0.45 1.45 0.35 1.3 0.25 1.45 0.2 1.45 0.1h2.25l1.3 -0.1 2.1 -0.3 1.65 -0.35 1.5 -0.4 1.2 -0.4 0.35 -0.15 -0.35 0.05 -1.8 0.45 -1.6 0.35 -1.45 0.2 -1.25 0.1 -1.2 0.05h-1.7l-1.35 -0.1 -0.9 -0.1 -1 -0.15 -0.95 -0.2 -1.75 -0.45 -1.2 -0.4 -1.3 -0.55 -1.15 -0.55 -1 -0.6 -0.25 -0.2 -0.1 -0.25 -0.05 -0.3v-2l0.2 -1.45 0.4 -1.8 0.35 -1.45 0.15 -0.25 0.6 0.05 1.65 0.35 2 0.3 2.15 0.25 1.1 0.05h4.45l1.45 -0.1 1.35 -0.15 1.75 -0.25 1.15 -0.2 1.4 -0.3 0.6 -0.15 -0.8 0.1 -1.95 0.3 -1.9 0.2 -1.25 0.1 -1.4 0.05h-2l-1.8 -0.1 -1.55 -0.15 -2.1 -0.3 -2.05 -0.4 -2.4 -0.6 -0.2 -0.1v-0.4l0.4 -1.6 0.45 -1.7 0.6 -2.15 0.4 -1.3 0.05 -0.1 0.45 0.05 1.85 0.4 1.65 0.25 1.45 0.15 1.2 0.05h3.1l1.4 -0.1 1.55 -0.15 1.95 -0.3 0.55 -0.1 -0.8 0.05 -2.25 0.2h-3.8l-1.25 -0.1 -1.9 -0.25 -1.45 -0.25 -1.55 -0.35 -1.4 -0.4 -0.4 -0.15v-0.35l1.05 -3.2 0.8 -2.25 0.55 -1.35 0.1 -0.15 1.2 0.05h1.5l-0.4 -0.1 -1.15 -0.2 -1.5 -0.25 -2.85 -0.8 -1.4 -0.5 -1.4 -0.55 -0.8 -0.4 -0.5 -0.3 -0.8 -0.4 -0.85 -0.5 -0.35 -0.25 -1.5 -0.65 -1.8 -0.65 -0.95 -0.45 -0.45 -0.35 -0.2 -0.25 -0.1 -0.2v-0.35l0.25 -1.1 0.2 -0.2 0.9 -0.3 0.3 -0.05h1l0.8 0.2 0.6 0.25 0.95 0.5 0.65 0.4 0.5 0.25 0.8 0.3 1 0.25 0.55 0.1 0.15 0.25 0.65 1.35 0.35 0.55 0.35 0.35 0.3 0.15h0.55l0.5 -0.25 0.35 -0.4 0.35 -0.55 0.25 -0.55 0.4 -1.1 0.6 -0.15 1.55 -0.35 2.25 -0.6 1.35 -0.25 1.15 -0.1 1.65 -0.05 0.25 0.25 0.6 0.95 0.5 0.65 0.45 0.5 0.4 0.25 0.15 0.05h0.5l0.35 -0.2 0.35 -0.4 0.35 -0.75 0.3 -1.25 0.15 -1 0.95 -0.5 0.7 -0.45 0.45 -0.35 0.6 -0.55 0.55 -0.65 0.55 -0.95 0.55 -0.9 0.45 -0.6 0.45 -0.5 0.5 -0.5 0.7 -0.45 0.15 -0.05z" fill="#DFFD65"/><path d="m40.75 16.45 0.8 0.05 0.9 0.2 0.85 0.35 0.8 0.5 0.55 0.4 0.65 0.5 0.25 0.05 -0.05 -0.3 -0.5 -0.7 0.05 -0.15 1.1 -0.2 1 -0.15 1.65 -0.1 2 0.1 1.8 0.3 0.35 0.1 -0.1 0.2 -0.4 0.45 -0.65 0.85 -0.15 0.2v0.25l0.25 -0.05 0.65 -0.6 0.65 -0.55 0.6 -0.4 0.5 -0.3 1 -0.4 0.8 -0.25 0.8 -0.2 0.75 -0.1h1.15l0.9 0.15 0.75 0.25 0.85 0.4 0.9 0.55 0.65 0.55 0.4 0.35 0.25 0.25 0.55 0.65 0.45 0.65 0.35 0.55 0.45 0.75 0.5 0.95 0.35 0.8 0.35 0.75 0.4 0.8 0.45 0.7 0.45 0.6 0.9 1.35 0.75 1.3 0.5 0.95 0.5 1.1 0.45 1.25 0.35 1.25 0.15 1.05 0.05 0.65v1.2l-0.1 1.05 -0.2 0.75 -0.4 0.7 -0.3 0.8 -0.35 1.05 -0.45 0.75 -0.2 0.25 -0.1 0.05 -0.45 -0.05 -0.55 -0.15 -0.35 -0.05h-0.5l-0.35 0.15 -0.3 0.35 -0.15 0.15 0.1 -0.3 0.25 -0.25 0.2 -0.65 0.15 -1v-1.25l-0.2 -1.1 -0.35 -0.95 -0.4 -0.7 -0.6 -0.7 -0.35 -0.35 -0.95 -0.6 -0.7 -0.35 -1 -0.35 -0.95 -0.15 -0.55 -0.05h-1.2l-0.65 0.05 -0.3 0.1 -0.05 -0.05h-0.45l-0.75 0.25 -0.55 0.3 -0.2 0.1v0.1l-0.25 0.25 -0.35 0.4 -0.55 0.9 -0.2 0.2 -0.85 -0.5 -0.95 -0.4 -0.6 -0.15h-0.7l-0.3 0.2 -0.2 0.3 0.05 0.55 0.35 1.05 0.45 1.3v0.3l-1.25 0.5 -0.95 0.3 -1.2 0.25 -1.35 0.15h-1.15l-0.4 -0.8 -0.45 -0.7 -0.55 -0.7 -0.45 -0.4 -0.4 -0.25 -0.3 -0.1h-0.45l-0.25 0.15 -0.2 0.4 -0.45 2.25 -0.25 0.85 -0.25 0.15 -0.65 0.2 -1.45 0.35 -1.35 0.25 -0.9 0.15 -0.55 0.05h-1.65l-0.7 -0.1 -0.85 -0.2 -0.7 -0.25 -0.8 -0.4 -1.2 -0.65 -0.85 -0.4 -0.85 -0.25 -0.5 -0.1h-0.8l-0.45 0.1 -0.65 0.2 -1.3 0.5 -0.95 0.2h-0.9l-0.35 -0.05 -0.5 -0.2 -0.75 -0.45 -0.2 -0.2v-0.1l-0.2 -0.1 -0.55 -0.75 -0.4 -0.8 -0.25 -0.65 -0.2 -0.7 -0.15 -0.65 -0.05 -0.5v-1.7l0.15 -0.8 0.25 -0.85 0.4 -0.8 0.35 -0.5 0.45 -0.5 0.35 -0.35 0.65 -0.5 0.65 -0.4 1 -0.45 0.25 -0.1 0.8 -0.2 0.8 -0.1 0.75 -0.05h0.55l1.5 0.15 1.2 0.3 0.6 -0.05 1.3 -0.2 0.95 -0.1h2.25l1.1 0.15 0.9 0.2 1.05 0.35 0.95 0.5 0.55 0.4 0.5 0.45 0.45 0.5 0.4 0.65 0.3 0.65 0.15 0.45 0.2 1.3 0.05 0.4h0.05l0.05 -0.35v-1.2l-0.1 -0.85 -0.3 -0.9 -0.35 -0.65 -0.45 -0.6 -0.6 -0.6 -0.7 -0.5 -0.7 -0.4 -1 -0.4 -0.95 -0.25 -0.8 -0.15 -1.25 -0.1h-0.6l-1.15 0.05h-0.6v-0.15l0.75 -0.4 1.05 -0.4 1.25 -0.35 1.25 -0.25 1.05 -0.15 1.35 -0.1h2.15l1.45 0.1 1.25 0.2 1.2 0.25 1.3 0.35 1.05 0.35 0.95 0.4 0.8 0.4 0.9 0.5 0.7 0.5 0.55 0.45 0.4 0.4 0.25 0.15v-0.15h-0.1l-0.2 -0.3 -0.9 -1 -0.1 -0.05v-0.1l-0.2 -0.1 -0.55 -0.45 -0.9 -0.6 -1.35 -0.7 -0.7 -0.3 -1.4 -0.45 -0.75 -0.2 -1 -0.2 -1.5 -0.2 -2 -0.15 -0.05 -0.1 0.35 -0.55 0.3 -0.6 0.2 -0.65 0.05 -0.35v-0.65l-0.15 -0.6 -0.2 -0.5 -0.3 -0.4 -0.45 -0.3 -0.25 -0.1 -0.3 -0.05h-0.4l-0.4 0.1 -0.5 0.25 -0.5 0.4 -0.45 0.65 -0.25 0.5 -0.2 0.65 -0.05 0.55v0.6l0.1 0.45 0.35 0.75 -0.05 0.2 -1.25 0.25 -1.3 0.3 -1.3 0.4 -1.25 0.5h-0.15l0.1 -0.3 0.35 -0.45 0.45 -0.55 0.6 -0.65 0.55 -0.6 0.15 -0.35 0.3 -1.4 0.3 -1 0.3 -0.85 0.25 -0.55 0.2 -0.4 0.5 -0.75 0.3 -0.4 0.4 -0.35 0.2 -0.1v-0.1l0.7 -0.4 0.55 -0.2 0.75 -0.15z" fill="#57AB15"/><path d="m68.85 47.1 0.35 0.05 0.4 0.35 1 0.65 0.7 0.4 1 0.4 0.55 0.2 0.45 0.15v0.35l-0.35 0.75 -0.45 0.95 -0.25 0.4 -0.35 0.7 -0.4 0.6 -0.4 0.65h-0.1l-0.1 0.25 -0.3 0.45h-0.1l-0.1 0.2 -0.3 0.4 -0.45 0.5 -0.35 0.4 -0.45 0.5 -0.75 0.75h-0.1v0.1l-0.55 0.45 -0.55 0.5 -0.85 0.65 -0.7 0.5 -0.9 0.6 -1.05 0.65 -0.9 0.5 -0.8 0.45 -0.1 0.15 0.75 -0.2 1.6 -0.55 0.4 -0.15 0.2 0.05 0.25 0.5 0.65 1.4 0.55 1.15 0.45 1.05 0.25 0.55 0.3 0.85 0.3 0.95 0.25 1.1 0.2 0.8 0.2 0.75 0.15 0.4 0.1 -0.2 0.15 -0.65 0.1 -0.65 0.45 -0.3 0.7 -0.45 0.55 -0.4 0.7 -0.55 0.55 -0.55 0.05 -0.1h0.1l0.1 -0.2 0.5 -0.65 0.45 -0.7 0.5 -1.05 0.3 -0.9 0.2 -1 0.05 -0.4v-1.5l-0.15 -1.05 -0.25 -1v-0.15h-0.1l-0.25 -0.75 -0.3 -0.6 -0.4 -0.85 -0.45 -0.75 0.05 -0.3 0.6 -0.85 0.2 -0.25 0.2 -0.05 1.15 0.5 0.75 0.4 1.25 0.85 0.7 0.6 0.15 0.1v0.1l0.2 0.1 0.55 0.55 0.9 1.1 0.4 0.55 0.5 0.75 0.6 1.1 0.5 1.1 0.35 0.75 0.45 1.35 0.35 1.45 0.25 1.75 0.05 1.4 -0.05 0.25 -0.3 -0.05 -0.35 -0.15 0.4 0.8 0.15 0.45 0.05 0.25v0.6l-0.2 1.25 -0.4 1.4 -0.5 1.25 -0.2 0.35 -0.25 -0.2 -0.3 -0.5 -0.25 -0.3 -0.25 -0.15 0.4 1.2 0.05 0.3v0.65l-0.2 0.5 -0.4 0.55 -0.5 0.65 -0.45 0.5 -1 1 -0.7 0.55 -0.25 0.15 -0.25 -0.05 -0.1 -0.45 -0.1 -0.85 -0.2 -0.6 -0.1 -0.1 -0.05 1.5 -0.2 1 -0.15 0.3 -0.65 0.4 -0.8 0.4 -1.1 0.5h-0.35l-0.05 -0.15 0.2 -0.5 0.25 -0.6 0.35 -1.2 0.15 -0.95 0.1 -1.2v-0.45l-0.2 -0.4 -0.4 -0.25 -0.15 -0.05 -1 -0.05 -0.25 -0.25 -0.3 -0.5 -0.4 -0.55v-0.1h-0.1l-0.1 -0.25h-0.1l-0.45 -0.6 -0.45 -0.45v-0.1h-0.1l-0.35 -0.4 -0.35 -0.35 -0.55 -0.45 -0.75 -0.55 -0.55 -0.4 -1.1 -0.6h-0.3l0.55 0.35 0.5 0.35 0.55 0.35 0.25 0.25 0.65 0.55 0.2 0.25 0.4 0.35 0.5 0.6 0.4 0.55 0.5 0.75 0.4 0.75 0.3 0.65 0.1 0.35 -0.05 0.2 -0.2 0.05 -0.45 -0.85v-0.15l-0.2 -0.1 -0.15 -0.2 -0.15 -0.05v-0.1l-0.2 -0.05h-0.75l-0.35 0.2 -0.5 0.4 -0.35 0.4 -0.05 0.1h-0.1l-0.1 0.3h-0.1l-0.05 0.15 -0.2 0.05 -0.45 -0.35 -0.25 -0.3 -0.55 -0.35 -0.3 -0.1h-0.35l-0.55 0.15v0.1l-0.15 0.15 -0.2 0.5 -0.2 0.7 -0.1 0.75 -0.05 1.1 -0.2 0.2h-1.65l-0.75 0.1 -0.35 0.25 -0.2 0.35v0.7l0.25 0.65 0.3 0.5 0.25 0.45 0.5 0.65 0.05 0.25 -0.45 0.05 -1.6 -0.25 -1.05 -0.25 -0.35 -0.15 -0.85 -0.25 -0.5 -0.15 -1.5 0.3 -0.7 0.15 -2 0.3 -1.1 0.1 -0.95 0.05h-2.95l-1.6 -0.15 -1.2 -0.2 -1.4 -0.35 -1.3 -0.45 -1.25 -0.6 -0.85 -0.5 -0.85 -0.6 -0.65 -0.55 -0.85 -0.85 -0.35 -0.45v-0.1h0.1l0.1 0.25h0.1l0.4 0.5 0.7 0.7 0.5 0.4 0.5 0.35 1.1 0.65 0.75 0.4 0.35 0.15 1.25 0.45 0.75 0.2 1.15 0.25 0.45 0.1 1.75 0.15 1.2 0.05h1.9l2.1 -0.15 1.75 -0.25 1.45 -0.3 0.85 -0.2 0.2 -0.1 0.4 -0.7 0.6 -0.95 0.2 -0.25 0.4 -0.8 0.4 -1.1 0.4 -1.5 0.2 -1.15 0.1 -0.9 0.05 -0.9v-1.35l-0.1 -1.5 -0.25 -1.95 -0.35 -1.8 -0.5 -2 -0.55 -1.75 -0.35 -1 -0.65 -1.7 -0.65 -1.5 -0.8 -1.65 -0.35 -0.8 -0.3 -1.05 -0.15 -0.8 -0.1 -1.15v-1.2l0.05 -1.15 0.2 -1.5 -1.7 0.05 -0.1 -0.1 0.4 -0.15 0.15 0.05h-0.1v0.1l1.85 -0.1 1.6 -0.25 1.45 -0.3 1.5 -0.4 1.15 -0.35 0.25 0.05 0.05 0.15 0.2 1.95v0.75l-0.45 0.15 -0.85 0.15 -1.05 0.05 -0.1 0.05 0.65 0.2 0.5 0.05h0.65l1.05 -0.1 1 -0.2 0.55 -0.1 1 -0.4 0.95 -0.5 0.6 -0.4 0.6 -0.45 0.7 -0.6 0.65 -0.65 0.45 -0.55 0.05 -0.1h0.1l0.1 -0.2z" fill="#498B15"/><path d="m60.2 33.4 1.4 0.05 0.95 0.1 0.75 0.2 1 0.4 0.7 0.4 0.45 0.35 0.3 0.25 0.35 0.4 0.3 0.4 0.4 0.7 0.3 0.8 0.15 0.6 0.1 1.05v0.45l-0.1 1 -0.2 0.8 -0.4 0.65 -0.25 1 -0.25 0.45 -0.3 0.35 -0.5 0.3 -0.45 0.2 -0.85 0.25 -0.9 0.3 -1.45 0.35 -1 0.2 -1.4 0.15 -0.2 0.05 -1.05 0.1 -1 0.05 -0.35 0.05h-4.9l-0.65 -0.05 -2.5 -0.15 -2.45 -0.2 -1 -0.1 -1.65 -0.1h-0.5l-1.05 0.1 -0.55 0.1v-0.15l-0.6 0.05 -0.55 0.1 -1.6 0.15 -1.15 -0.05 -1.65 -0.3 -0.65 -0.15 -0.4 -0.1 -1.5 -0.4 -0.4 -0.1 -1.35 -0.2 -1.85 -0.65 -0.75 -0.25 -1.1 -0.55 -0.35 -0.35 -0.15 -0.25 0.05 -0.65 0.25 -0.7 0.25 -0.2 0.8 -0.25 0.25 -0.05h1.15l0.85 0.25 0.45 0.2 0.5 0.3 0.55 0.3 0.45 0.3 1.05 0.4 0.95 0.25 0.75 0.15 0.2 0.25 0.35 0.8 0.5 0.9 0.5 0.45 0.35 0.2h0.55l0.5 -0.25 0.35 -0.4 0.35 -0.55 0.25 -0.55 0.4 -1.1 0.6 -0.15 1.55 -0.35 2.25 -0.6 1.35 -0.25 1.15 -0.1 1.65 -0.05 0.25 0.25 0.6 0.95 0.5 0.65 0.45 0.5 0.4 0.25 0.15 0.05h0.5l0.35 -0.2 0.35 -0.4 0.35 -0.75 0.3 -1.25 0.15 -1 0.95 -0.5 0.7 -0.45 0.45 -0.35 0.6 -0.55 0.55 -0.65 0.55 -0.95 0.55 -0.9 0.45 -0.6 0.45 -0.5 0.5 -0.5 0.45 -0.3 0.3 -0.1z" fill="#DFFD65"/><path d="m68.85 47.1 0.25 0.05 0.15 0.2 0.1 0.15 0.55 0.4 0.55 0.35 0.15 0.15 0.15 0.6 0.05 0.4v0.9l-0.2 0.8 -0.15 0.35 -0.2 0.45 -0.35 0.6 -0.2 0.3h-0.1l-0.1 0.2 -0.15 0.2h-0.1l-0.1 0.2 -0.4 0.4 -1.4 1.1 -0.5 0.35 -0.8 0.5 -0.9 0.55 -0.85 0.45 -0.8 0.4 -0.7 0.25 -0.45 0.2 -0.85 0.25 -0.6 0.15 -1.35 0.2 -0.95 0.05 -0.1 0.05 0.05 0.25 0.3 0.7 0.5 0.8 0.4 0.55 0.45 0.5 0.5 0.35 0.65 0.4 0.35 0.05 0.15 0.15 0.1 0.45 0.05 0.55v0.9l-0.15 0.8 -0.45 1.5 -0.25 0.75 -0.2 0.85v0.95l0.3 0.6 0.05 0.15h0.1l0.45 0.55 0.5 0.45 0.45 0.5 0.35 0.4 1.1 1.65 0.25 0.5 0.3 0.5 0.2 0.35 0.15 0.25 -0.05 0.35 -0.45 0.15 -0.35 0.15 -0.25 0.25 -0.2 0.35 -0.1 0.25 -0.1 0.45 -0.15 0.65 -0.1 0.5 -0.1 0.9 -0.2 0.1 -1.9 0.05 -0.3 0.05v0.1l-0.3 0.1v0.1h-0.1l-0.1 0.25 -0.15 0.35 0.05 0.85 -0.05 0.15 -0.35 -0.05 -0.45 -0.2 -0.85 -0.5 -0.15 -0.15 -0.25 0.05 -0.45 0.8 -0.25 0.45 -0.25 0.15 -0.25 0.35 -0.35 0.15 -1.25 0.25 -0.2 -0.05 1.5 -0.35 0.2 -0.1 0.4 -0.7 0.6 -0.95 0.2 -0.25 0.4 -0.8 0.4 -1.1 0.4 -1.5 0.2 -1.15 0.1 -0.9 0.05 -0.9v-1.35l-0.1 -1.5 -0.25 -1.95 -0.35 -1.8 -0.5 -2 -0.55 -1.75 -0.35 -1 -0.65 -1.7 -0.65 -1.5 -0.8 -1.65 -0.35 -0.8 -0.3 -1.05 -0.15 -0.8 -0.1 -1.15v-1.2l0.05 -1.15 0.2 -1.5 -1.7 0.05 -0.1 -0.1 0.4 -0.15 0.15 0.05h-0.1v0.1l1.85 -0.1 1.6 -0.25 1.45 -0.3 1.5 -0.4 1.15 -0.35 0.25 0.05 0.05 0.15 0.2 1.95v0.75l-0.45 0.15 -0.85 0.15 -1.05 0.05 -0.1 0.05 0.65 0.2 0.5 0.05h0.65l1.05 -0.1 1 -0.2 0.55 -0.1 1 -0.4 0.95 -0.5 0.6 -0.4 0.6 -0.45 0.7 -0.6 0.65 -0.65 0.45 -0.55 0.05 -0.1h0.1l0.1 -0.2z" fill="#57AB15"/><path d="m72.75 53.5 1 0.4 0.95 0.5 1.25 0.85 0.7 0.6 0.15 0.1v0.1l0.2 0.1 0.55 0.55 0.9 1.1 0.4 0.55 0.5 0.75 0.6 1.1 0.5 1.1 0.35 0.75 0.45 1.35 0.35 1.45 0.25 1.75 0.05 1.4 -0.05 0.25 -0.3 -0.05 -0.35 -0.15 0.4 0.8 0.15 0.45 0.05 0.25v0.6l-0.2 1.25 -0.4 1.4 -0.5 1.25 -0.2 0.35 -0.25 -0.2 -0.3 -0.5 -0.25 -0.3 -0.25 -0.15 0.4 1.2 0.05 0.3v0.65l-0.2 0.5 -0.4 0.55 -0.5 0.65 -0.45 0.5 -1 1 -0.7 0.55 -0.25 0.15 -0.25 -0.05 -0.1 -0.45 -0.1 -0.85 -0.2 -0.6 -0.1 -0.1 -0.05 1.5 -0.2 1 -0.15 0.3 -0.65 0.4 -0.8 0.4 -1.1 0.5h-0.35l-0.05 -0.15 0.2 -0.5 0.3 -0.55 0.05 -0.1h0.1l0.2 -0.8 0.2 -1.15 0.05 -1 0.15 -0.3 1.25 -0.75 0.45 -0.3 0.3 -0.25h0.1v-0.1l0.65 -0.5 0.85 -0.8 0.45 -0.45 0.4 -0.55h0.1l0.1 -0.2 0.45 -0.6 0.65 -1.2 0.25 -0.6v-0.25h0.1l0.05 -0.35 0.15 -0.45 0.15 -0.55v-0.15l0.05 -0.5h0.1v-0.25h0.15l0.05 -0.25 0.1 -0.9 0.05 -1.4 0.05 -0.1v-0.85l-0.15 -0.45 -0.05 -0.3 -0.1 -0.1 -0.15 0.3 -0.2 1 -0.15 0.65 -0.45 0.95 -0.15 0.25 -0.05 0.1h-0.1l-0.05 0.25 -0.3 0.6 -0.2 0.25 -0.25 0.5 -0.25 0.35h-0.1l-0.1 0.25 -0.3 0.45 -0.45 0.55 -0.5 0.5 -0.55 0.35 -0.6 0.4 -0.6 0.35 -0.1 0.1 -1.2 0.45 -0.9 0.3 -1.65 0.3 -0.35 0.15h-0.55l-0.45 -0.3 -0.2 -0.35 -0.15 -0.1v-0.1l-0.15 -0.05 -0.3 -0.35 -0.1 -0.05 -0.05 -0.15 -0.25 -0.25 -0.05 -0.45 0.1 -0.75v-1l0.1 -0.3 0.8 -0.5 0.8 -0.55 0.8 -0.65 0.5 -0.5 0.05 -0.1h0.1l0.1 -0.2 0.5 -0.65 0.45 -0.7 0.5 -1.05 0.3 -0.9 0.2 -1 0.05 -0.4v-1.5l-0.15 -1.05 -0.25 -1v-0.15h-0.1l-0.25 -0.75 -0.3 -0.6 -0.4 -0.85 -0.45 -0.75 0.05 -0.3 0.6 -0.85 0.2 -0.25z" fill="#57AB15"/><path d="m34.3 70.95 0.2 0.05 0.1 1.85 0.15 1.2 0.35 1.25 0.45 1.2 0.5 1.05 0.35 0.55v0.1h0.1l0.3 0.45 0.2 0.25v0.1h0.1l0.45 0.55 0.6 0.6 0.4 0.35 0.3 0.2v0.1l0.25 0.1 0.5 0.35 1.05 0.6 0.6 0.3 0.05 0.25 -0.1 0.05 -0.9 0.05h-2.85l-1.45 -0.1 -1.6 -0.15h-1.05l-0.95 0.1 -1.8 0.3 -1.3 0.15 -1.3 0.05 -0.85 -0.05 -1.15 -0.2 -1.05 -0.35 -0.4 -0.2 -0.35 -0.15 -0.75 -0.4 -0.55 -0.4 -0.55 -0.45 -0.65 -0.6 -0.35 -0.4v-0.2l0.2 -0.05h1.05l1.3 0.15h0.5l1.15 -0.2 0.15 -0.05 -0.3 -0.15 -0.8 -0.3 -0.5 -0.3 -0.5 -0.45 -0.4 -0.45 -0.55 -0.8 -0.45 -0.85 -0.3 -0.8 -0.1 -0.3v-0.6h0.55l0.9 0.3 0.6 0.45 0.7 0.7 0.1 0.05v-0.35l-0.25 -1.05v-1l0.05 -0.3h0.1l0.05 -0.3 0.25 -0.4 0.25 0.1 0.25 0.2 0.25 0.25v0.1l0.2 0.1 0.45 0.6 0.45 0.7 0.35 0.6 0.15 0.1 0.05 -0.05 0.1 -0.6 0.3 -0.6 0.2 0.1 0.2 0.25 0.55 1.1 0.25 0.7 0.1 1.55 0.15 -0.15 0.05 -0.1h0.1l0.15 -0.5 0.45 -1 0.5 -0.85 0.55 -0.75 0.65 -0.8 0.35 -0.4 0.85 -0.85 0.7 -0.55 0.65 -0.5z" fill="#57AB15"/><path d="M60.15 33.3h1.2l1.25 0.15 0.85 0.25 0.95 0.4 0.95 0.6 0.5 0.45 0.5 0.55 0.45 0.7 0.3 0.7 0.2 0.65 0.15 0.9v1.25l-0.2 1.2 -0.2 0.5 -0.25 0.3 -0.2 0.55 -0.1 0.65 -0.35 0.55 -0.55 0.6 -0.05 0.1h-0.1l-0.1 0.2 -0.3 0.4 -0.45 0.45 -0.85 0.5 -1.45 0.7 -1.05 0.4 -0.9 0.35 -0.6 0.25 -1.8 0.6 -1.05 0.3 -2.1 0.55 -1.4 0.3 -0.35 0.1 0.05 0.05 1.7 -0.05 0.05 0.15 -0.2 1.4 -0.05 1.15h-0.05l-0.05 -0.9 -2.55 -0.45 -1.5 -0.35 -2.7 -0.75 -0.3 -0.2 -1 -0.2 -0.85 -0.1h-1.75l-1.85 -0.15h-0.35l-0.25 0.55 -0.05 -0.15 0.25 -0.5 1.2 0.05h1.5l-0.4 -0.1 -1.15 -0.2 -1.5 -0.25 -2.85 -0.8 -1.4 -0.5 -1.4 -0.55 -0.8 -0.4 -0.5 -0.3 -0.8 -0.4 -0.85 -0.5 -0.35 -0.25 -1.5 -0.65 -1.8 -0.65 -0.95 -0.45 -0.45 -0.35 -0.2 -0.25 -0.1 -0.2v-0.35l0.25 -1.1 0.2 -0.2 0.9 -0.3 0.3 -0.05h1l0.8 0.2 0.6 0.25 0.95 0.5 0.65 0.4 0.5 0.25 0.8 0.3 1 0.25 0.55 0.1 0.15 0.25 0.65 1.35 0.25 0.4 -0.05 0.1 -0.3 -0.45 -0.45 -0.85 -0.25 -0.6 -0.1 -0.1 -1.4 -0.3 -1.1 -0.4 -0.4 -0.2 -0.7 -0.45 -0.55 -0.3 -0.45 -0.2 -0.55 -0.2 -0.5 -0.1h-1.05l-0.75 0.2 -0.35 0.15 -0.15 0.1 -0.25 0.7 -0.05 0.65 0.3 0.4 0.25 0.2 1.25 0.6 1.8 0.6 0.55 0.2 1.35 0.2 1.75 0.45 0.45 0.15 0.6 0.1 1.2 0.25 0.6 0.1 1.15 0.05 2 -0.2 0.6 -0.1 0.15 0.05v0.15l0.55 -0.15 1.15 -0.1 1.4 0.05 1.3 0.1 1.55 0.15 2.8 0.2 1.15 0.05 0.75 0.05h4.6l0.35 -0.05 1 -0.05 1.05 -0.1 1.05 -0.15 0.75 -0.1 1.45 -0.3 1.15 -0.3 1.65 -0.55 0.55 -0.3 0.25 -0.25h0.1l0.35 -0.7 0.15 -0.8 0.35 -0.6 0.15 -0.25 0.15 -0.7 0.1 -1 -0.05 -1.1 -0.15 -0.85 -0.3 -0.85 -0.35 -0.65 -0.4 -0.55 -0.3 -0.3v-0.1l-0.2 -0.1 -0.4 -0.35 -0.75 -0.45 -0.8 -0.35 -0.85 -0.25 -0.6 -0.1 -0.55 -0.05 -1.4 -0.05 -0.8 0.05 -0.2 0.05 0.15 -0.15 0.15 -0.05z" fill="#AECE58"/><path d="M38.55 53.45h0.25l-0.05 0.35 -0.1 0.2 -0.1 0.55 -0.4 1.3 -0.35 1.2 -0.5 1.5 -0.2 0.8 -0.25 0.15 -0.5 -0.4 -0.15 -0.1 -0.05 0.1 0.15 0.35 0.2 0.4 0.15 0.6v0.5l-0.35 1.45 -0.4 1.7 -0.2 0.75 -0.25 1.15 -0.4 1.65 -0.35 1.65 -0.15 0.35 -1.4 1 -0.15 0.05v0.1l-0.45 0.3h-0.25l-0.35 -0.45 -0.45 -0.85 -0.1 -0.25v-0.25h0.65l0.45 0.05h0.8l-0.2 -0.5 -0.25 -0.55v-0.95l0.2 -0.5 0.25 -0.25 0.15 -0.25 0.55 -0.45 0.15 -0.35 -0.2 -0.3 -0.45 -0.3 -0.45 -0.35 -0.35 -0.25v-0.1l-0.2 -0.1 -0.55 -0.6 -0.45 -0.7 -0.35 -0.8 -0.1 -0.8v-0.45l0.15 -1.05 0.25 -0.65 0.3 -0.55 0.45 -0.65 0.6 -0.7 0.75 -0.7 0.85 -0.65 0.85 -0.6 1 -0.6 0.9 -0.5z" fill="#58AC15"/><path d="m71.85 38.85 0.25 0.05 0.25 0.25 0.35 0.45 0.25 0.55 0.25 1.05 0.1 0.6 0.15 0.15h0.4l0.35 -0.35 0.5 -0.65 0.25 -0.3 0.5 -0.4 0.1 -0.05h0.3l0.3 0.35 0.1 0.45v1.15l-0.2 1.05v0.4l0.15 0.15 0.2 0.05 0.45 -0.15 0.85 -0.45 0.5 -0.15h0.5l-0.05 0.45 -0.35 0.95 -0.5 0.95 -0.55 0.8 -0.4 0.5 -0.55 0.6 -0.15 0.15h-0.1v0.1l-0.65 0.45 -0.6 0.25 -0.25 0.05h-1.05l-0.95 -0.25 -0.55 -0.25 -0.85 -0.4 -0.5 -0.3 -0.5 -0.35 -0.45 -0.35 -0.55 -0.55 -0.2 -0.35 -0.3 -0.4 -0.45 -0.75 -0.4 -0.8 -0.2 -0.65 0.05 -0.45 0.05 -0.1h0.4l0.85 0.3 0.6 0.4 0.4 0.35 0.1 0.05 1.4 0.05 0.5 0.15 0.7 0.35 0.25 0.15 -0.1 -0.25 -0.55 -0.5 -0.55 -0.35 -0.45 -0.2 -0.35 -0.05 -0.1 -0.1 0.05 -0.6 0.25 -1.3 0.25 -0.95 0.3 -0.75z" fill="#57AB15"/><path d="m79.05 59.05 0.2 0.2 0.45 0.8 0.25 0.7 0.1 0.3 0.15 1.35 0.25 0.2v-0.1l0.2 -0.1 0.1 -0.15 0.2 0.4v0.1h0.1l0.2 0.65 0.35 1.45 0.25 1.75 0.05 1.4 -0.05 0.25 -0.3 -0.05 -0.35 -0.15 0.4 0.8 0.15 0.45 0.05 0.25v0.6l-0.2 1.25 -0.4 1.4 -0.5 1.25 -0.2 0.35 -0.25 -0.2 -0.3 -0.5 -0.25 -0.3 -0.25 -0.15 0.4 1.2 0.05 0.3v0.65l-0.2 0.5 -0.4 0.55 -0.5 0.65 -0.45 0.5 -1 1 -0.7 0.55 -0.25 0.15 -0.25 -0.05 -0.1 -0.45 -0.1 -0.85 -0.2 -0.6 -0.1 -0.1 -0.05 1.5 -0.2 1 -0.15 0.3 -0.65 0.4 -0.8 0.4 -1.1 0.5h-0.35l-0.05 -0.15 0.2 -0.5 0.3 -0.55 0.05 -0.1h0.1l0.2 -0.8 0.2 -1.15 0.05 -1 0.15 -0.3 1.25 -0.75 0.45 -0.3 0.3 -0.25h0.1v-0.1l0.65 -0.5 0.85 -0.8 0.45 -0.45 0.4 -0.55h0.1l0.1 -0.2 0.45 -0.6 0.65 -1.2 0.25 -0.6v-0.25h0.1l0.05 -0.35 0.15 -0.45 0.15 -0.55v-0.15l0.05 -0.5h0.1v-0.25h0.15l0.05 -0.25 0.1 -0.9 0.05 -1.4 0.05 -0.1v-0.85l-0.15 -0.45 -0.05 -0.3 -0.1 -0.1 -0.15 0.3 -0.2 1 -0.15 0.65 -0.45 0.95 -0.15 0.25 -0.05 0.1h-0.1l-0.05 0.25 -0.3 0.6 -0.2 0.25 -0.25 0.5 -0.25 0.35h-0.1l-0.1 0.25 -0.3 0.45 -0.45 0.55 -0.5 0.5 -0.55 0.35 -0.6 0.4 -0.6 0.35 -0.1 0.1 -1.2 0.45 -0.9 0.3 -1.65 0.3 -0.35 0.15h-0.55l-0.45 -0.3 -0.05 -0.15 0.15 0.05v0.1l0.2 0.05h0.7l0.85 -0.2 0.6 -0.1 0.05 -0.05 0.5 -0.1 0.7 -0.15v-0.1l0.65 -0.2 0.45 -0.15 0.5 -0.3 0.55 -0.3 0.25 -0.15 0.15 -0.15h0.15l0.05 -0.15 0.3 -0.2 0.65 -0.65 0.3 -0.35 0.25 -0.35h0.1l0.1 -0.25 0.45 -0.75 0.35 -0.7 0.25 -0.55 0.25 -0.6 0.15 -0.6 0.2 -0.7 0.25 -1.3 0.15 -1.2v-0.55l0.05 -0.9 -0.05 -0.5 -0.2 -0.45 -0.5 -0.9z" fill="#4E9718"/><path d="M68.8 75.75h0.25l0.15 0.25 0.25 0.65 0.15 0.55 0.15 1.2 0.15 0.15h0.65l0.1 -0.45 0.4 -0.7 0.4 -0.45 0.55 -0.4h0.3l0.1 0.1v0.85l-0.2 1.35 -0.35 1.15 -0.4 0.8 -0.3 0.45 -0.45 0.5 -0.2 0.25 -0.2 0.05v0.1l-0.85 0.6 -0.8 0.4 -0.75 0.3 -0.8 0.2 -0.9 0.05 -0.9 -0.05 -0.95 -0.25 -0.45 -0.2 -0.6 -0.35 -0.5 -0.4 -0.4 -0.4 -0.45 -0.65 -0.35 -0.6 -0.25 -0.55v-0.25l0.3 -0.1h1.45l0.65 0.1 0.1 0.05 0.8 0.05 0.95 0.35 -0.1 -0.3 -0.2 -0.1 -0.25 -0.25 -0.45 -0.4 -0.1 -0.2v-1.35l0.15 -0.9 0.1 -0.35h0.1l0.05 -0.3h0.25l0.5 0.45 0.4 0.35 0.4 0.65 0.2 0.35 0.25 0.1h0.25l0.15 -0.05 0.1 -0.45 0.35 -0.8 0.3 -0.45 0.45 -0.5z" fill="#58AC15"/><path d="M55.2 21.1h1l0.75 0.25 0.55 0.4 0.3 0.25 0.45 0.65 0.2 0.35 0.2 0.5 0.15 0.45 0.1 0.7v1.15l-0.15 0.8 -0.35 0.95 -0.35 0.65 -0.45 0.55 -0.35 0.35 -0.65 0.4 -0.5 0.2 -0.2 0.05h-1l-0.75 -0.25 -0.6 -0.4 -0.35 -0.35 -0.45 -0.7 -0.3 -0.75 -0.15 -0.55 -0.1 -0.7v-0.85l0.15 -0.95 0.25 -0.75 0.4 -0.8 0.4 -0.55 0.5 -0.45 0.65 -0.4z" fill="#213C19"/><path d="m34.3 70.95 0.2 0.05 0.1 1.85 0.15 1.2 0.35 1.25 0.45 1.2 0.5 1.05 0.35 0.55v0.1h0.1l0.3 0.45 0.2 0.25v0.1h0.1l0.45 0.55 0.6 0.6 0.4 0.35 0.3 0.2v0.1l0.25 0.1 0.5 0.35 1.05 0.6 0.6 0.3 0.05 0.25 -0.1 0.05 -0.9 0.05h-2.85l-1.45 -0.1 -1.6 -0.15h-1.05l-0.95 0.1 -1.8 0.3 -1.3 0.15 -1.3 0.05 -0.85 -0.05 -1.15 -0.2 -1.05 -0.35 -0.4 -0.2 -0.35 -0.15 -0.75 -0.4 -0.55 -0.4 -0.55 -0.45 -0.65 -0.6 -0.25 -0.25 0.05 -0.1 0.35 0.3 0.45 0.15 -0.05 0.2 0.2 0.05 0.3 0.15v0.15l0.25 0.1 0.05 0.1 0.15 0.05v0.1l0.2 0.1 0.2 0.15 0.2 0.05v0.1l0.45 0.15 0.5 0.25 0.5 0.05v0.1l0.2 -0.05 0.35 0.05h0.5l2.2 -0.25 0.9 -0.3 0.55 -0.35 0.15 -0.1h0.15v-0.1l0.7 -0.5 0.8 -0.4 1.45 -0.55 0.25 -0.1h0.15v-0.1l0.45 -0.2 0.5 -0.3 0.3 -0.25 0.05 -0.1h0.1l0.1 -0.25 0.25 -0.45h0.1v-0.65l-0.25 -0.75 -0.15 -0.4 -0.4 -1.3 -0.1 -0.5 -0.1 -0.45 -0.1 -0.75v-0.95l-0.1 -0.15 0.15 -0.35 0.05 -0.4 -0.3 0.05z" fill="#498B15"/><path d="m36.6 65.55 0.6 0.05 1.65 0.35 1.6 0.25v0.05h-0.5l-1.2 -0.2 -1.15 -0.2 -0.6 -0.15 -0.35 -0.05 -0.15 0.45 -0.15 0.75 -0.2 0.75 -0.25 1.15 -0.2 1.15 -0.1 1.4v0.6l0.05 0.75 0.05 0.3 0.2 0.1 0.15 0.15 0.7 0.35 0.85 0.45 0.8 0.35 0.95 0.4 0.95 0.35 1.25 0.3 0.55 0.15 1.4 0.3 0.85 0.15 1.55 0.15h2.65l1.5 -0.1 1.6 -0.2 2.45 -0.5 0.8 -0.2 0.5 -0.2 0.6 -0.15h0.25v-0.1l0.6 -0.15 0.35 -0.15 0.65 -0.2 0.4 -0.05v0.15l-0.7 0.35 -0.6 0.25 -1.4 0.55 -1.4 0.45 -1.3 0.35 -2 0.4 -1.3 0.2 -1.35 0.15 -0.25 0.05h-2.6l-1.8 -0.2 -0.6 -0.1 -0.1 -0.05 -1.05 -0.15 -0.95 -0.2 -0.8 -0.2 -0.75 -0.2 -1.05 -0.35 -0.85 -0.35 -0.45 -0.2 -0.7 -0.3 -0.2 -0.1 0.15 0.6 0.35 0.9 0.3 0.55 0.5 0.8 0.5 0.65 0.45 0.55 0.8 0.8 0.4 0.3 0.75 0.4 0.7 0.15 0.75 0.15 0.3 0.1 1.3 0.2 1.6 0.15h3.5l1.6 -0.1 1.85 -0.15 1.95 -0.25 1.9 -0.3 1.6 -0.3 0.6 -0.2 0.25 -0.3 0.35 -0.75 0.35 -1 0.4 -1.55 0.15 -0.9 0.1 -0.85 0.05 -1.05v-1.4l-0.1 -1.75v-0.45h0.05l0.15 1.45 0.05 0.9v1.35l-0.1 1.35 -0.2 1.35 -0.35 1.4 -0.45 1.35 -0.4 0.8 -0.2 0.3 -0.45 0.7 -0.4 0.65 -0.25 0.4 -0.35 0.15 -1.35 0.3 -0.8 0.15 -1.75 0.25 -2.2 0.15h-1.8l-1.35 -0.05 -1.6 -0.15 -1.2 -0.25 -1.15 -0.3 -0.85 -0.3 -0.5 -0.2 -0.8 -0.4 -0.9 -0.5 -0.7 -0.45 -0.5 -0.4 -0.6 -0.55 -0.5 -0.5 -0.2 -0.25v-0.1h-0.1l-0.1 -0.25h-0.1l-0.35 -0.55 -0.55 -0.95 -0.4 -0.9 -0.3 -0.9 0.05 -0.25 0.5 0.2 0.6 0.3 1.4 0.55 1.4 0.45 1.45 0.35 1.3 0.25 1.45 0.2 1.45 0.1h2.25l1.3 -0.1 2.1 -0.3 1.65 -0.35 1.5 -0.4 1.2 -0.4 0.35 -0.15 -0.35 0.05 -1.8 0.45 -1.6 0.35 -1.45 0.2 -1.25 0.1 -1.2 0.05h-1.7l-1.35 -0.1 -0.9 -0.1 -1 -0.15 -0.95 -0.2 -1.75 -0.45 -1.2 -0.4 -1.3 -0.55 -1.15 -0.55 -1 -0.6 -0.25 -0.2 -0.1 -0.25 -0.05 -0.3v-2l0.2 -1.45 0.4 -1.8 0.35 -1.45z" fill="#AECE58"/><path d="M28 27.85h0.55l1.5 0.15 1.2 0.3 0.6 -0.05 1.3 -0.2 0.95 -0.1h2.25l1.1 0.15 0.9 0.2 1.05 0.35 0.95 0.5 0.55 0.4 0.5 0.45 0.3 0.3 -0.05 0.1 -0.6 -0.6 -0.8 -0.55 -0.8 -0.4 -0.8 -0.3 -1.25 -0.3 -0.85 -0.1 -1.35 -0.05 -0.9 0.05 -1.85 0.25 -0.1 -0.05v0.1l-0.6 0.05 -0.3 0.05h-0.35v-0.1h-0.45l-0.4 -0.15 -0.75 -0.05 -0.65 -0.1h-0.8l-0.5 0.05 -0.3 0.1 -1.3 0.2 -0.6 0.2 -1 0.55 -0.5 0.4 -0.6 0.3 -0.05 0.1h-0.1l-0.1 0.2 -0.2 0.1 -0.1 0.2 -0.45 0.5 -0.2 0.35 -0.3 0.55 -0.35 1.45 -0.05 0.5 0.05 0.2v0.85l0.2 1.15 0.15 0.45 0.2 0.7 0.1 0.05 0.05 0.2h0.1l0.2 0.3v0.1l0.15 0.05 0.2 0.25v0.1h0.1v0.1h0.15l0.1 0.15 0.85 0.4 0.7 0.2h0.9l0.9 -0.2 0.75 -0.3 0.45 -0.15h0.1v-0.1l0.7 -0.2 0.55 -0.05h0.7l1.1 0.25 0.5 0.2 0.8 0.4 0.25 0.15 0.55 0.3 0.7 0.35 1.05 0.4 0.45 0.15 0.5 0.1 0.95 0.1 0.95 -0.05 1.35 -0.15 0.85 -0.15 0.55 -0.05 0.5 -0.15 1.35 -0.25 0.6 -0.15 0.35 -0.05 0.15 -0.05 0.2 -0.95 0.15 -0.75h0.05l-0.05 0.55 -0.25 1.3 -0.25 0.85 -0.25 0.15 -0.65 0.2 -1.45 0.35 -1.35 0.25 -0.9 0.15 -0.55 0.05h-1.65l-0.7 -0.1 -0.85 -0.2 -0.7 -0.25 -0.8 -0.4 -1.2 -0.65 -0.85 -0.4 -0.85 -0.25 -0.5 -0.1h-0.8l-0.45 0.1 -0.65 0.2 -1.3 0.5 -0.95 0.2h-0.9l-0.35 -0.05 -0.5 -0.2 -0.75 -0.45 -0.2 -0.2v-0.1l-0.2 -0.1 -0.55 -0.75 -0.4 -0.8 -0.25 -0.65 -0.2 -0.7 -0.15 -0.65 -0.05 -0.5v-1.7l0.15 -0.8 0.25 -0.85 0.4 -0.8 0.35 -0.5 0.45 -0.5 0.35 -0.35 0.65 -0.5 0.65 -0.4 1 -0.45 0.25 -0.1 0.8 -0.2 0.8 -0.1z" fill="#498B15"/><path d="m78.7 72.65 0.2 0.05 0.2 0.35 0.35 0.7 0.2 0.5 0.1 0.7v0.45l-0.15 0.4 -0.2 0.3 -0.4 0.55 -0.1 0.15h-0.1l-0.1 0.2 -0.45 0.5 -0.95 0.95 -0.2 0.15h-0.1v0.1l-0.3 0.2 -0.35 0.1 -0.1 -0.1 -0.15 -0.95 -0.2 -0.65 -0.35 -0.7 -0.2 -0.15 0.05 0.55 0.05 0.35v1.2l-0.15 1 -0.25 0.45 -0.4 0.3 -0.25 0.15 -0.5 0.2 -0.65 0.3 -0.35 0.15 -0.2 -0.05 -0.05 -0.15 0.15 -0.35 0.25 -0.65 0.25 -1.1 0.1 -0.65 0.05 -0.7 0.2 -0.4 0.15 -0.05v-0.1l0.4 -0.2 0.5 -0.35 0.5 -0.15 0.3 -0.35 0.45 -0.35 0.65 -0.5 0.25 -0.3 0.35 -0.3 0.1 -0.15h0.1l0.1 -0.2 0.45 -0.5 0.35 -0.5h0.1l0.1 -0.25z" fill="#AECE58"/><path d="m71.85 38.85 0.25 0.05 0.25 0.25 0.35 0.45 0.25 0.55 0.25 1.05 0.1 0.6 0.15 0.15h0.4l0.35 -0.35 0.5 -0.65 0.25 -0.3 0.5 -0.4 0.1 -0.05h0.3l0.3 0.35 0.1 0.45v1.15l-0.2 1.05v0.4l0.15 0.15 0.2 0.05 0.45 -0.15 0.85 -0.45 0.5 -0.15h0.5l-0.05 0.45 -0.35 0.95 -0.5 0.95 -0.55 0.8 -0.4 0.5 -0.55 0.6 -0.15 0.15h-0.1v0.1l-0.65 0.45 -0.6 0.25 -0.25 0.05h-1.05l-0.95 -0.25 -0.55 -0.25 -0.85 -0.4 -0.5 -0.3 -0.5 -0.35 -0.45 -0.35 -0.55 -0.55 0.05 -0.1 0.4 0.4 0.15 0.1 0.05 -0.15 0.2 0.05 0.05 0.1 0.5 0.15 0.25 0.1 0.9 0.35 0.6 0.15 0.9 0.05 0.75 -0.1 0.35 -0.15 0.25 -0.15 0.55 -0.35 0.2 -0.1v-0.1l0.25 -0.1v-0.1h0.1v-0.1h0.1l0.1 -0.2h0.1l0.05 -0.2 0.15 -0.15 0.25 -0.4 0.2 -0.45 0.05 -0.25 -0.45 -0.05 -0.25 -0.15h-0.25l-0.35 0.15 -0.3 0.05h-0.45l-0.1 -0.25 0.15 -0.45 0.5 -1 0.15 -0.5v-0.7l-0.05 -0.1 -0.25 0.05 -0.4 0.35h-0.1l-0.05 0.2h-0.1l-0.1 0.2 -0.25 0.2 -0.15 0.1h-0.4l-0.3 -0.2 -0.15 -0.3 -0.1 -0.65 -0.15 -0.6 -0.25 -0.55 -0.1 -0.15v-0.1l-0.1 -0.05 -0.15 -0.45h-0.1l-0.1 -0.2 -0.15 -0.1z" fill="#498B15"/><path d="m61 48.05 0.25 0.05 0.05 0.15 0.2 1.95v0.75l-0.45 0.15 -0.85 0.15 -1.05 0.05 -0.1 0.05 0.65 0.2 0.5 0.05h0.65l1.05 -0.1 1 -0.2h0.25l-0.15 0.1 -0.9 0.2 -0.85 0.15h-1.4l-0.8 -0.15 -0.55 -0.15h-1.45l-2.15 -0.15h-0.2v-0.55l0.2 -1.3 -0.25 0.05 -1.55 0.05 -0.1 -0.1 0.4 -0.15 0.15 0.05h-0.1v0.1l1.85 -0.1 1.6 -0.25 1.45 -0.3 1.5 -0.4z" fill="#498B15"/><path d="M68.8 75.75h0.25l0.15 0.25 0.25 0.65 0.15 0.55 0.15 1.2 0.15 0.15h0.65l0.1 -0.45 0.4 -0.7 0.4 -0.45 0.55 -0.4h0.3l0.1 0.1v0.85l-0.2 1.35 -0.35 1.15 -0.4 0.8 -0.3 0.45 -0.45 0.5 -0.2 0.25 -0.2 0.05v0.1l-0.85 0.6 -0.8 0.4 -0.75 0.3 -0.8 0.2 -0.9 0.05 -0.9 -0.05 -0.95 -0.25 -0.45 -0.2 -0.6 -0.35 -0.5 -0.4 -0.4 -0.4 -0.45 -0.65 -0.35 -0.6 -0.25 -0.55v-0.25l0.3 -0.1h1.45l0.65 0.1 0.1 0.05 0.8 0.05 0.95 0.35 -0.1 -0.3 -0.2 -0.1 -0.25 -0.25 -0.45 -0.4 -0.1 -0.2v-1.35l0.15 -0.9 0.1 -0.35h0.05l-0.05 0.4 -0.1 0.6v0.85l0.1 0.3v0.35l0.05 0.15 0.55 0.45 0.6 0.7 0.05 0.25 -0.1 0.1 -0.4 -0.05 -0.35 -0.15 -0.4 -0.2 -0.2 -0.05h-0.65l-0.4 -0.1h-1.05l0.05 -0.1 -1.05 -0.1 0.1 0.3 0.15 0.1 0.05 0.1 0.2 0.1 0.3 0.55 0.1 0.05 0.15 0.25 0.4 0.35v0.1l0.25 0.05 0.5 0.25 0.35 0.15 1.25 0.2h0.85l1.1 -0.2 0.35 -0.15 0.65 -0.2 0.95 -0.5 0.5 -0.35 0.65 -0.6 0.15 -0.15h0.1l0.1 -0.2 0.45 -0.55 0.2 -0.45 0.25 -0.5 0.15 -0.7 0.3 -0.6 0.05 -0.2 0.15 -0.3 0.05 -0.25 -0.4 0.15 -0.5 0.45 -0.3 0.4 -0.25 0.5 -0.1 0.45v0.1l-0.25 0.2 -0.45 0.05 -0.3 -0.15 -0.2 -0.25 -0.15 -1 -0.15 -0.8 -0.1 -0.25 -0.05 -0.5 -0.05 -0.15 -0.25 0.05h-0.15z" fill="#498B15"/><path d="M57.65 16.5h1.15l0.9 0.15 0.75 0.25 0.85 0.4 0.9 0.55 0.65 0.55 0.4 0.35 0.25 0.25 0.55 0.65 0.45 0.65 0.35 0.55 0.45 0.75 0.5 0.95 0.35 0.8 0.35 0.75 0.4 0.8 0.45 0.7 0.45 0.6 0.9 1.35 0.75 1.3 0.5 0.95 0.5 1.1 0.45 1.25 0.35 1.25 0.15 1.05 0.05 0.65v1.2l-0.1 1.05 -0.2 0.75 -0.4 0.7 -0.3 0.8 -0.35 1.05 -0.45 0.75 -0.2 0.25 -0.1 0.05 -0.45 -0.05 -0.55 -0.15 -0.35 -0.05h-0.5l-0.35 0.15 -0.3 0.35 -0.15 0.15 0.1 -0.3 0.4 -0.4h0.1l0.1 -0.2 0.9 0.05 0.65 0.15 0.1 0.05 0.3 -0.1 0.2 -0.25 0.05 -0.1h0.1l0.05 -0.2 0.3 -0.75 0.1 -0.45 0.15 -0.35 0.1 -0.25 0.2 -0.4 0.25 -0.55 0.2 -0.65 0.15 -1v-1.2l-0.15 -1.3 -0.25 -1.05 -0.1 -0.25 -0.05 -0.35 -0.15 -0.3v-0.1h-0.3l-0.2 0.4h-0.1v0.1h-0.15v0.1l-0.4 0.2 -0.35 0.05 -0.6 -0.1 -0.45 -0.25 -0.15 -0.15 -0.15 -0.3v-0.5l0.1 -0.25 0.4 -0.45 0.2 -0.1 0.7 -0.05 0.45 0.1 0.25 0.15 0.2 -0.1 -0.15 -0.45 -0.2 -0.4v-0.15h-0.1l-0.1 -0.35 -0.35 -0.6 -0.4 -0.7 -0.4 -0.65 -0.3 -0.5 -0.1 -0.25h-0.1l-0.25 -0.4 -0.45 -0.65 -0.7 -1.1 -0.3 -0.7v-0.15h-0.1l-0.25 -0.6 -0.75 -1.5 -0.3 -0.45 -0.4 -0.55 -0.15 -0.3 -0.55 -0.8 -0.4 -0.45 -0.1 -0.05v-0.1l-0.2 -0.1 -0.15 -0.1v-0.1l-0.25 -0.1v-0.1h-0.1v-0.1l-0.5 -0.25 -0.25 -0.2 -0.65 -0.3 -0.75 -0.3 -1.25 -0.25 -1.45 -0.05 -1.2 0.15 -0.45 0.1 -0.25 0.1 -0.3 0.1 -0.2 0.1h-0.15v0.1l-0.15 0.1 -0.25 0.05 -0.05 0.1 -0.35 0.1h-0.1l-0.05 0.15 -0.35 0.1 -0.15 0.05v0.1l-0.35 0.15 -1.05 0.9 -0.25 0.1h-0.3l-0.05 -0.3 0.1 -0.05 0.05 0.25 0.25 -0.05 0.65 -0.6 0.65 -0.55 0.6 -0.4 0.5 -0.3 1 -0.4 0.8 -0.25 0.8 -0.2z" fill="#498C15"/><path d="M27.45 28.35h1l1.1 0.15 1.05 0.3 0.65 0.2 0.7 -0.1 1.65 -0.25 0.7 -0.05h1.7l1.05 0.1 0.95 0.2 1 0.35 0.7 0.4 0.6 0.45 0.25 0.25v0.1l-0.3 -0.05 -0.4 -0.2 -1.3 -0.35 -1.15 -0.25 -1.2 -0.15 -1.5 -0.05 -1.15 0.05 -1.5 0.25 -0.65 0.2 -0.45 -0.05 -0.6 -0.25 -0.8 -0.25 -0.7 -0.15 -0.8 -0.1h-1.4l-0.95 0.15 -1.05 0.3 -0.5 0.15v-0.15h0.1v-0.1l0.55 -0.35 0.7 -0.35 0.8 -0.25 0.55 -0.1z" fill="#A6D270"/><path d="m73.2 57.6 0.15 0.15 0.4 0.8 0.35 1 0.2 0.9 0.1 0.75v0.75l-0.15 1 -0.2 0.85 -0.4 1.05 -0.6 1.15 -0.5 0.75 -0.5 0.7 -0.6 0.65 -0.45 0.45 -0.75 0.5 -0.75 0.35 -0.65 0.15h-0.4l-0.05 -0.1v-0.35l0.1 -0.3 0.8 -0.5 0.8 -0.55 0.8 -0.65 0.5 -0.5 0.05 -0.1h0.1l0.1 -0.2 0.5 -0.65 0.45 -0.7 0.5 -1.05 0.3 -0.9 0.2 -1 0.05 -0.4v-1.5l-0.15 -1.05 -0.25 -1z" fill="#ADCE5A"/><path d="M37.5 78h0.1l0.1 0.25h0.1l0.4 0.5 0.7 0.7 0.5 0.4 0.5 0.35 1.1 0.65 0.75 0.4 0.35 0.15 1.25 0.45 0.75 0.2 1.15 0.25 0.45 0.1 1.75 0.15 1.2 0.05h1.9l2.1 -0.15 1.75 -0.25 0.4 -0.1 0.95 -0.1 0.95 -0.2 0.35 -0.2 0.3 -0.4h0.15l0.1 -0.25 0.5 -0.95 0.2 -0.15 0.2 0.05 0.45 0.3 0.55 0.35 0.5 0.2 0.25 0.05 -0.05 -1 0.3 -0.6h0.1v-0.1l0.2 -0.1 0.15 0.05 -0.25 0.25 -0.25 0.4v0.7l0.25 0.65 0.3 0.5 0.25 0.45 0.5 0.65 0.05 0.25 -0.45 0.05 -1.6 -0.25 -1.05 -0.25 -0.35 -0.15 -0.85 -0.25 -0.5 -0.15 -1.5 0.3 -0.7 0.15 -2 0.3 -1.1 0.1 -0.95 0.05h-2.95l-1.6 -0.15 -1.2 -0.2 -1.4 -0.35 -1.3 -0.45 -1.25 -0.6 -0.85 -0.5 -0.85 -0.6 -0.65 -0.55 -0.85 -0.85 -0.35 -0.45z" fill="#498B15"/><path d="m65.1 26.9 0.7 0.05 0.5 0.15 0.55 0.35 0.1 0.2 0.2 0.1 0.1 0.3 0.15 0.35 -0.05 0.45 -0.25 0.5 -0.4 0.35 -0.75 0.35 -0.4 0.05h-0.65l-0.6 -0.25 -0.45 -0.35 -0.25 -0.3 -0.1 -0.15 -0.05 -0.35v-0.4l0.2 -0.5 0.25 -0.35 0.35 -0.25h0.15v-0.1l0.5 -0.15z" fill="#498B15"/><path d="M38.55 54.15h0.05l-0.05 0.4 -0.4 1.3 -0.35 1.2 -0.5 1.5 -0.2 0.8 -0.25 0.15 -0.5 -0.4 -0.15 -0.1 -0.05 0.1 0.15 0.35 0.2 0.4 0.15 0.6v0.5l-0.35 1.45 -0.4 1.7 -0.2 0.75 -0.25 1.15 -0.4 1.65 -0.35 1.65 -0.15 0.35 -1.4 1 -0.15 0.05v0.1l-0.45 0.3h-0.25l-0.35 -0.45 -0.45 -0.85 -0.1 -0.25 0.05 -0.15 0.05 0.2 0.5 0.05 -0.05 0.1h-0.1v0.4l0.2 0.1 0.25 0.4v0.1l0.45 -0.15 0.5 -0.4h0.15v-0.1l0.55 -0.35 0.2 -0.2h0.1l0.1 -0.25 0.2 -0.65 0.15 -0.65 0.15 -0.55 0.3 -1.55 0.35 -1.3 0.05 -0.1 0.05 -0.45 0.05 -0.25v-1.3l-0.25 -0.95 -0.2 -0.9 -0.15 -0.45 -0.2 -0.65v-0.5l0.05 -0.35 0.2 -0.15 0.35 -0.1h0.4l0.55 0.05 0.4 -0.15 0.15 -0.1h0.15l0.05 -0.25h0.1l0.05 -0.25 0.15 -0.35 0.15 -0.6h0.1v-0.4h0.1l0.05 -0.35 0.05 -0.25h0.1l0.05 -0.35 0.25 -0.75 0.1 -0.35z" fill="#498B15"/><path d="m80.7 67.8 0.3 0.25 0.45 0.7 0.2 0.55v1.2l-0.4 1.7 -0.35 1.05 -0.25 0.65 -0.15 0.15 -0.2 -0.05 -0.45 -0.6 -0.3 -0.35 -0.4 -0.35 -0.25 -0.05 -0.05 -0.35 0.35 -0.6 0.45 -1 0.25 -0.6 0.3 -0.85 0.3 -1.15z" fill="#AECE58"/><path d="m72.75 53.5 1 0.4 0.95 0.5 1.25 0.85 0.7 0.6 0.15 0.1v0.1l0.2 0.1 0.55 0.55 0.9 1.1 0.4 0.55 0.5 0.75 0.6 1.1 0.5 1.1 0.35 0.75 0.2 0.55 -0.05 0.15 -0.2 -0.4 -0.15 0.15h-0.15v0.1l-0.15 -0.05v-0.1l-0.15 -0.05 -0.15 -1.35 -0.3 -0.9 -0.35 -0.65 -0.25 -0.4 -0.25 -0.25 -0.5 -0.75 -0.45 -0.55v-0.1h-0.1l-0.25 -0.35 -0.15 -0.15v-0.1h-0.1l-0.35 -0.4 -0.55 -0.55 -0.5 -0.4 -0.1 -0.05v-0.1l-0.3 -0.1h-1l-0.55 0.15 -0.5 0.3 -0.4 0.55 -0.1 0.3v0.2l0.1 0.1 0.05 0.35 0.15 0.2 -0.05 0.25v0.25l-0.1 -0.15 -0.2 -0.6 -0.3 -0.6 -0.4 -0.85 -0.45 -0.75 0.05 -0.3 0.6 -0.85 0.2 -0.25z" fill="#498B15"/><path d="M57.4 17.15h1.4l0.6 0.1 0.9 0.35 0.6 0.35 0.6 0.45 0.75 0.7 0.4 0.4 0.35 0.5h-0.15l-0.75 -0.5 -0.7 -0.4 -0.95 -0.4 -1.05 -0.3 -0.55 -0.1 -0.65 -0.05h-1.2l-1.45 0.2 -1.15 0.3 -0.6 0.2 -0.25 0.1 -0.15 -0.05 0.2 -0.2 0.25 -0.1v-0.1l0.8 -0.55 0.75 -0.4 1.05 -0.35z" fill="#A6D270"/><path d="M38.55 53.45h0.25l-0.05 0.35 -0.2 0.4 -0.2 0.15 -0.6 0.25 -0.75 0.4 -1 0.6 -0.9 0.6 -0.7 0.55 -0.55 0.45 -0.55 0.5 -0.45 0.55 -0.1 0.15h-0.1l-0.1 0.25 -0.4 0.55 -0.4 0.85 -0.2 0.75 -0.1 0.65 -0.05 0.6 -0.2 -0.05 -0.15 -0.75v-0.45l0.15 -1.05 0.25 -0.65 0.3 -0.55 0.45 -0.65 0.6 -0.7 0.75 -0.7 0.85 -0.65 0.85 -0.6 1 -0.6 0.9 -0.5z" fill="#ADCE59"/><path d="m40.75 16.45 0.8 0.05 0.9 0.2 0.85 0.35 0.8 0.5 0.55 0.4 0.65 0.5 0.25 0.05 -0.05 -0.3 -0.5 -0.7 0.05 -0.15 1.1 -0.2 1 -0.15 1.65 -0.1 2 0.1 1.8 0.3 0.35 0.1 -0.1 0.2 -0.15 0.1v-0.2l-1 -0.2 -1.3 -0.15 -0.7 -0.05h-1.75l-2.05 0.25v0.1l-0.4 0.05 -0.1 0.3 0.25 0.4v0.35l-0.1 0.1h-0.3l-0.5 -0.3v-0.1l-0.25 -0.1 -0.2 -0.15v-0.1l-0.5 -0.25 -0.45 -0.2 -0.5 -0.25 -0.85 -0.25 -0.55 -0.1 -0.45 -0.05h-0.5l-0.8 0.1 -0.8 0.3 -0.15 0.1 -0.35 0.1 -0.65 0.55 -0.35 0.4 -0.35 0.55 -0.25 0.45h-0.1l-0.1 0.25 -0.2 0.55 -0.25 0.6 -0.2 0.6 -0.35 1.1 -0.2 0.85 -0.15 0.3 -0.4 0.45 -0.15 0.15 -0.15 0.35h-0.1v0.1h-0.1l-0.05 0.25 -0.15 0.3 0.25 -0.15 0.05 0.05h0.65l0.35 -0.05 0.05 -0.05 0.4 -0.05 0.4 -0.15 0.6 -0.1 0.3 -0.1 0.9 -0.15 0.05 -0.25 -0.25 -0.6 -0.1 -0.7v-0.5l0.05 -0.6 0.35 -0.8 0.1 -0.2h0.1v-0.2l0.15 -0.15 0.05 -0.1h0.1v-0.1h0.1l0.1 -0.2 0.4 -0.35 0.45 -0.2 0.1 -0.05h0.45v0.05l-0.4 0.1 -0.5 0.25 -0.5 0.4 -0.45 0.65 -0.25 0.5 -0.2 0.65 -0.05 0.55v0.6l0.1 0.45 0.35 0.75 -0.05 0.2 -1.25 0.25 -1.3 0.3 -1.3 0.4 -1.25 0.5h-0.15l0.1 -0.3 0.35 -0.45 0.45 -0.55 0.6 -0.65 0.55 -0.6 0.15 -0.35 0.3 -1.4 0.3 -1 0.3 -0.85 0.25 -0.55 0.2 -0.4 0.5 -0.75 0.3 -0.4 0.4 -0.35 0.2 -0.1v-0.1l0.7 -0.4 0.55 -0.2 0.75 -0.15z" fill="#498B15"/><path d="M80.65 62.85h0.3l0.15 0.4 0.1 0.25 0.3 1.55 0.15 0.8 0.1 0.95v1.15l-0.2 0.05 -0.45 -0.2 -0.25 -0.05 -0.05 0.15h-0.15l-0.15 0.35 -0.35 1.35 -0.4 1.05 -0.75 1.5 -0.1 0.15 0.05 0.3 0.25 0.1 0.2 0.15 -0.05 0.1 -0.25 -0.1 -0.1 0.15 -0.1 -0.15v-0.15l-0.3 0.05 -0.2 0.3h-0.1l-0.1 0.25 -0.6 0.7 -0.2 0.25 -0.25 0.25h-0.1l-0.1 0.2h-0.1l-0.05 0.15 -0.4 0.35 -0.55 0.45 -0.5 0.4 -0.15 0.2 -0.5 0.15 -0.5 0.35 -0.3 0.15h-0.1v0.1l-0.2 0.2 -0.1 0.25 -0.1 1.05h-0.05l0.05 -1.4 0.15 -0.3 1.25 -0.75 0.45 -0.3 0.3 -0.25h0.1v-0.1l0.65 -0.5 0.85 -0.8 0.45 -0.45 0.4 -0.55h0.1l0.1 -0.2 0.45 -0.6 0.65 -1.2 0.5 -1.2 0.45 -1.5 0.2 -0.75 0.2 -2.05v-1.25l-0.05 -0.75v-0.55z" fill="#58AC15"/><path d="m52.8 37.6 0.1 0.1 0.2 0.6v0.3l-1.25 0.5 -0.95 0.3 -1.2 0.25 -1.35 0.15h-1.15l-0.4 -0.8 -0.1 -0.25 0.3 0.05 1.75 -0.15 1.45 -0.2 1.25 -0.3 1.2 -0.35h0.15z" fill="#498B15"/><path d="M28 27.85h0.55l1.5 0.15 1.2 0.3 0.6 -0.05 1.3 -0.2 0.95 -0.1h2.25l1.1 0.15 0.9 0.2 1.05 0.35 0.95 0.5 0.55 0.4 0.5 0.45 0.3 0.3 -0.05 0.1 -0.6 -0.6 -0.8 -0.55 -0.8 -0.4 -0.8 -0.3 -1.25 -0.3 -0.85 -0.1 -1.35 -0.05 -0.9 0.05 -1.85 0.25 -0.1 -0.05v0.1l-0.6 0.05 -0.3 0.05h-0.35v-0.1h-0.45l-0.4 -0.15 -0.75 -0.05 -0.65 -0.1h-0.8l-0.5 0.05 -0.3 0.1 -1.3 0.2 -0.6 0.2 -1 0.55 -0.5 0.4 -0.6 0.3 -0.05 0.1h-0.1l-0.1 0.2 -0.2 0.1 -0.1 0.2 -0.45 0.5 -0.2 0.35 -0.3 0.55 -0.35 1.45 -0.05 0.5 0.05 0.2v0.85l0.2 1.15 0.15 0.45 0.2 0.7 0.1 0.05 0.05 0.2h0.1l0.2 0.3v0.1l0.15 0.05 0.2 0.25v0.1h0.1v0.1h0.15l0.1 0.15 0.85 0.4 0.7 0.2h0.9l0.9 -0.2 0.75 -0.3 0.05 -0.05h0.3l-0.15 0.15 -0.65 0.25 -0.65 0.2 -0.25 0.05 -0.4 0.1h-0.5l-0.95 -0.2 -0.8 -0.3 -0.05 -0.15 -0.2 -0.1 -0.35 -0.25 -0.25 -0.3v-0.1h-0.1l-0.05 -0.2h-0.1l-0.2 -0.4v-0.15h-0.1l-0.3 -0.8 -0.25 -1.25 -0.05 -1 0.05 -0.8 0.15 -0.8 0.3 -0.8 0.1 -0.5 0.45 -0.7 0.55 -0.6 0.6 -0.55 0.75 -0.5 0.8 -0.4 0.7 -0.3 0.8 -0.2 0.8 -0.1z" fill="#498C15"/><path d="M56.05 65.35h0.3l-0.1 0.1 -1.45 0.35 -1.4 0.25 -1.35 0.2 -1.55 0.2 -1.05 0.1h-4.25l-1.5 -0.15 -1.5 -0.1 -0.2 -0.05 -0.9 -0.05 -1.45 -0.25 -0.5 -0.15v-0.15l0.5 0.05 0.3 -0.15h0.7v0.15h0.95l1.3 0.2 1.95 0.15 2.1 0.05h2l1.4 -0.05 2.25 -0.2 1.6 -0.2z" fill="#172910"/><path d="M61.6 61.85h0.25l0.3 0.35 0.15 0.35v1.3l-0.1 0.35v0.95l-0.1 0.6 -0.1 0.15v0.5l0.15 0.35v0.3l-0.15 0.6 -0.2 0.5 0.05 1.2 0.05 0.3 0.25 0.3v0.1l0.2 0.1 0.2 0.2v0.15h0.1v0.1h0.1v0.1h0.1l0.35 0.55 0.3 0.55 0.5 0.75 0.15 0.15 0.25 0.45 0.3 0.5 0.4 0.6 0.2 0.25v0.1l0.2 0.1 0.15 0.2 -0.15 0.05 -0.1 -0.05v0.2l-0.5 0.1h-0.25l0.1 -0.1 0.3 -0.05 0.05 -0.35 -0.25 -0.45 -0.45 -0.75 -0.3 -0.6 -0.3 -0.4 -0.4 -0.6 -0.5 -0.7 -0.35 -0.35v-0.1l-0.15 -0.05 -0.35 -0.4 -0.4 -0.35 -0.25 -0.3v-0.1h-0.1l-0.25 -0.45 -0.15 -0.3v-0.95l0.2 -0.85 0.5 -1.55 0.25 -0.9 0.1 -0.7v-0.8l-0.05 -0.7 -0.15 -0.35z" fill="#4E9719"/><path d="M34.25 71.05h0.2v0.4l-0.2 0.3 -0.4 0.35 -1.6 1.6 -0.05 0.1h-0.1l-0.1 0.2 -0.45 0.55 -0.4 0.55 -0.5 0.8 -0.5 0.85 -0.25 0.45 -0.4 0.8 -0.25 0.65 -0.15 0.4 -0.2 -0.05v-0.8l0.3 -0.85 0.5 -1.15 0.35 -0.7 0.45 -0.7 0.4 -0.55 0.65 -0.8 0.35 -0.4 0.85 -0.85 1.4 -1.1z" fill="#ADCE5A"/><path d="M64.75 76.6h0.05l-0.05 0.4 -0.1 0.6v0.85l0.1 0.3v0.35l0.05 0.15 0.55 0.45 0.6 0.7 0.05 0.25 -0.1 0.1 -0.4 -0.05 -0.35 -0.15 -0.4 -0.2 -0.2 -0.05h-0.65l-0.4 -0.1h-1.05l0.05 -0.1 -1.05 -0.1 0.1 0.3 0.15 0.1 0.05 0.1 0.2 0.1 0.3 0.55 0.1 0.05 0.15 0.25 0.4 0.35v0.1l0.25 0.05 0.5 0.25 0.35 0.15 1.25 0.2h0.85l1.1 -0.2 0.35 -0.15 0.65 -0.2 0.95 -0.5 0.5 -0.35 0.65 -0.6 0.15 -0.15h0.1l0.1 -0.2 0.45 -0.55 0.2 -0.45 0.25 -0.5 0.15 -0.7 0.3 -0.6 0.05 -0.2 0.1 -0.25 0.15 0.05 -0.35 1.05 -0.1 0.45 -0.15 0.35 -0.1 0.4 -0.45 0.9h-0.1l-0.05 0.25 -0.45 0.6h-0.1v0.1l-0.7 0.5 -0.7 0.45 -0.75 0.3 -1.45 0.4 -1.2 0.2h-0.65l-0.5 -0.1 -0.35 -0.15 -0.8 -0.3v-0.1l-0.2 -0.05 -0.4 -0.3v-0.15h-0.15l-0.15 -0.15 -0.15 -0.2v-0.1h-0.1l-0.1 -0.25h-0.1l-0.4 -0.55 -0.25 -0.3v-0.25l0.3 -0.1h1.45l0.65 0.1 0.1 0.05 0.8 0.05 0.95 0.35 -0.1 -0.3 -0.2 -0.1 -0.25 -0.25 -0.45 -0.4 -0.1 -0.2v-1.35l0.15 -0.9z" fill="#4E9718"/><path d="M55.1 22h0.5l0.35 0.2 0.1 0.2h0.1l0.15 0.35v0.55l-0.2 0.6h-0.1l-0.1 0.25 -0.05 0.15 -0.55 0.4 -0.2 0.05v0.1l-0.4 0.1 -0.35 -0.1 -0.3 -0.25v-0.1h-0.1l-0.1 -0.2 -0.05 -0.65 0.05 -0.45 0.25 -0.5 0.4 -0.45 0.4 -0.2z" fill="#FAFBF7"/><path d="M32.45 44.5h0.4l0.95 0.2 1.2 0.35 1.5 0.35 0.85 0.15 0.7 0.05h0.6l1.25 -0.1 1 -0.15h0.3l-0.15 0.25 -0.75 0.35 -0.8 0.25 -1.05 0.15h-1.1l-1 -0.15 -1.45 -0.45 -1.25 -0.5 -0.75 -0.35 -0.5 -0.3z" fill="#223D18"/><path d="m60.55 29.2 0.5 0.05 0.5 0.2 0.45 0.4 0.15 0.4v0.3l-0.2 0.4 -0.25 0.25 -0.3 0.25 -0.45 0.1h-0.6l-0.55 -0.3 -0.35 -0.35 -0.1 -0.3v-0.45l0.2 -0.4 0.4 -0.35z" fill="#498B15"/><path d="M40.5 16.75h0.5l0.85 0.1 0.9 0.3 0.7 0.45 0.65 0.55 0.45 0.55 0.15 0.35 -0.1 0.05 -0.8 -0.55 -0.55 -0.3 -0.8 -0.4 -0.95 -0.3 -0.35 -0.05h-1.05l-0.75 0.15 -0.75 0.3 -0.65 0.4 -0.45 0.4 -0.2 0.05 0.05 -0.25 0.45 -0.55 0.4 -0.4 0.4 -0.3 0.65 -0.3 0.7 -0.2z" fill="#A5D271"/><path d="M81.8 66.6h0.05l0.05 1.4 -0.05 0.25 -0.3 -0.05 -0.35 -0.15 0.4 0.8 0.15 0.45 0.05 0.25v0.6l-0.2 1.25 -0.4 1.4 -0.5 1.25 -0.2 0.35 -0.25 -0.2 -0.3 -0.5 -0.25 -0.3 -0.25 -0.15 0.4 1.2 0.05 0.3v0.65l-0.2 0.5 -0.4 0.55 -0.5 0.65 -0.45 0.5 -1 1 -0.7 0.55 -0.25 0.15 -0.25 -0.05 -0.1 -0.45 -0.1 -0.85 -0.2 -0.6 -0.1 -0.1 -0.05 1.5 -0.2 1 -0.15 0.3 -0.65 0.4 -0.8 0.4 -1.1 0.5h-0.35l-0.05 -0.15 0.2 -0.5 0.3 -0.55 0.05 -0.1h0.1l0.2 -0.8 0.15 -0.75h0.05l-0.05 0.55 -0.2 0.85 -0.3 0.75 -0.1 0.3 0.05 0.1 0.25 -0.05 0.6 -0.25 0.6 -0.3 0.35 -0.15 0.45 -0.3 0.25 -0.45 0.15 -1v-1.2l-0.1 -0.8 0.05 -0.1 0.2 0.1 0.3 0.55 0.25 0.65 0.15 0.7 0.05 0.45 0.15 0.05 0.25 -0.1 0.2 -0.15h0.1v-0.1l0.45 -0.35 1.1 -1.1 0.25 -0.35h0.1l0.1 -0.2 0.4 -0.55 0.25 -0.45 0.05 -0.2v-0.45l-0.1 -0.7 -0.2 -0.5 -0.35 -0.7 0.05 -0.25 0.35 0.15 0.25 0.25 0.4 0.45 0.2 0.25v0.1l0.25 -0.05 0.25 -0.6 0.3 -0.8 0.2 -0.75 0.3 -1.3v-1.2l-0.25 -0.6 -0.3 -0.5 -0.2 -0.25v-0.2l0.35 0.05 0.45 0.15h0.15z" fill="#4C9416"/><path d="m70.5 48.3 0.2 0.1 0.2 0.4 0.1 0.9 -0.05 0.7 -0.15 0.65 -0.3 0.8 -0.15 0.35h-0.1l-0.1 0.25 -0.5 0.7 -0.4 0.45h-0.1v0.1l-0.55 0.45 -0.55 0.6h-0.1v0.1h-0.1v0.1l-0.55 0.35 -0.5 0.3 -0.45 0.35 -0.65 0.4 -0.4 0.15 -0.3 0.15 -0.15 0.15 -0.45 0.15 -0.45 0.25 -0.45 0.15 -0.65 0.25 -0.75 0.2 -0.4 0.1 -0.95 0.25 -1 0.15 -0.65 0.05 -0.2 0.05 0.1 0.35 0.25 0.5 0.15 0.45v0.2h0.1l0.25 0.4v0.1h0.1l0.35 0.45v0.1l0.2 0.1 0.25 0.2v0.1h0.15l0.2 0.2 0.15 0.05v0.1h0.1v0.1l-0.2 -0.1 -0.45 -0.25 -0.25 -0.2 -0.4 -0.35 -0.5 -0.6 -0.55 -0.9 -0.35 -0.7 -0.1 -0.25 0.05 -0.2 0.1 -0.05 0.95 -0.05 1.35 -0.2 1.1 -0.3 0.75 -0.25 0.6 -0.25 0.9 -0.4 0.4 -0.25 0.5 -0.25 1 -0.6 0.7 -0.45 0.75 -0.55 1 -0.8 0.5 -0.45 0.25 -0.25 0.25 -0.35h0.1l0.1 -0.25 0.3 -0.45 0.2 -0.35 0.3 -0.8 0.15 -0.65v-0.9l-0.15 -0.8z" fill="#4E9719"/><path d="M74 62.15h0.05v0.45l-0.2 1 -0.15 0.45 -0.1 0.4 -0.4 0.8 -0.25 0.45 -0.25 0.4 -0.3 0.4 -0.15 0.15 -0.1 0.25 -0.25 0.35 -0.2 0.2 -0.2 0.3 -0.4 0.4h-0.2v0.1l-0.4 0.35 -0.15 0.05v0.1l-0.65 0.3 -0.5 0.2 -0.55 0.05 -0.1 -0.05v-0.35l0.4 -0.25 0.5 -0.3 0.8 -0.55 0.3 -0.25h0.1v-0.1l0.2 -0.05v-0.1l0.3 -0.25h0.1v-0.1h0.1v-0.1l0.35 -0.3 0.25 -0.25 0.2 -0.1 0.05 -0.2 0.3 -0.4 0.2 -0.35 0.1 -0.15h0.1l0.15 -0.5 0.2 -0.45 0.15 -0.35 0.15 -0.4 0.15 -0.6h0.1l0.1 -0.6z" fill="#E0FE66"/><path d="m42.5 57.25 0.4 0.05 1 0.05 2.4 0.3 0.75 0.05h3.8l2.25 -0.2 0.4 -0.05h0.55l-0.15 0.1 -1.75 0.3 -1.15 0.15 -1.25 0.05 -0.55 0.05h-3.25l-1.3 -0.1 -1.05 -0.05 -0.55 -0.1 -0.7 -0.05 -0.4 -0.1v-0.1h-0.6l-0.1 -0.2 0.05 -0.1h0.1l0.05 0.1 0.65 0.1h0.15l0.1 -0.2z" fill="#172A10"/><path d="M68.65 34.15h0.65l0.45 0.2 0.35 0.4 0.1 0.35v0.35l-0.35 0.5 -0.45 0.3 -0.35 0.05 -0.6 -0.1 -0.45 -0.25v-0.1l-0.15 -0.05 -0.15 -0.45v-0.35l0.2 -0.4 0.2 -0.1v-0.1l0.35 -0.2z" fill="#498B15"/><path d="M37.2 32.25h0.5l0.3 0.15 0.25 0.35 0.1 0.35v0.5l-0.3 0.6 -0.25 0.25 -0.3 0.1h-0.45l-0.4 -0.3 -0.3 -0.4h-0.3l-0.2 0.05 -0.05 -0.15 0.5 -0.8 0.45 -0.5z" fill="#213B19"/><path d="M24.9 31.45h0.3l0.55 0.3 0.4 0.45 0.3 0.6 0.05 0.35h-0.45l-0.3 0.2 -0.35 0.3 -0.15 0.05h-0.45l-0.3 -0.15 -0.25 -0.3 -0.1 -0.25v-0.75l0.15 -0.4h0.1v-0.1h0.1l0.05 -0.15z" fill="#213B19"/><path d="M40.2 25.25h2.15l1.45 0.1 1.25 0.2 1.2 0.25 1.3 0.35 -0.2 0.05 -1 -0.25 -1.35 -0.25 -1.45 -0.2 -0.85 -0.05h-2.5l-1.45 0.1 -1.45 0.25 -0.75 0.15 -0.9 0.25 -0.4 0.25h-0.1l0.15 0.2 0.35 0.05 0.2 0.05 0.45 0.1 0.65 0.1 0.95 0.15 1.2 0.35 0.8 0.35 0.75 0.4 0.65 0.5 0.15 0.1v0.1l0.2 0.1v0.1l0.2 0.1 0.5 0.65 0.3 0.5 0.2 0.5 -0.05 0.2 -0.25 -0.6 -0.35 -0.6 -0.4 -0.5 -0.55 -0.55 -0.7 -0.5 -0.7 -0.4 -1 -0.4 -0.95 -0.25 -0.8 -0.15 -1.25 -0.1h-0.6l-1.15 0.05h-0.6v-0.15l0.75 -0.4 1.05 -0.4 1.25 -0.35 1.25 -0.25 1.05 -0.15z" fill="#498C15"/><path d="m75.3 40.65 0.2 0.05 0.15 0.45v0.55l-0.1 0.45 -0.1 0.4 -0.2 0.4 -0.1 0.25h-0.1v0.2h-0.1l0.05 0.4h1l0.25 0.1 0.45 -0.05 0.2 -0.1h0.2l0.1 0.25 -0.3 0.55 -0.3 0.45 -0.45 0.55 -0.3 0.3h-0.1l-0.1 0.2 -0.25 0.25 -0.6 0.45 -0.6 0.3 -0.95 0.25 -0.65 -0.05 -0.6 -0.1 -0.35 -0.15 -0.35 -0.1 -0.5 -0.15 -0.35 -0.1v0.1l-0.25 -0.1 -0.3 -0.2 -0.1 -0.1v-0.25l0.2 0.05 0.05 0.1 0.5 0.15 0.25 0.1 0.9 0.35 0.6 0.15 0.9 0.05 0.75 -0.1 0.35 -0.15 0.25 -0.15 0.55 -0.35 0.2 -0.1v-0.1l0.25 -0.1v-0.1h0.1v-0.1h0.1l0.1 -0.2h0.1l0.05 -0.2 0.15 -0.15 0.25 -0.4 0.2 -0.45 0.05 -0.25 -0.45 -0.05 -0.25 -0.15h-0.25l-0.35 0.15 -0.3 0.05h-0.45l-0.1 -0.25 0.15 -0.45 0.5 -1 0.15 -0.5v-0.7l-0.05 -0.1 -0.25 0.05 -0.4 0.35h-0.1l-0.05 0.2h-0.1l-0.1 0.2 -0.15 0.15 -0.1 -0.05 0.3 -0.35 0.5 -0.65h0.1l0.1 -0.2 0.15 -0.15z" fill="#4E9718"/><path d="m35.3 76.45 0.15 0.2 0.2 0.8v0.6l-0.35 0.55 -0.25 0.25h-0.1v0.1l-0.75 0.45 -0.2 0.15 -0.65 0.25 -1 0.35 -0.5 0.15 -0.9 0.45 -0.85 0.6 -0.45 0.25 -0.35 0.15 -0.9 0.2 -0.7 0.2 -0.6 0.15h-1.05l-0.3 -0.05v-0.1l-0.15 0.05 -0.6 -0.15 -0.25 -0.1v-0.05h0.5v0.1l0.2 -0.05 0.35 0.05h0.5l2.2 -0.25 0.9 -0.3 0.55 -0.35 0.15 -0.1h0.15v-0.1l0.7 -0.5 0.8 -0.4 1.45 -0.55 0.25 -0.1h0.15v-0.1l0.45 -0.2 0.5 -0.3 0.3 -0.25 0.05 -0.1h0.1l0.1 -0.25 0.25 -0.45h0.1v-0.65l-0.15 -0.45z" fill="#4E9719"/><path d="m44.5 37.7 0.2 0.05 0.4 0.35 0.5 0.55 0.5 0.75 0.15 0.3v0.2l-0.4 0.1 -1.25 0.25 -0.55 0.05 0.1 -0.85 0.1 -0.55 0.1 -0.35 0.1 -0.7z" fill="#F8FAF2"/><path d="M64.55 31.2h0.4l0.5 0.2 0.4 0.5v0.4l-0.2 0.45 -0.2 0.05v0.1l-0.25 0.15 -0.6 0.1 -0.6 -0.25 -0.25 -0.25 -0.1 -0.15v-0.55l0.25 -0.35h0.1l0.1 -0.2z" fill="#498B15"/><path d="M51.85 40.15h0.15l-0.05 0.5 -0.3 1.15 -0.4 0.75 -0.2 0.05 -0.45 -0.45 -0.6 -0.85 -0.35 -0.5v-0.15l1.4 -0.3z" fill="#F9FBF4"/><path d="M37.25 57.85h0.05v0.25l-0.15 0.25 -0.25 0.15 -0.2 0.2h-0.4l-0.65 -0.15 -0.2 0.1 -0.05 0.2 0.25 0.3 0.1 0.2 0.05 0.6 0.2 0.1 0.05 0.2h-0.1l-0.05 0.15h-0.1l0.15 0.25 0.1 0.05 0.05 0.15 -0.05 1.15 -0.1 0.3 -0.05 0.7 -0.15 0.8h-0.05l-0.05 -1.3 -0.25 -0.95 -0.2 -0.9 -0.15 -0.45 -0.2 -0.65v-0.5l0.05 -0.35 0.2 -0.15 0.35 -0.1h0.4l0.55 0.05 0.4 -0.15 0.15 -0.1h0.15l0.05 -0.25h0.1z" fill="#4E9719"/><path d="m81 63.6 0.2 0.05 0.4 1.85 0.1 0.65 0.05 0.65v1.15l-0.2 0.05 -0.5 -0.25 -0.35 -0.2 -0.05 -0.35 0.1 -0.45 0.15 -2.75z" fill="#AECE58"/><path d="M68.75 30.65h0.35l0.4 0.15 0.1 0.05v0.1h0.1l0.1 0.25h0.1v0.1h0.1l-0.05 0.5 -0.2 0.4 -0.3 0.2 -0.3 0.05h-0.7l-0.3 -0.15 -0.25 -0.25 -0.1 -0.45 0.1 -0.35 0.25 -0.25 0.25 -0.2z" fill="#498B15"/><path d="M29 40.1h0.85l0.6 0.1 1 0.4 0.9 0.5 0.85 0.5 1 0.4 0.85 0.25v0.05l-0.45 -0.05 -0.9 -0.3 -0.65 -0.3 -0.7 -0.4 -0.9 -0.5 -0.55 -0.25 -0.65 -0.2 -0.3 -0.05h-1l-0.8 0.2 -0.5 0.2 -0.2 0.7 -0.1 0.5v0.35l0.25 0.4 0.45 0.35 1.05 0.5 1.3 0.45 1 0.4 0.9 0.4 0.7 0.45 0.8 0.45 0.65 0.35 0.95 0.5 0.8 0.35 0.8 0.3 0.95 0.35 1.15 0.35 2.15 0.6 1.5 0.25 1.45 0.25 0.15 0.1 -0.05 0.05h-1.5l-0.75 -0.05v-0.05h1.35v-0.05l-0.65 -0.1 -1.8 -0.35 -2 -0.5 -1.6 -0.5 -1.5 -0.65 -1.2 -0.55 -1.1 -0.55 -0.9 -0.55 -0.7 -0.4 -0.85 -0.4 -1.3 -0.5 -1 -0.4 -0.95 -0.5 -0.45 -0.4 -0.15 -0.25v-0.55l0.2 -1 0.2 -0.25 0.8 -0.3z" fill="#4E9616"/><path d="m73.2 57.6 0.15 0.15 0.4 0.8 0.35 1 0.2 0.9 0.1 0.75v0.75l-0.15 1 -0.2 0.85 -0.4 1.05 -0.6 1.15 -0.5 0.75 -0.5 0.7 -0.6 0.65 -0.45 0.45 -0.75 0.5 -0.75 0.35 -0.15 0.05 -0.8 0.05 -0.1 -0.1 0.05 -0.15 0.05 0.1 0.5 -0.05 0.7 -0.2 0.45 -0.25 0.15 -0.05v-0.15l0.25 -0.2h0.1l0.1 -0.2h0.1v-0.1l0.25 -0.1 0.15 -0.15h0.1l0.1 -0.2 0.05 -0.15h0.1l0.1 -0.25 0.15 -0.05 0.1 -0.25 0.2 -0.25 0.1 -0.25 0.25 -0.25 0.1 -0.25h0.1l0.1 -0.25 0.15 -0.2 0.6 -1.2 0.15 -0.65 0.15 -0.5 0.15 -0.4 0.05 -0.4 0.05 -1v-0.8l-0.25 -1.05 -0.3 -0.85 -0.2 -0.1 -0.2 -0.7z" fill="#A8D169"/><path d="M26.1 41.05h0.45v0.45l-0.25 0.95 -0.2 0.5 -0.1 0.1 -0.25 -0.05 -0.45 -0.35 -0.45 -0.5 -0.5 -0.7 -0.1 -0.2v-0.15h1.35z" fill="#FDFDFD"/><path d="M53.75 75.65h0.3l-0.1 0.1 -1.2 0.35 -1.65 0.35 -2.2 0.3 -1.4 0.05h-1.8l-1.85 -0.1 -1.4 -0.2 -0.25 -0.05v-0.1h0.45l0.25 0.05v-0.1l0.2 0.05 0.05 -0.1 0.25 0.05 1.3 0.05 0.25 0.1h0.35l0.25 0.05h3.65l0.05 -0.15 1.95 -0.2 1.2 -0.2 1.2 -0.25z" fill="#213B19"/><path d="m53.15 35.7 0.4 0.05 0.6 0.2 0.45 0.2 0.55 0.3v0.1l0.2 0.05v0.2l-0.45 0.5 -0.35 0.35 -0.45 0.35h-0.2l-0.3 -0.85 -0.25 -0.7 -0.2 -0.55z" fill="#F9FBF5"/><path d="M37.5 78h0.1l0.1 0.25h0.1l0.4 0.5 0.7 0.7 0.5 0.4 0.5 0.35 1.1 0.65 0.75 0.4 0.35 0.15 1.25 0.45 0.75 0.2 1.15 0.25 0.45 0.1 1.75 0.15 1.2 0.05h1.9l2.1 -0.15 1.75 -0.25 0.4 -0.1 0.95 -0.1 0.45 -0.1 0.2 0.05 -0.6 0.2 -1 0.2 -2 0.3 -1.1 0.1 -0.95 0.05h-2.95l-1.6 -0.15 -1.2 -0.2 -1.4 -0.35 -1.3 -0.45 -1.25 -0.6 -0.85 -0.5 -0.85 -0.6 -0.65 -0.55 -0.85 -0.85 -0.35 -0.45z" fill="#4E9716"/><path d="m40.2 20 0.45 0.05 0.25 0.3 0.05 0.45 -0.2 0.45 -0.35 0.4 -0.3 0.2 -0.15 0.05h-0.35l-0.3 -0.2 -0.1 -0.2v-0.6l0.3 -0.5 0.45 -0.3z" fill="#F3F7E7"/><path d="M38.45 42.4h0.5l0.05 0.2 -0.25 0.65 -0.35 0.6 -0.35 0.4h-0.25l-0.25 -0.3 -0.1 -0.35h-0.1l-0.15 -0.25 -0.05 -0.3 -0.15 -0.05 -0.1 -0.2v-0.25l0.05 -0.05z" fill="#FBFCFA"/><path d="m68.85 47.1 0.25 0.05 0.15 0.2 -0.1 0.25 -0.7 0.75 -0.45 0.45 -0.55 0.45 -0.5 0.4 -0.85 0.55 -0.85 0.5 -1 0.45 -0.75 0.25 -0.7 0.1v-0.1l1.2 -0.4 1.15 -0.55 0.85 -0.55 0.6 -0.45 0.7 -0.6 0.65 -0.65 0.45 -0.55 0.05 -0.1h0.1l0.1 -0.2z" fill="#A7D16C"/><path d="m35.85 74.35 0.4 0.1 0.8 0.4 1 0.4 1.8 0.6 0.9 0.25 1.95 0.4 1.15 0.15 1.85 0.1h1.8l1.4 -0.05 2.2 -0.3 1.8 -0.4 1.05 -0.3 -0.35 0.05 -0.4 0.1h-0.4v-0.05l1.5 -0.35 1.4 -0.35h0.25l-0.2 0.15 -0.95 0.35 -1.6 0.45 -1.8 0.4 -1.2 0.2 -1.7 0.2 -0.75 0.05h-2.25l-1.45 -0.1 -1.75 -0.25 -1.65 -0.35 -1.3 -0.35 -1.45 -0.5 -1.4 -0.6 -0.5 -0.25 -0.05 0.2 0.35 1.05 0.5 1.05 0.4 0.65 0.2 0.3 -0.05 0.1 -0.2 -0.25 -0.7 -1.2 -0.4 -1 -0.25 -0.75v-0.25z" fill="#4E9716"/><path d="m75.35 76.45 0.2 0.1 0.3 0.55 0.25 0.65 0.15 0.7 0.05 0.45 0.15 0.05 0.25 -0.1 0.2 -0.15h0.1v-0.1l0.45 -0.35 1.1 -1.1v0.15l-1.25 1.25 -0.2 0.25 -0.6 0.45 -0.3 0.05 -0.1 -0.2 -0.15 -1.15 -0.2 -0.6 -0.1 -0.1 -0.05 1.5 -0.2 1 -0.15 0.3 -0.65 0.4 -0.8 0.4 -1.1 0.5h-0.35l-0.05 -0.15 0.2 -0.5 0.3 -0.55 0.05 -0.1h0.1l0.2 -0.8 0.15 -0.75h0.05l-0.05 0.55 -0.2 0.85 -0.3 0.75 -0.1 0.3 0.05 0.1 0.25 -0.05 0.6 -0.25 0.6 -0.3 0.35 -0.15 0.45 -0.3 0.25 -0.45 0.15 -1v-1.2l-0.1 -0.8z" fill="#4A8E15"/><path d="m66.65 42.1 0.05 0.2 -0.05 0.3v0.6l0.15 0.45 0.05 0.35 -0.15 0.25 -0.75 0.5 -0.45 0.25 -1.2 0.7 -1.6 0.8 -0.8 0.35 -1.35 0.55 -1.9 0.65h-0.25l0.15 -0.1 1.75 -0.6 0.55 -0.25 0.75 -0.3 0.7 -0.25 1.55 -0.75 0.75 -0.45 0.55 -0.55 0.3 -0.45h0.1l0.1 -0.2 0.5 -0.55 0.3 -0.5 0.15 -0.85z" fill="#498C15"/><path d="M26 79.35h0.3l0.05 0.2 -0.4 0.2 -0.7 0.2 -0.55 0.05h-2.9l-0.35 -0.3 -0.05 -0.15 0.05 -0.05h1.35l1.05 0.1h0.7l1.25 -0.2z" fill="#A5D273"/><path d="m22.35 74.6 0.1 0.05 -0.25 0.25v0.65l0.05 -0.05 0.1 0.1v0.15h0.1l0.15 0.3 0.25 0.6 0.3 0.4 0.45 0.65 0.1 0.2 0.2 0.1 0.25 0.25 0.25 0.15 0.05 0.1 0.55 0.25 0.5 0.2 0.1 0.05v0.1l0.3 0.05v0.1l0.2 0.05 -0.1 0.1 -0.75 0.15 -0.7 0.1h-0.7l-1.05 -0.1h-1.35l-0.05 0.15 -0.05 -0.25 0.2 -0.05h1.05l1.3 0.15h0.5l1.15 -0.2 0.15 -0.05 -0.3 -0.15 -0.8 -0.3 -0.5 -0.3 -0.5 -0.45 -0.4 -0.45 -0.55 -0.8 -0.45 -0.85 -0.3 -0.8 -0.05 -0.3 0.1 0.1 0.2 -0.3z" fill="#498B15"/><path d="m69.05 28.6 0.2 0.2 0.4 0.75 0.15 0.35 0.45 0.95 0.15 0.45 0.25 0.55 0.05 0.4 -0.1 -0.05 -0.1 -0.35h-0.3l-0.2 0.4h-0.1v0.1h-0.15v0.1l-0.4 0.2 -0.35 0.05 -0.6 -0.1 -0.45 -0.25 -0.15 -0.15 -0.15 -0.3v-0.5l0.1 -0.25 0.4 -0.45 0.2 -0.1 0.7 -0.05 0.45 0.1 0.25 0.15 0.2 -0.1 -0.15 -0.45 -0.2 -0.4v-0.15h-0.1l-0.1 -0.35 -0.35 -0.6zm-0.3 2.05 -0.5 0.25 -0.25 0.25 -0.15 0.2 -0.05 0.4 0.15 0.35 0.35 0.3 0.25 0.05h0.6l0.4 -0.1 0.25 -0.2 0.2 -0.55v-0.3h-0.1v-0.1h-0.1l-0.1 -0.25h-0.1v-0.1l-0.15 -0.1 -0.35 -0.1z" fill="#4E9718"/><path d="m23.15 29.9 0.05 0.15h-0.1l-0.1 0.2 -0.2 0.1 -0.1 0.2 -0.45 0.5 -0.2 0.35 -0.3 0.55 -0.35 1.45 -0.05 0.5 0.05 0.2v0.85l0.2 1.15 0.15 0.45 0.2 0.7 0.1 0.05 0.05 0.2h0.1l0.2 0.3v0.1l0.15 0.05 0.2 0.25v0.1h0.1v0.1h0.15l0.1 0.15 0.85 0.4 0.7 0.2h0.9l0.9 -0.2 0.75 -0.3 0.05 -0.05h0.3l-0.15 0.15 -0.65 0.25 -0.65 0.2 -0.25 0.05 -0.4 0.1h-0.5l-0.95 -0.2 -0.8 -0.3 -0.05 -0.15 -0.2 -0.1 -0.35 -0.25 -0.25 -0.3v-0.1h-0.1l-0.05 -0.2h-0.1l-0.2 -0.4v-0.15h-0.1l-0.3 -0.8 -0.25 -1.25 -0.05 -1 0.05 -0.8 0.15 -0.8 0.3 -0.8 0.3 -0.6 0.55 -0.7 0.3 -0.3h0.1v-0.1z" fill="#4E9719"/><path d="M55.2 21h1.1l0.45 0.1 0.65 0.35 0.25 0.15 0.2 0.2v0.15l0.15 0.05 0.15 0.2v0.1h0.1l0.15 0.35 0.25 0.4 0.1 0.4h0.1l0.05 0.5 0.1 0.35 0.05 0.6v0.5l-0.05 0.7 -0.2 0.85 -0.4 0.9 -0.3 0.5h-0.1l-0.1 0.2 -0.35 0.4 -0.45 0.35 -0.35 0.2 -0.15 -0.05 0.7 -0.45 0.4 -0.4 0.45 -0.65 0.35 -0.75 0.25 -0.8 0.1 -0.6v-1.15l-0.15 -0.85 -0.15 -0.5 -0.25 -0.5 -0.4 -0.6 -0.25 -0.3 -0.55 -0.4 -0.4 -0.2 -0.5 -0.15h-1l-0.65 0.2 -0.7 0.45 -0.4 0.35v-0.15l0.25 -0.25h0.1l0.05 -0.15 0.3 -0.2h0.15v-0.1l0.6 -0.25z" fill="#4A8E16"/><path d="m68.75 65.45 0.25 0.15 0.65 0.65 0.3 0.25 -0.05 0.15 -0.9 0.65 -0.45 0.3 -0.15 -0.05 0.05 -0.55 0.25 -1.5z" fill="#DAF864"/><path d="M64.75 76.6h0.05l-0.05 0.4 -0.1 0.6v0.85l0.1 0.3v0.35l0.05 0.15 0.55 0.45 0.6 0.7 0.05 0.25 -0.1 0.1 -0.4 -0.05 -0.35 -0.15 -0.4 -0.2 -0.2 -0.05h-0.65l-0.4 -0.1h-1.05l0.05 -0.1 -1.05 -0.1v0.35l-0.1 -0.1v-0.25l0.3 -0.1h1.45l0.65 0.1 0.1 0.05 0.8 0.05 0.95 0.35 -0.1 -0.3 -0.2 -0.1 -0.25 -0.25 -0.45 -0.4 -0.1 -0.2v-1.35l0.15 -0.9z" fill="#498D15"/><path d="M67.7 42.35h0.4l0.85 0.3 0.6 0.4 0.4 0.35 0.1 0.05 1.4 0.05 0.5 0.15 0.7 0.35 0.25 0.15 -0.1 -0.25 -0.55 -0.5 -0.55 -0.35 -0.45 -0.2 -0.35 -0.05 -0.1 -0.1 0.05 -0.2 0.05 0.15 0.3 0.05 0.2 -0.05 0.05 0.1 0.35 0.1 0.6 0.35v0.1l0.2 0.05 0.05 0.15 0.2 0.1v0.15l0.15 0.05 0.4 0.7 -0.05 0.1h-0.25v-0.1l-0.2 -0.1 -0.45 -0.3 -0.25 -0.15 -0.45 -0.2 -0.4 -0.05h-1.3l-0.3 -0.15 -0.25 -0.25 -0.25 -0.2 -0.4 -0.25 -0.5 -0.1 -0.2 -0.2 -0.45 -0.15z" fill="#4A8E16"/><path d="m71.8 38.95 0.2 0.05 -0.05 0.4 -0.2 0.65 -0.3 1.45 -0.2 1.05 -0.15 0.2 -0.25 -0.1 -0.05 -0.2 0.2 -1.2 0.25 -1.05 0.25 -0.75 0.2 -0.4z" fill="#ADCE5A"/><path d="m65.1 26.9 0.7 0.05 0.5 0.15 0.55 0.35 0.1 0.2 0.2 0.1 0.1 0.3 0.15 0.35 -0.05 0.45 -0.25 0.5 -0.4 0.35 -0.75 0.35 -0.4 0.05h-0.65l-0.6 -0.25 -0.45 -0.35 -0.25 -0.3 -0.1 -0.15 -0.05 -0.35v-0.4l0.2 -0.5 0.25 -0.35 0.35 -0.25h0.15v-0.1l0.5 -0.15zm-0.1 0.1 -0.55 0.2 -0.5 0.4 -0.2 0.35 -0.05 0.2v0.65l0.15 0.4 0.1 0.2 0.25 0.2h0.15l0.05 0.15 0.35 0.15 0.25 0.05h0.45l0.75 -0.2 0.5 -0.25 0.25 -0.25 0.25 -0.4 0.05 -0.25 -0.1 -0.5 -0.2 -0.4 -0.15 -0.05v-0.1h-0.15l-0.1 -0.2h-0.1v-0.1l-0.25 -0.1h-0.25v-0.1l-0.25 -0.05z" fill="#4E9719"/><path d="m38.75 57.25 0.45 0.05 1.85 0.4 0.6 0.1v0.05h-0.4l-1.4 -0.25 -0.75 -0.2 -0.25 -0.05 -0.25 0.8 -0.35 1.15 -0.35 1.2 -0.55 2.15 -0.35 1.4v0.3l0.1 0.05v0.1l0.4 0.05 2.05 0.5 1.3 0.3 2.4 0.4 0.35 0.05v0.05l-0.8 -0.05 -1.8 -0.3 -1.8 -0.35 -2.15 -0.55 -0.2 -0.1v-0.4l0.4 -1.6 0.45 -1.7 0.6 -2.15 0.4 -1.3z" fill="#AECE58"/><path d="m31.2 74.45 0.1 0.05 -0.5 0.75v0.05l0.35 -0.45 0.05 0.15 -0.55 0.9 -0.5 0.85 -0.25 0.45 -0.4 0.8 -0.25 0.65 -0.15 0.2h-0.1l-0.05 -0.1v-0.5l0.2 -0.55 0.05 0.2 0.05 0.05 0.3 -0.55 0.25 -0.45 -0.15 -0.05 0.2 -0.65 0.05 -0.1h0.1l0.05 -0.2 0.05 -0.15h0.1v-0.15h0.1l0.1 -0.2 0.2 -0.25 0.1 -0.25 0.35 -0.4z" fill="#A6D26F"/><path d="M57.05 16.75h1.65l0.25 0.05 0.75 0.05 0.4 0.15 0.5 0.15 0.85 0.45 0.6 0.3 0.25 0.2v0.1l0.2 0.1 0.4 0.3 0.35 0.35 -0.05 0.1 -0.15 -0.1v-0.1l-0.2 -0.1 -0.15 -0.1v-0.1l-0.25 -0.1v-0.1h-0.1v-0.1l-0.5 -0.25 -0.25 -0.2 -0.65 -0.3 -0.75 -0.3 -1.25 -0.25 -1.45 -0.05 -1.2 0.15 -0.45 0.1 -0.25 0.1 -0.3 0.1 -0.2 0.1h-0.15v0.1l-0.15 0.1 -0.25 0.05 -0.05 0.1 -0.35 0.1h-0.1l-0.05 0.15 -0.35 0.1 -0.15 0.05v0.1l-0.3 0.05 0.25 -0.25 0.45 -0.3 0.95 -0.5 1.05 -0.35 0.8 -0.15z" fill="#4E9719"/><path d="M56.45 27.3h0.3l0.25 0.2 0.1 0.2 -0.05 0.35 -0.25 0.4 -0.25 0.2 -0.2 0.1h-0.35l-0.25 -0.2 -0.05 -0.1v-0.4l0.2 -0.4 0.3 -0.25z" fill="#AECE58"/><path d="M33.85 66.15h0.3l0.25 0.15 0.05 0.15 -0.25 0.3 -0.4 0.35 -0.3 0.4 -0.25 0.6 -0.15 0.35h-0.1l-0.15 -0.35v-0.75l0.2 -0.5 0.3 -0.35 0.4 -0.3z" fill="#ADCE59"/><path d="m35.95 73.3 0.25 0.1 1.2 0.65 0.65 0.3 1.7 0.7 1.15 0.35 1.4 0.35 1.2 0.25 1 0.15 1.2 0.1 0.8 0.05h1.7l1.2 -0.05 1.25 -0.1 1.45 -0.2 0.4 -0.1h0.3l-0.15 0.1 -0.45 0.1 -1.35 0.2 -1.65 0.15h-3.45l-1.75 -0.2 -1.45 -0.25 -1.25 -0.3 -1.65 -0.5 -1.4 -0.55 -1.25 -0.6 -0.85 -0.5z" fill="#4E9716"/><path d="M24.7 31.3h0.5l0.4 0.1 0.05 0.1 0.35 0.2 0.3 0.4 0.3 0.55 0.15 0.4 -0.05 0.3 -0.3 0.05h-0.35l-0.25 0.15 -0.15 0.15 -0.3 0.15h-0.55l-0.4 -0.2 -0.2 -0.2 -0.05 -0.15 -0.1 -0.05 -0.1 -0.6 0.1 -0.6 0.25 -0.45 0.3 -0.2h0.1zm0.2 0.15 -0.4 0.2v0.1h-0.1v0.1h-0.1l-0.15 0.4v0.75l0.2 0.4 0.3 0.25 0.15 0.05h0.45l0.35 -0.2 0.35 -0.3 0.35 -0.05h0.2l-0.05 -0.35 -0.3 -0.6 -0.4 -0.45 -0.55 -0.3z" fill="#4A8E16"/><path d="M47.6 16.15h2.45l1.45 0.15 1.1 0.2 0.15 0.15h-0.4l-0.35 -0.05 -0.75 -0.05 -0.1 -0.05 -0.7 -0.05h-1.35l-0.35 -0.05 -0.25 0.05h-1.6l-0.35 -0.05 -0.05 -0.1 0.1 -0.05z" fill="#182A11"/><path d="m38.75 57.15 0.6 0.1 1.55 0.35 0.85 0.15h0.6l0.7 0.05 0.55 0.1 1.9 0.1 0.45 0.05h3.25l0.55 -0.05h0.7v0.05l-1.1 0.1 -0.9 0.05h-3.1l-1.2 -0.05 -1.8 -0.2 -1.8 -0.3 -1.8 -0.4 -0.15 0.55 -0.3 1 -0.05 -0.2 0.35 -1.15z" fill="#3B6F17"/><path d="M67.7 42.4h0.25l0.1 0.25 0.1 0.6 0.25 0.65 0.4 0.8 0.5 0.8 0.45 0.6 -0.05 0.15 -0.4 -0.35 -0.4 -0.45 -0.35 -0.5 -0.45 -0.8 -0.35 -0.7 -0.15 -0.55 0.05 -0.45z" fill="#ADCE59"/><path d="M36.55 65.45h0.35l1.1 0.25 1.65 0.3 2 0.3 2 0.15 0.85 0.05 4.05 0.05v0.05h-4.45l-1.1 -0.05 -2.15 -0.25 -2 -0.3 -1.95 -0.4h-0.3l-0.15 0.35 -0.55 2.35 -0.25 1.35 -0.1 0.85v2l0.1 0.45 0.25 0.25 0.05 0.1 -0.25 -0.1 -0.15 -0.15 -0.1 -0.5 -0.05 -1 0.05 -1.1 0.2 -1.55 0.4 -1.8 0.35 -1.4z" fill="#4B9016"/><path d="m36.25 55.25 0.05 0.1 -0.2 0.2 -0.8 0.5 -0.65 0.5 -0.8 0.65 -0.55 0.5 -0.45 0.55 -0.1 0.15h-0.1l-0.1 0.25 -0.4 0.55 -0.4 0.85 -0.2 0.75 -0.1 0.65h-0.1l-0.05 0.35 -0.1 -0.1 -0.05 -0.15v-1.2h0.05l0.05 0.55 0.1 -0.1 0.15 -0.6 0.3 -0.65 0.3 -0.55 0.35 -0.55 0.2 -0.25h0.1l0.1 -0.2 0.55 -0.6 0.4 -0.4 0.55 -0.45 0.8 -0.6 0.6 -0.4z" fill="#A8D168"/><path d="m58.25 79.85 0.25 0.05 0.45 0.3 0.55 0.35 0.5 0.2 0.25 0.05 0.05 -0.3 0.1 0.2 -0.05 0.2 -0.15 0.1 -0.45 -0.1 -0.45 -0.15 -0.9 -0.45 -0.2 0.05 -0.1 0.05 -0.05 0.2 -0.2 0.5v0.3l0.3 0.2 -0.15 0.05 -0.3 -0.1 -0.3 0.05 -0.1 -0.05v0.1l-0.25 0.05v0.1l-0.35 0.05 0.2 -0.15 0.25 -0.25 0.2 -0.25h0.15l0.1 -0.25 0.5 -0.95z" fill="#4E9719"/><path d="M68.65 34.15h0.65l0.45 0.2 0.35 0.4 0.1 0.35v0.35l-0.35 0.5 -0.45 0.3 -0.35 0.05 -0.6 -0.1 -0.45 -0.25v-0.1l-0.15 -0.05 -0.15 -0.45v-0.35l0.2 -0.4 0.2 -0.1v-0.1l0.35 -0.2zm0.25 0.05 -0.5 0.2 -0.3 0.25 -0.2 0.35v0.4l0.1 0.25 0.25 0.25 0.2 0.1 0.3 0.05h0.4l0.45 -0.15v-0.1l0.2 -0.05 0.2 -0.3v-0.5l-0.3 -0.45 -0.15 -0.15z" fill="#4E9719"/><path d="m42.05 20.35 0.15 0.1 0.25 0.8v1.15l-0.25 0.8 -0.35 0.7 -0.05 0.25 1.3 0.1 0.5 0.1 1.25 0.15 1 0.2 1.05 0.3 1.25 0.45 -0.2 0.05 -1.2 -0.4 -0.75 -0.2 -1 -0.2 -1.5 -0.2 -2 -0.15 -0.05 -0.1 0.35 -0.55 0.3 -0.6 0.2 -0.65 0.05 -0.35v-0.65l-0.15 -0.6 -0.15 -0.35z" fill="#498D15"/><path d="M32.45 44.5h0.4l0.7 0.15v0.05l-0.65 -0.05 0.15 0.15 1.3 0.55 1.8 0.6 0.6 0.15 0.9 0.1h0.95l0.8 -0.1 1.05 -0.35 0.5 -0.25 -0.3 -0.05v-0.05l0.55 -0.05 -0.15 0.25 -0.75 0.35 -0.8 0.25 -1.05 0.15h-1.1l-1 -0.15 -1.45 -0.45 -1.25 -0.5 -0.75 -0.35 -0.5 -0.3z" fill="#509B16"/><path d="m56.2 81.9 0.2 0.05 -0.6 0.2 -1 0.2 -2 0.3 -1.1 0.1 -0.95 0.05h-2.95v-0.1h2.4v-0.1l1.05 -0.05 1.4 -0.1 1.75 -0.25 0.4 -0.1 0.95 -0.1z" fill="#4D9515"/><path d="M27.45 28.35h1l1.1 0.15 1.05 0.3 -0.2 0.05 -0.9 -0.25 -0.7 -0.1h-1.5l-0.85 0.15 -0.65 0.2 -0.55 0.2 -0.2 0.15h-0.1v0.1l0.85 -0.2 0.5 -0.1 0.6 -0.05h0.85l0.7 0.05 1.1 0.25 -0.2 0.05 -0.85 -0.15 -0.45 -0.05h-1.4l-0.95 0.15 -1.05 0.3 -0.5 0.15v-0.15h0.1v-0.1l0.55 -0.35 0.7 -0.35 0.8 -0.25 0.55 -0.1z" fill="#AECE58"/><path d="m31.15 61.85 0.1 0.15 0.15 0.2 0.1 -0.2 0.1 0.6 0.2 0.25v0.1h0.1l0.05 0.2 0.2 0.2 0.25 0.3v0.1l0.15 0.05 0.25 0.3 0.2 0.15v0.1l0.2 0.05 0.1 0.1 0.2 0.1 0.25 0.25 0.25 0.15 0.35 0.4 0.05 0.25 -0.1 0.25 -0.1 0.2 -0.45 0.15 -0.3 0.25 -0.1 -0.05 0.4 -0.35 0.3 -0.25 0.1 -0.3 -0.2 -0.3 -0.45 -0.3 -0.45 -0.35 -0.35 -0.25v-0.1l-0.2 -0.1 -0.55 -0.6 -0.45 -0.7 -0.35 -0.8z" fill="#4A8E16"/><path d="M40.5 16.75h0.5l0.85 0.1 0.9 0.3 0.7 0.45 0.65 0.55 0.15 0.15 -0.05 0.1 -0.35 -0.35 -0.65 -0.5 -0.8 -0.4 -0.5 -0.15 -0.85 -0.05 -1.2 0.1 -0.35 0.1 -0.6 0.2h-0.15v0.1l-0.45 0.3 -0.1 0.15h-0.1l-0.05 0.2h-0.1v0.1l0.2 -0.05 -0.25 0.25 -0.5 0.4h-0.1l0.05 -0.25 0.45 -0.55 0.4 -0.4 0.4 -0.3 0.65 -0.3 0.7 -0.2z" fill="#AECE58"/><path d="M49.35 26.65h0.25l0.35 0.2 0.6 0.35 0.15 0.15 0.55 0.2 0.2 0.1 0.4 0.05v0.1l0.2 0.1 0.75 0.8 0.25 0.35v0.1h0.1l0.05 0.2 -0.35 -0.2 -0.5 -0.5 -0.8 -0.6 -0.65 -0.4 -1 -0.55 -0.65 -0.3v-0.1z" fill="#172A12"/><path d="m24.85 72.4 0.25 0.1 0.2 0.25 -0.1 0.3 -0.25 0.6 -0.15 0.8 -0.05 0.7 -0.15 -0.15 -0.15 -0.7v-0.8l0.1 -0.6 0.25 -0.45z" fill="#A6D16E"/><path d="m25.25 72.65 0.35 0.3v0.1l0.2 0.1 0.45 0.6 0.45 0.7 0.35 0.6 0.15 0.1 0.05 -0.05 0.1 -0.6 0.2 -0.45 0.05 0.15 -0.15 0.4v0.4l0.1 0.05 -0.15 0.5 -0.25 0.05 -0.25 -0.25 -0.3 -0.5v-0.15h-0.1l-0.4 -0.65 -0.1 -0.1v-0.15l-0.15 -0.05 -0.35 -0.45 -0.05 -0.15 -0.2 -0.1z" fill="#498C15"/><path d="M39.85 19.45h0.45v0.05l-0.4 0.1 -0.5 0.25 -0.5 0.4 -0.45 0.65 -0.25 0.5 -0.2 0.65 -0.05 0.55v0.6l0.1 0.45 0.35 0.75 -0.05 0.2 -1.25 0.25 -0.9 0.2h-0.25l0.15 -0.1h0.1v-0.1l0.5 -0.1 0.5 -0.15 0.9 -0.15 0.05 -0.25 -0.25 -0.6 -0.1 -0.7v-0.5l0.05 -0.6 0.35 -0.8 0.1 -0.2h0.1v-0.2l0.15 -0.15 0.05 -0.1h0.1v-0.1h0.1l0.1 -0.2 0.4 -0.35 0.45 -0.2z" fill="#4A8E16"/><path d="M72.95 65.65v0.15l-0.3 0.55h-0.1l-0.1 0.25 -0.35 0.55v0.25l-0.7 0.75 -0.4 0.4 -0.75 0.5 -0.75 0.35 -0.15 0.05 -0.8 0.05 -0.1 -0.1 0.05 -0.15 0.05 0.1 0.5 -0.05 0.7 -0.2 0.45 -0.25 0.15 -0.05v-0.15l0.25 -0.2h0.1l0.1 -0.2h0.1v-0.1l0.25 -0.1 0.15 -0.15h0.1l0.1 -0.2 0.05 -0.15h0.1l0.1 -0.25 0.15 -0.05 0.1 -0.25 0.2 -0.25 0.1 -0.25 0.25 -0.25 0.1 -0.25h0.1l0.1 -0.25z" fill="#A7D16A"/><path d="m34.6 24.2 0.05 0.15 -0.1 0.2h-0.1v0.1h-0.1l-0.05 0.25 -0.15 0.3 0.25 -0.15 0.05 0.05h0.65l0.35 -0.05 0.05 -0.05 0.4 -0.05 0.05 -0.05h0.25l-0.1 0.1h-0.15v0.1l-1.45 0.45 -0.55 0.2 -0.5 0.1 -0.05 -0.2 0.45 -0.6 0.5 -0.55z" fill="#4D9518"/><path d="m79.1 72.8 0.35 0.15 0.25 0.25 0.35 0.4 -0.15 0.05 -0.2 -0.25 -0.25 -0.15 0.4 1.2 0.05 0.3v0.65l-0.2 0.5 -0.4 0.55 -0.5 0.65 -0.45 0.5 -1 1 -0.1 -0.05 1.3 -1.3 0.1 -0.25 0.15 -0.2h0.1l0.1 -0.2 0.4 -0.55 0.25 -0.45 0.05 -0.2v-0.45l-0.1 -0.7 -0.2 -0.5 -0.35 -0.7z" fill="#4A8E15"/><path d="M66.5 42.9h0.05v0.45l-0.15 0.25 -0.2 0.25h-0.1l-0.1 0.2 -0.35 0.4h-0.1l-0.1 0.2 -0.95 0.95 -0.85 0.45 -1.15 0.55 -1.45 0.6 -1.2 0.45 -1.2 0.4h-0.25l0.15 -0.1 1.75 -0.6 0.55 -0.25 0.75 -0.3 0.7 -0.25 1.55 -0.75 0.75 -0.45 0.55 -0.55 0.3 -0.45h0.1l0.1 -0.2 0.5 -0.55 0.3 -0.5z" fill="#509B15"/><path d="M64.55 31.2h0.4l0.5 0.2 0.4 0.5v0.4l-0.2 0.45 -0.2 0.05v0.1l-0.25 0.15 -0.6 0.1 -0.6 -0.25 -0.25 -0.25 -0.1 -0.15v-0.55l0.25 -0.35h0.1l0.1 -0.2zm0.25 0.1 -0.45 0.15 -0.25 0.2 -0.2 0.3 -0.05 0.25 0.1 0.4h0.1v0.1l0.45 0.3 0.4 -0.05 0.55 -0.35 0.3 -0.4 -0.1 -0.25 -0.2 -0.35 -0.15 -0.05v-0.1l-0.45 -0.15z" fill="#4E9719"/><path d="M55.65 75.1h0.3l-0.2 0.15 -0.95 0.35 -1.6 0.45 -1.8 0.4 -1.2 0.2 -1.7 0.2h-2.5v-0.05l2.9 -0.1 2.2 -0.3 1.8 -0.4 1.05 -0.3 -0.35 0.05 -0.4 0.1h-0.4v-0.05l1.5 -0.35z" fill="#4C9215"/><path d="M68.8 75.75h0.25l0.15 0.25 0.25 0.65 0.15 0.55 0.15 1.2 0.15 0.15h0.65l0.1 -0.45 0.15 -0.1 -0.1 0.6v0.1l-0.25 0.2 -0.45 0.05 -0.3 -0.15 -0.2 -0.25 -0.15 -1 -0.15 -0.8 -0.1 -0.25 -0.05 -0.5 -0.05 -0.15 -0.25 0.05h-0.15z" fill="#498D15"/><path d="M27.9 28.05h1.45l0.8 0.15v0.05h-0.65l-0.65 -0.1h-0.8l-0.5 0.05 -0.3 0.1 -1.3 0.2 -0.6 0.2 -1 0.55 -0.5 0.4 -0.6 0.3v-0.15l0.3 -0.25h0.15l0.05 -0.15 0.3 -0.2 0.25 -0.2 0.8 -0.4 0.65 -0.25 0.8 -0.2z" fill="#4E9719"/><path d="m68.5 75.95 0.1 0.05 -0.35 0.35 -0.35 0.5 -0.4 0.95 -0.1 0.55h-0.15v0.1l-0.3 0.05 -0.35 -0.1 -0.1 -0.05v-0.1h-0.1v-0.1h-0.1l-0.3 -0.6v-0.1h-0.1l-0.05 -0.2 -0.15 -0.05 -0.15 -0.15v-0.1h-0.1l-0.35 -0.55h-0.2v-0.1h0.25l0.5 0.45 0.4 0.35 0.4 0.65 0.2 0.35 0.25 0.1h0.25l0.15 -0.05 0.1 -0.45 0.35 -0.8 0.3 -0.45z" fill="#4A8D15"/><path d="m68.85 75.8 0.2 0.05 -0.05 0.35 -0.4 0.3 -0.45 0.6 -0.3 0.65 -0.25 0.45 -0.1 0.05 -0.1 -0.05 0.05 -0.4 0.4 -0.95 0.4 -0.55 0.35 -0.35z" fill="#A5D272"/><path d="m43.1 76.25 0.35 0.05 1.25 0.05 0.25 0.1h0.35l0.25 0.05h3.45l0.2 -0.05h0.55v0.1l-0.9 0.1 -2 0.05h-0.9l-1.35 -0.1 -0.05 -0.05h-0.95l-0.6 -0.05 -0.1 -0.2 0.2 0.05z" fill="#142410"/><path d="m27.65 73.9 0.2 0.1 0.2 0.25 0.55 1.1 0.25 0.7 0.1 1.55 0.25 -0.25 -0.05 0.3 -0.2 0.45h-0.1l-0.15 -0.45 -0.1 -1.5 -0.25 -0.7 -0.3 -0.6 -0.1 -0.25v-0.3l-0.2 -0.25h-0.15z" fill="#4A8E16"/><path d="m57.3 33.95 0.1 0.05 -0.2 0.1v0.1l-0.25 0.25 -0.35 0.4 -0.55 0.9 -0.2 0.2 -0.3 -0.2 0.1 -0.05 0.15 -0.45 0.35 -0.55 0.25 -0.35 0.4 -0.3z" fill="#498B15"/><path d="M72.4 61.9h0.15v0.35l-0.3 1.05h-0.15l-0.4 -0.4 -0.3 -0.35 0.05 -0.2 0.75 -0.35z" fill="#E0FE66"/><path d="m60.55 29.2 0.5 0.05 0.5 0.2 0.45 0.4 0.15 0.4v0.3l-0.2 0.4 -0.25 0.25 -0.3 0.25 -0.45 0.1h-0.6l-0.55 -0.3 -0.35 -0.35 -0.1 -0.3v-0.45l0.2 -0.4 0.4 -0.35zm0.05 0.1 -0.5 0.1 -0.4 0.35 -0.2 0.4v0.35l0.15 0.35 0.2 0.25h0.1l0.05 0.15 0.4 0.2h0.45l0.5 -0.15 0.3 -0.2 0.35 -0.45v-0.6l-0.1 -0.2 -0.5 -0.4 -0.5 -0.15z" fill="#4E9719"/><path d="M56.05 50.95h0.3l0.05 0.1 0.45 0.1h0.85l0.75 0.1 0.25 0.1 0.2 0.15 -0.55 -0.05h-1.3l-2 -0.15 0.1 -0.1 0.2 -0.05 0.05 -0.05 0.45 -0.05z" fill="#4E9719"/><path d="m48.65 16.9 1.45 0.05 1.05 0.1 1.45 0.25 0.35 0.1 -0.1 0.2 -0.15 0.1v-0.2l-1 -0.2 -1.3 -0.15 -0.7 -0.05h-1.75l-1.25 0.15 -0.6 0.05 0.05 -0.15 1 -0.15z" fill="#498C15"/><path d="m71.75 57.3 0.15 0.05 0.3 0.8 0.05 0.3 -0.05 0.05 -1.05 -0.05 -0.05 -0.2 0.45 -0.65z" fill="#AECE58"/><path d="m68.85 47.1 0.25 0.05 0.15 0.2 -0.1 0.2 -0.05 -0.25 -0.2 0.4 -0.2 0.1 -0.1 0.2 -0.15 0.05 -0.05 0.15 -0.4 0.3 -0.1 -0.05 -0.25 0.2 -0.55 0.55 -0.4 0.3 -0.15 0.15h-0.1v0.1l-0.25 0.15h-0.1v0.1l-0.85 0.5 -0.1 -0.05 0.85 -0.55 0.6 -0.45 0.7 -0.6 0.65 -0.65 0.45 -0.55 0.05 -0.1h0.1l0.1 -0.2z" fill="#ADCE5A"/><path d="M74.7 55h0.5l0.4 0.15 0.4 0.3 0.05 0.1 -0.25 -0.1v-0.1l-0.3 -0.1h-1l-0.55 0.15 -0.5 0.3 -0.4 0.55 -0.1 0.3v0.2l0.1 0.1 0.05 0.35 0.15 0.2 -0.05 0.1h-0.1l-0.25 -0.65 -0.1 -0.35 0.05 -0.4 0.35 -0.4 0.35 -0.3 0.6 -0.3z" fill="#4E9718"/><path d="M26 79.35h0.3l0.05 0.2 -0.4 0.2 -0.15 -0.05 0.35 -0.15v-0.05l-0.55 0.05 -0.05 0.15 -0.3 0.1h-0.65v-0.05h-0.5l-1.4 -0.15h-1.15l0.2 0.25 0.1 0.05h2.7l0.65 -0.05 0.4 -0.05 -0.15 0.1 -0.75 0.1h-2.9l-0.35 -0.3 -0.05 -0.15 0.05 -0.05h1.35l1.05 0.1h0.7l1.25 -0.2z" fill="#AECE58"/><path d="m33.65 71.75 0.15 0.05 -0.05 0.15h-0.1l-0.1 0.2h-0.1l-0.1 0.2h-0.1l-0.1 0.2 -0.4 0.4h-0.1l-0.1 0.2h-0.1v0.1h-0.1v0.1h-0.1l-0.1 0.2h-0.1l-0.1 0.2 -0.2 0.25 -0.15 0.15h-0.25l0.25 -0.4 0.2 -0.2h0.15l0.05 -0.25h0.1l0.1 -0.25 0.15 -0.2h0.1v-0.1h0.1v-0.1h0.1v-0.1h0.1v-0.1h0.1v-0.1h0.15l0.05 -0.15h0.1l0.1 -0.2 0.3 -0.2z" fill="#E0FE66"/><path d="M42.45 31.4h0.3l0.1 0.1 0.1 0.35 0.15 0.55v1.2l-0.1 0.45 -0.1 -0.1 -0.2 -1.45 -0.15 -0.55z" fill="#162811"/><path d="M24.45 73.1h0.05v1.2l0.2 0.9 0.1 0.05 0.1 0.45v0.4l-0.25 0.05 -0.25 -0.15v-0.1l-0.15 -0.05 -0.35 -0.4 -0.1 -0.2h-0.1v-0.1l-0.2 -0.1 -0.2 -0.15v-0.1l-0.6 -0.3 0.15 -0.05 0.45 0.2 0.55 0.4 0.7 0.7 0.1 0.05v-0.35l-0.25 -1.05v-1z" fill="#498C15"/><path d="M72.05 76.65h0.2v0.25l-0.4 0.4h-0.1v0.1l-0.25 0.25 -0.2 0.25 -0.35 0.5h-0.2l0.05 -0.4 0.3 -0.5 0.55 -0.6z" fill="#AECE58"/><path d="m71.4 66.6 0.1 0.05 -0.2 0.25 -0.05 0.15 -0.3 0.25h-0.1v0.1l-0.2 0.05v0.1l-0.75 0.55 -0.5 0.35 -0.55 0.3 -0.25 0.15 -0.05 0.35 0.65 -0.05 0.3 -0.05 0.05 -0.1 0.65 -0.3 0.15 0.05 -0.4 0.25 -0.5 0.2 -0.75 0.15 -0.2 -0.05 0.05 0.1h0.6v0.05l-0.3 0.05h-0.4l-0.05 -0.1v-0.35l0.1 -0.3 0.8 -0.5 0.8 -0.55 0.8 -0.65z" fill="#AACF61"/><path d="M34.35 71.25h0.05v0.3l-2.15 2.15 -0.05 0.1h-0.1l-0.1 0.2 -0.25 0.3 -0.2 0.15 -0.1 -0.05 0.3 -0.35 0.1 -0.25 0.2 -0.25 0.2 -0.2h0.1v-0.1h0.1v-0.1l0.4 -0.35 0.35 -0.35 0.25 -0.3 0.2 -0.2 0.25 -0.15 0.35 -0.3z" fill="#AACF62"/><path d="M38.6 47.8h0.5l2.15 0.6 1.5 0.25 1.45 0.25 0.15 0.1 -0.05 0.05h-1.5l-0.75 -0.05v-0.05h1.35v-0.05l-0.65 -0.1 -1.8 -0.35 -2 -0.5 -0.35 -0.1z" fill="#4F9916"/><path d="m44.4 82.25 0.9 0.05 0.4 0.1 1.75 0.15 2.75 0.1v0.05l-0.35 0.05h-2.75l-1.6 -0.2 -1.1 -0.25z" fill="#519D16"/><path d="m33.7 45.6 0.25 0.1 0.5 0.25 0.95 0.5 0.8 0.35 0.8 0.3 0.95 0.35 0.95 0.3v0.05h-0.45l-1.2 -0.4 -1.3 -0.55 -1.3 -0.6 -0.7 -0.35 -0.15 -0.15 -0.1 -0.05z" fill="#4F9916"/><path d="m75.8 77.1 0.15 0.2 0.2 0.65 0.15 0.95 0.15 0.05 0.25 -0.1 0.2 -0.15h0.1v-0.1l0.45 -0.35 1.1 -1.1v0.15l-1.25 1.25 -0.2 0.25 -0.6 0.45 -0.3 0.05 -0.1 -0.2 -0.15 -1.35 -0.15 -0.45z" fill="#52A117"/><path d="m40.6 51.45 0.05 0.15 -0.85 2.5 -0.5 1.55 -0.05 0.15v0.35l0.35 0.15 1.8 0.5 1.35 0.3 0.5 0.1v0.05l-0.55 -0.05 -1.35 -0.3 -1.55 -0.4 -0.7 -0.25v-0.35l1.05 -3.2z" fill="#ADCE58"/><path d="m40.4 65.4 0.6 0.05 1.15 0.2 1.85 0.25 1.8 0.15v0.05h-0.95l-1.95 -0.15 -1.3 -0.2h-0.8l-0.15 -0.05 -0.05 -0.2z" fill="#305B18"/><path d="m36.55 26.9 0.4 0.05 0.95 0.15 1.2 0.35 0.8 0.35 0.75 0.4 0.65 0.5 0.15 0.1v0.1l0.2 0.1v0.1l0.2 0.1 0.5 0.65 0.3 0.5 0.2 0.5 -0.05 0.2 -0.25 -0.6 -0.35 -0.6 -0.4 -0.5 -0.55 -0.55 -0.7 -0.5 -0.7 -0.4 -1 -0.4 -0.95 -0.25 -0.8 -0.15 -0.45 -0.05v-0.1z" fill="#498C15"/><path d="M26.1 41.05h0.45v0.45l-0.25 0.95 -0.2 0.5 -0.1 0.1 -0.25 -0.05 -0.45 -0.35 -0.45 -0.5 -0.5 -0.7 -0.1 -0.2v-0.15h1.35zm0 0.1 -0.5 0.05h-1.15l-0.05 0.15 0.2 0.35 0.6 0.7 0.4 0.4 0.25 0.15 0.2 -0.1 0.2 -0.55 0.2 -0.8v-0.35z" fill="#B1D159"/><path d="M58.55 33.55h0.3l-0.1 0.3 -0.4 0.35 -0.5 0.5 -0.5 0.65 -0.15 -0.05 0.1 -0.15 0.05 -0.3 0.3 -0.4 0.25 -0.15 0.1 -0.25h0.1l0.1 -0.2 0.25 -0.25z" fill="#192F11"/><path d="m39.7 75.85 0.45 0.1 1.3 0.3 1.25 0.25 1.15 0.15 1.85 0.1 0.3 0.05 1.75 0.05v0.05h-2.25l-1.45 -0.1 -1.75 -0.25 -1.65 -0.35 -0.8 -0.2z" fill="#509B16"/><path d="m31.2 74.45 0.1 0.05 -0.5 0.75 -0.45 0.75 -0.3 0.6 -0.25 0.35 -0.15 -0.05 0.2 -0.65 0.05 -0.1h0.1l0.05 -0.2 0.05 -0.15h0.1v-0.15h0.1l0.1 -0.2 0.2 -0.25 0.1 -0.25 0.35 -0.4z" fill="#E0FE66"/><path d="M33.85 66.15h0.3l0.25 0.15 0.05 0.15 -0.25 0.3 -0.4 0.35 -0.3 0.4 -0.25 0.6 -0.15 0.35h-0.1l-0.15 -0.35v-0.75h0.1l0.05 0.55 0.15 -0.15 0.2 -0.4 0.45 -0.5 0.35 -0.3 0.05 -0.15 -0.05 -0.05 -0.4 -0.05v-0.1z" fill="#A7D16D"/><path d="m59.95 16 0.45 0.05 1 0.4 0.9 0.5 0.7 0.5 0.3 0.25 -0.05 0.1 -0.2 -0.05v-0.1l-0.2 -0.05 -0.1 -0.05v-0.1h-0.1v-0.1l-0.2 -0.05 -0.4 -0.25 -0.15 -0.05 -0.05 -0.1 -0.35 -0.15 -0.4 -0.25 -0.1 0.05v-0.1h-0.2v-0.1l-0.2 0.05v-0.1l-0.5 -0.15v-0.1z" fill="#192D11"/><path d="m78.2 72.7 0.15 0.05 -0.25 0.35h-0.1l-0.1 0.2 -0.4 0.5 -0.8 0.8 -0.4 0.35 -0.55 0.45h-0.1v0.1l-0.65 0.5 -0.3 0.15 -0.1 -0.05 0.5 -0.35h0.1l0.05 -0.15h0.1l0.05 -0.15 0.3 -0.25 0.45 -0.3 0.35 -0.35h0.1v-0.1l0.2 -0.2h0.1v-0.1h0.1v-0.1l0.25 -0.25 0.35 -0.4h0.1l0.1 -0.2 0.2 -0.3 0.2 -0.1z" fill="#4E9719"/><path d="M34.55 68.7h0.05l-0.05 0.5 -0.15 0.3h-0.1l-0.1 0.2 -0.4 0.3h-0.1v0.1l-0.25 0.15 -0.25 0.2h-0.1v0.1l-0.2 0.05v0.1l-0.45 0.25 -0.25 -0.15 -0.2 -0.25 -0.45 -0.8v-0.15l0.45 0.05 -0.05 0.1h-0.1v0.4l0.2 0.1 0.25 0.4v0.1l0.45 -0.15 0.5 -0.4h0.15v-0.1l0.55 -0.35 0.2 -0.2h0.1l0.1 -0.25z" fill="#4E9719"/><path d="M23.85 42h0.1l0.35 0.4 0.05 0.15h0.1v0.2l0.2 0.05 0.15 0.25 0.1 0.05v0.1l0.2 0.1 0.35 0.2 0.25 0.1h0.75l-0.05 0.15 -0.25 0.1 -0.55 -0.05 -0.4 -0.2 -0.65 -0.55 -0.55 -0.7 -0.15 -0.25z" fill="#1C3012"/><path d="M40.1 16.65h1.3l0.6 0.1 0.05 0.15 0.35 0.05 0.35 0.15 -0.15 0.05 -0.75 -0.25 -0.85 -0.1h-0.5l-0.8 0.1 -0.8 0.3 -0.15 0.1 -0.15 -0.05 0.5 -0.3h0.1v-0.1l0.5 -0.15z" fill="#519E17"/><path d="m79.1 72.8 0.35 0.15 0.25 0.25 0.35 0.4 -0.15 0.05 -0.2 -0.25 -0.25 -0.15 0.4 1.2 0.05 0.3v0.65l-0.1 0.15 -0.05 -0.95 -0.15 -0.55v-0.15h-0.1v-0.15h-0.1l-0.35 -0.7z" fill="#4A8F15"/><path d="M39.95 66h0.35l0.8 0.15 0.9 0.05 0.75 0.1 1.45 0.1 1 0.1v0.05h-0.7l-2.2 -0.15 -1.05 -0.1 -1.3 -0.2z" fill="#213B19"/><path d="M31.4 69.3h0.65l1.1 0.1 0.25 0.1v0.15l-0.35 0.05 -1.55 -0.15z" fill="#AECE58"/><path d="M57.3 18.1h1l1.3 0.2 0.75 0.25 0.1 0.1 -0.5 -0.1 -0.8 -0.2 -0.95 -0.1h-1.2l-1.45 0.2 -0.45 0.05 0.15 -0.1 0.9 -0.2z" fill="#AECE58"/><path d="M40.35 23.65h0.3l0.15 0.2 -0.1 0.35 -0.35 0.15h-0.3l-0.15 -0.1 0.05 -0.25 0.2 -0.25z" fill="#AECE58"/><path d="m73.2 57.6 0.15 0.15 0.4 0.8 0.35 1 0.1 0.4v0.2l-0.15 -0.05 -0.3 -1 -0.15 -0.4 -0.2 -0.1 -0.2 -0.7z" fill="#A7D16C"/><path d="m35.6 26.1 0.2 0.05 -0.55 0.3h-0.1l0.15 0.2 0.35 0.05 0.2 0.05 0.45 0.1v0.05h-0.4l-0.5 -0.05 -0.85 -0.05 -0.15 -0.15h0.1v-0.1l0.5 -0.25z" fill="#4E9719"/><path d="m24.8 72.45 0.05 0.1 -0.05 0.2h0.15l0.1 0.05 -0.05 0.25 -0.2 0.65 -0.2 0.1 -0.05 -0.15v0.9h-0.05l-0.05 -0.25v-0.8l0.1 -0.6z" fill="#AECE58"/><path d="M81.8 66.6h0.05l0.05 1.4 -0.05 0.25 -0.3 -0.05 -0.35 -0.15 0.35 0.65 -0.05 0.15v-0.1l-0.15 -0.05 -0.3 -0.5 -0.2 -0.25v-0.2l0.35 0.05 0.45 0.15h0.15z" fill="#4C9115"/><path d="M72.4 61.9h0.15v0.35l-0.3 1.05h-0.15l-0.4 -0.4 -0.3 -0.35 0.05 -0.2 0.75 -0.35zm-0.1 0.15 -0.65 0.4v0.2l0.35 0.4h0.15v-0.1l0.1 -0.05 0.1 -0.5 0.1 -0.15 -0.05 -0.2z" fill="#AECE58"/><path d="m36.65 32.45 0.1 0.05 -0.45 0.5 -0.45 0.75v0.1l0.5 -0.05 0.4 0.5 0.3 0.2h0.45l0.35 -0.15 0.25 -0.3 0.05 0.1 -0.3 0.35 -0.3 0.15h-0.45l-0.4 -0.2 -0.35 -0.45 -0.3 -0.05 -0.1 0.1h-0.25l-0.05 -0.2 0.2 -0.4 0.15 -0.25h0.1l0.1 -0.25z" fill="#4A8E16"/><path d="m32.25 45.8 0.35 0.05 0.8 0.35 0.25 0.15 0.6 0.3 0.25 0.1v0.1l0.25 0.1v0.1l-0.25 -0.05 -0.8 -0.4 -1.15 -0.55 -0.3 -0.2z" fill="#1A2E12"/><path d="m36.25 55.25 0.05 0.1 -0.2 0.2 -0.8 0.5 -0.65 0.5 -0.8 0.65 -0.25 0.25 -0.1 -0.05 0.6 -0.65 0.85 -0.65 0.8 -0.55z" fill="#A9D065"/><path d="M40.9 45.35h0.3l-0.15 0.25 -0.75 0.35 -0.8 0.25 -1.05 0.15h-1.1l-0.5 -0.15v-0.05l0.8 0.05h0.95l0.8 -0.1 1.05 -0.35 0.5 -0.25 -0.3 -0.05v-0.05z" fill="#4F9916"/><path d="m70.7 32.25 0.15 0.2 0.1 0.4 0.1 0.3 0.15 0.9 0.1 0.75v1.75l-0.1 0.8 -0.1 0.05v-0.35l0.1 -0.65v-1.2l-0.15 -1.3 -0.25 -1.05 -0.1 -0.25z" fill="#4E9719"/><path d="m64.95 76.35 0.2 0.05 0.05 0.1 -0.2 0.5 -0.25 1.1 -0.05 0.15h-0.1v-0.65l0.2 -1z" fill="#AECE58"/><path d="M73.3 78.5h0.05l-0.05 0.55 -0.2 0.85 -0.3 0.75 -0.1 0.3 0.05 0.1 0.25 -0.05 0.5 -0.2 0.1 0.05 -0.4 0.2 -0.65 0.2 -0.15 -0.2 0.1 -0.35 0.3 -0.55 0.05 -0.1h0.1l0.2 -0.8z" fill="#52A016"/><path d="M68.15 76.45v0.15l-0.25 0.5 -0.15 0.45h0.1l0.05 -0.25 0.35 -0.55 0.25 -0.3 0.1 0.05 -0.45 0.6 -0.3 0.65 -0.25 0.45 -0.1 0.05 -0.1 -0.05 0.05 -0.4 0.4 -0.95z" fill="#AECE58"/><path d="m35 45.1 0.4 0.05 1.35 0.3 0.6 0.1 0.7 0.05h0.6l1.25 -0.1 0.7 -0.05 -0.2 0.1 -0.65 0.1 -0.75 0.05h-1.5l-1.35 -0.25 -1.15 -0.3z" fill="#4E9615"/><path d="M57.5 65h0.35l-0.1 0.1 -0.5 0.2 -1.35 0.3h-0.25l0.2 -0.1 0.4 -0.1 -0.75 0.05 0.2 -0.1 1.1 -0.25z" fill="#AECE58"/><path d="M38.45 42.4h0.5l0.05 0.2 -0.25 0.65 -0.35 0.6 -0.35 0.4h-0.25l-0.15 -0.15 0.05 -0.1 0.15 0.15 0.2 -0.05 0.35 -0.45 0.35 -0.7 0.15 -0.45 -1.1 0.1h-0.8l0.1 0.45 -0.15 -0.15 -0.05 -0.35 0.05 -0.05z" fill="#AFCF58"/><path d="M66.5 42.9h0.05v0.45l-0.15 0.25 -0.2 0.25h-0.1l-0.1 0.2 -0.35 0.4h-0.1l-0.1 0.2 -0.8 0.8 -0.15 -0.05 0.4 -0.35 0.35 -0.4 0.2 -0.3h0.1l0.1 -0.2 0.5 -0.55 0.3 -0.5z" fill="#57AA15"/><path d="m81.2 63.7 0.15 0.15 0.3 1.3 0.15 1v1.8h-0.05l-0.1 -1.8 -0.15 -0.95 -0.3 -1.35z" fill="#4E9816"/><path d="M52.7 40.45h0.05v0.6l-0.25 1 -0.05 0.1h-0.1l-0.1 0.3 -0.1 -0.1 0.15 -0.25 -0.05 -0.25 0.05 -0.3 0.15 -0.35 0.1 -0.3 0.05 -0.35h0.1z" fill="#192E11"/><path d="m31.15 74.85 0.05 0.15 -0.55 0.9 -0.5 0.85h-0.15v-0.15l0.55 -1.05 0.25 -0.25z" fill="#A9D065"/><path d="M56.45 15.85h0.4l-0.15 0.15 -0.25 0.1 -0.1 -0.05 -0.05 0.1 -0.3 0.1h-0.3l-0.05 0.1 -0.6 0.1 -0.25 0.05 0.05 -0.15 1.2 -0.4z" fill="#192D11"/><path d="M56.05 65.35h0.3l-0.1 0.1 -1.45 0.35 -0.65 0.1v-0.1l-0.25 -0.05v-0.05z" fill="#2E5518"/><path d="m45 38 0.25 0.1 0.3 0.35 0.2 0.2 0.2 0.1 0.15 0.25h0.1l0.1 0.3 -0.05 0.15h0.1v0.3l-0.15 -0.05 -0.4 -0.7 -0.55 -0.7z" fill="#162911"/><path d="M73.35 77.45h0.05v0.65l-0.2 1.15 -0.25 0.8h-0.1l-0.1 0.3 -0.05 -0.1 0.35 -1.15 0.15 -0.75 0.1 -0.85z" fill="#4A8F16"/><path d="m70.5 68.65 0.2 0.1 -0.55 0.35 -0.65 0.3 -0.15 0.05 -0.8 0.05 -0.1 -0.1 0.05 -0.15 0.05 0.1 0.5 -0.05 0.7 -0.2 0.45 -0.25z" fill="#A6D26E"/><path d="m22.25 75.5 0.1 0.1v0.15h0.1l0.15 0.3 0.25 0.6 0.3 0.4 0.45 0.65 0.1 0.2 0.2 0.1 0.05 0.15 -0.15 -0.05 -0.35 -0.4 -0.45 -0.6 -0.3 -0.45 -0.3 -0.55 -0.25 -0.5h0.1z" fill="#4E9719"/><path d="m55.2 48.95 0.2 0.05 0.4 -0.05v0.1l0.1 0.05 -0.35 0.1 -0.7 0.15h-0.8l0.05 -0.1 1 -0.25z" fill="#142510"/><path d="m34.8 23.9 0.05 0.15 -0.15 0.15 -0.25 0.2 -0.45 0.55 -0.35 0.4 -0.2 0.3v0.15l0.4 -0.05 -0.2 0.15 -0.4 0.15h-0.15l0.1 -0.3 0.35 -0.45 0.45 -0.55 0.6 -0.65z" fill="#498B15"/><path d="M34.35 71.25h0.05v0.3l-1.65 1.65 -0.15 -0.05 0.95 -0.95 0.1 -0.25 0.25 -0.15 0.35 -0.3z" fill="#A7D16A"/><path d="M44.2 36.8h0.45l0.45 0.2 0.55 0.4 0.1 0.2 -0.3 -0.2 -0.3 -0.15 -0.05 -0.15 -0.45 -0.15h-0.3l-0.4 0.4h-0.15l0.05 -0.25 0.25 -0.25z" fill="#172A12"/><path d="m39.05 16.9 0.15 0.05 -0.55 0.3 -0.55 0.4 -0.5 0.45 -0.5 0.7 -0.3 0.55h-0.1l-0.05 0.15 -0.05 -0.1 0.15 -0.3 0.5 -0.75 0.3 -0.4 0.55 -0.45 0.65 -0.45z" fill="#4E9719"/><path d="m27.65 74 0.2 0.1 0.15 0.2 -0.05 0.25 -0.35 0.3 -0.15 0.05 -0.05 -0.05 0.05 -0.4z" fill="#A6D26F"/><path d="M26 79.35h0.3l0.05 0.2 -0.4 0.2 -0.15 -0.05 0.35 -0.15v-0.05l-0.55 0.05 -0.05 0.15 -0.3 0.1h-0.65l0.05 -0.15 0.25 -0.1z" fill="#ADCE5B"/><path d="M49.35 26.65h0.25l0.35 0.2 0.6 0.35 0.2 0.2v0.1l-0.3 -0.1 -1.2 -0.6v-0.1z" fill="#172912"/><path d="M71.3 41.55h0.05v0.45l-0.1 0.55 -0.15 0.2 -0.25 -0.1 -0.05 -0.2 0.1 -0.65h0.1v0.5l0.1 -0.05 0.15 -0.65z" fill="#A8D16A"/><path d="m42.05 20.35 0.15 0.1 0.25 0.8v1.15l-0.25 0.8 -0.35 0.7 -0.1 -0.1 0.35 -0.7 0.2 -0.65 0.05 -0.35v-0.65l-0.15 -0.6 -0.15 -0.35z" fill="#498D15"/><path d="M38.15 24.3h0.1v0.15l-0.35 0.15h-0.15v0.1l-1.55 0.35h-0.25l0.15 -0.1h0.1v-0.1l0.5 -0.1 0.5 -0.15 0.9 -0.15z" fill="#4B8F16"/><path d="m68.55 68.75 0.1 0.1 -0.05 0.05 -0.05 0.35 0.65 -0.05 0.3 -0.05 0.05 -0.1 0.65 -0.3 0.15 0.05 -0.4 0.25 -0.5 0.2 -0.75 0.15 -0.2 -0.05 0.05 0.1h0.6v0.05l-0.3 0.05h-0.4l-0.05 -0.1v-0.35l0.1 -0.3z" fill="#ADCE58"/><path d="M68.25 47.85v0.15l-0.1 -0.05zm-0.3 0.35v0.15l-0.85 0.85 -0.4 0.3 -0.15 0.15h-0.1v0.1l-0.25 0.15h-0.1v0.1l-0.85 0.5 -0.1 -0.05 0.85 -0.55 0.6 -0.45 0.7 -0.6z" fill="#AECE58"/><path d="M32.45 44.5h0.4l0.7 0.15v0.05l-0.65 -0.05 0.15 0.15 0.8 0.35 0.05 0.1 -0.6 -0.15 -0.4 -0.2 -0.5 -0.3z" fill="#4E9816"/><path d="m55 48.95 0.2 0.05 -0.65 0.2 -0.45 0.1 0.7 0.05v0.05l-0.45 0.05h-0.9v-0.1h0.1v-0.1z" fill="#254318"/><path d="M31.15 60.35h0.05l0.05 0.55 0.1 -0.1 0.1 -0.2h0.05v0.6l-0.05 0.25h-0.1l-0.05 0.35 -0.1 -0.1 -0.05 -0.15z" fill="#A6D270"/><path d="M72.95 65.65v0.15l-0.3 0.55h-0.1l-0.1 0.25 -0.35 0.55 -0.3 0.4 -0.25 0.25 -0.15 0.1 0.1 -0.2 0.05 -0.15h0.1l0.1 -0.25 0.15 -0.05 0.1 -0.25 0.2 -0.25 0.1 -0.25 0.25 -0.25 0.1 -0.25h0.1l0.1 -0.25z" fill="#AECE58"/><path d="m38.2 54.2 0.15 0.05 -0.3 0.1v0.1l-0.8 0.4 -0.5 0.3 -0.3 0.05 0.2 -0.2 1.15 -0.65z" fill="#A8D067"/><path d="m75.8 77.1 0.15 0.2 0.2 0.65 0.15 0.95 0.15 0.05 0.2 0.05 -0.3 0.15 -0.1 -0.05 -0.1 -0.55 -0.1 -0.05 -0.05 -0.15 -0.05 -0.6 -0.15 -0.45z" fill="#4F9817"/><path d="m43.6 57.35 0.6 0.05 2.1 0.25v0.05h-1.25l-0.4 -0.1 -0.55 -0.05v-0.1l-0.5 -0.05z" fill="#315C17"/><path d="m54.2 35.8 0.25 0.05v0.15l0.15 -0.05 0.05 0.15 0.15 -0.05 0.1 0.15 0.1 -0.05 0.2 0.1v0.1l0.2 0.1 0.1 0.15 -0.35 -0.05v-0.1l-0.25 -0.1 -0.4 -0.2 -0.35 -0.15 -0.15 -0.15z" fill="#1C2F13"/><path d="M53.5 57.45h0.55l-0.15 0.1 -1.45 0.25h-0.25l0.2 -0.1 -0.35 -0.05v-0.05z" fill="#2E5517"/><path d="m64.45 45.45 0.2 0.05 -0.6 0.35 -1.15 0.55 -0.75 0.35 -0.1 -0.05 0.25 -0.15 1.55 -0.75z" fill="#4E9816"/><path d="m64.2 50.9 0.15 0.05h-0.1v0.1l0.25 -0.05 -0.1 0.1 -0.9 0.3 -0.7 0.1v-0.1l1.2 -0.4z" fill="#AECE58"/><path d="M62.15 80h0.9l0.6 0.1 0.15 0.05 0.75 0.05v0.05l-0.65 0.05 -0.4 -0.1h-1.05l0.05 -0.1 -0.35 -0.05z" fill="#4E9719"/><path d="M62.9 51.3h0.25l-0.15 0.1 -0.9 0.2 -0.85 0.15h-0.95v-0.05l0.5 -0.05 0.05 -0.05 1.05 -0.1z" fill="#4B9016"/><path d="M41.85 76h0.2v0.1l0.3 0.05 0.45 0.15 0.1 0.1 -0.85 -0.05 -0.65 -0.2 -0.05 -0.1z" fill="#142410"/><path d="m80.8 73.35 0.05 0.2 -0.1 0.4 -0.25 0.45 -0.25 -0.2 -0.3 -0.55h0.15l0.2 0.25v0.1l0.25 -0.05z" fill="#4D9416"/><path d="m75.35 76.45 0.2 0.1 0.1 0.25h-0.15v2.15h-0.1v-1.6l-0.1 -0.8z" fill="#54A516"/><path d="M37.25 25.6h0.3v0.15l-1 0.2 -0.55 0.15 -0.2 -0.05 0.35 -0.1h0.2l0.05 -0.15z" fill="#4B9016"/><path d="m53.1 18.35 0.1 0.05 -0.45 0.4 -0.4 0.3 -0.25 0.25 -0.25 0.1h-0.3l-0.05 -0.3 0.1 -0.05 0.05 0.25 0.25 -0.05 0.65 -0.6 0.2 -0.05z" fill="#4A8D15"/><path d="M61.65 79.9h1.45l0.35 0.05 0.05 0.1 -2.05 -0.05v0.35l-0.1 -0.1v-0.25z" fill="#498B15"/><path d="m36.45 19.7 0.05 0.2 -0.25 0.6 -0.3 0.85 -0.3 0.95h-0.05l0.05 -0.4 0.25 -0.8 0.35 -1z" fill="#4E9719"/><path d="m68.85 75.8 0.2 0.05 -0.05 0.35h-0.1l0.1 -0.25h-0.1l-0.1 0.2 -0.5 0.4 -0.1 -0.2 0.4 -0.4z" fill="#AECE58"/><path d="M67.7 26.45h0.1l0.45 0.7 0.1 0.15v0.15l0.15 0.05 0.3 0.55 0.25 0.45 -0.05 0.1 -0.3 -0.4 -0.25 -0.5 -0.3 -0.45 -0.3 -0.5v-0.1h-0.1z" fill="#4E9719"/><path d="m33.9 66.4 0.1 0.05 -0.1 0.25 -0.4 0.35 -0.1 0.2 -0.2 0.05 0.1 -0.35 0.3 -0.4 0.1 -0.1z" fill="#E0FE66"/><path d="m32.6 39.35 0.2 0.05 0.8 0.4 1.05 0.4 0.45 0.15 -0.2 0.05 -0.9 -0.3 -0.6 -0.25 -0.4 -0.2 -0.4 -0.25z" fill="#4E9719"/><path d="m36.65 32.45 0.1 0.05 -0.45 0.5 -0.45 0.75v0.1l0.4 -0.05 -0.25 0.2 -0.05 0.05h-0.25l-0.05 -0.2 0.2 -0.4 0.15 -0.25h0.1l0.1 -0.25z" fill="#498D15"/><path d="m79.05 42.15 0.25 0.05 0.3 0.35 0.05 0.1v0.6l-0.1 -0.05 -0.2 -0.5 -0.2 -0.4 -0.1 -0.05z" fill="#1A2C12"/><path d="M54.3 57.3h0.75l-0.05 0.1 -1 0.2h-0.35v-0.05l0.25 -0.05 -0.3 -0.05v-0.05z" fill="#AECE58"/><path d="m42.05 16.8 0.8 0.2 0.7 0.35 0.3 0.2 -0.1 0.1 -1.2 -0.6 -0.5 -0.15z" fill="#4E9719"/><path d="M37.5 78h0.1l0.1 0.25h0.1l0.4 0.5 0.7 0.7 0.55 0.45 -0.05 0.1 -0.7 -0.6 -0.85 -0.85 -0.35 -0.45z" fill="#4C9315"/><path d="m56.25 36.9 0.05 0.1 -0.15 0.35 -0.65 0.75h-0.15l0.05 -0.15 0.3 -0.35 0.05 -0.1h0.1l0.1 -0.2z" fill="#203B13"/><path d="m36.55 26.9 0.4 0.05 0.95 0.15 1.2 0.35v0.05l-0.4 -0.05 -1.25 -0.3 -0.8 -0.1v-0.1z" fill="#4A8E16"/><path d="M66.7 59.3h0.1l-0.1 0.2 -1 0.6 -0.15 -0.05h0.1v-0.15l0.4 -0.25 0.25 -0.05v-0.1l0.35 -0.15z" fill="#172A11"/><path d="M67.7 42.4h0.25l-0.2 0.15 0.1 0.1 0.1 0.55 -0.05 0.2 -0.2 -0.1 -0.1 -0.4 0.05 -0.45z" fill="#BBDC5F"/><path d="m76.05 78.5 0.15 0.05 0.05 0.55 0.25 -0.05 0.35 -0.25h0.1l-0.1 0.2 -0.45 0.3 -0.25 -0.05 -0.1 -0.45z" fill="#4A8E16"/><path d="m32.85 68.1 0.1 0.15 0.15 0.25 0.15 0.15 0.15 0.35 0.1 0.5 -0.35 -0.05 0.15 -0.1 -0.2 -0.5 -0.25 -0.55z" fill="#4B9016"/><path d="m38.85 42.4 0.15 0.05 -0.1 0.45 -0.4 0.8 -0.35 0.45 -0.1 0.1h-0.25l-0.15 -0.15 0.05 -0.1 0.15 0.15 0.2 -0.05 0.35 -0.45 0.35 -0.7 0.15 -0.45h-0.25z" fill="#B6D55A"/><path d="m36.25 55.25 0.05 0.1 -0.2 0.2 -0.8 0.5 -0.3 0.15 -0.1 -0.05 0.55 -0.4 0.55 -0.35z" fill="#A8D068"/><path d="M35.55 22.2h0.05l-0.05 0.55 -0.25 0.8 -0.4 0.45 -0.05 -0.15 0.35 -0.45 0.15 -0.5 0.15 -0.65z" fill="#4A8E16"/><path d="m21.25 73.25 0.5 0.05 -0.2 0.1 -0.4 0.15 -0.2 0.05 -0.05 0.35 -0.05 0.1h-0.1l0.05 -0.45 0.35 -0.3z" fill="#172A11"/><path d="m23.3 74.8 0.2 0.1 0.15 0.1v0.1l0.2 0.1 0.25 0.3 0.25 0.25 0.35 0.3h0.1l0.05 -0.35h0.05v0.4l-0.25 0.05 -0.25 -0.15v-0.1l-0.15 -0.05 -0.35 -0.4 -0.1 -0.2h-0.1v-0.1l-0.2 -0.1 -0.2 -0.15z" fill="#4E9719"/><path d="m25.5 73.15 0.25 0.2v0.1h0.1l0.45 0.65 0.3 0.6h-0.1l-0.4 -0.65 -0.1 -0.1v-0.15l-0.15 -0.05 -0.35 -0.45z" fill="#4E9719"/><path d="m71.75 57.2 0.2 0.1 0.3 0.75 0.05 0.5h-0.6l-0.65 -0.05 -0.05 -0.2 0.1 -0.05 0.05 0.15 1.05 0.05 -0.1 -0.45 -0.25 -0.65h-0.15z" fill="#4B9016"/><path d="m74 80.65 0.1 0.05 -0.6 0.3 -0.8 0.35h-0.35l-0.05 -0.15 0.15 -0.15 0.15 0.15 0.85 -0.3 0.25 -0.15z" fill="#498B15"/><path d="m32.5 45 0.4 0.1 0.8 0.45v0.15l0.25 0.1 -0.1 0.05 -0.8 -0.45 -0.55 -0.35z" fill="#4E9615"/><path d="m21.8 74.3 0.45 0.05 0.15 0.05v0.15l-0.4 0.1 -0.05 0.2 -0.15 -0.1z" fill="#ADCE5A"/><path d="m39.85 28.9 0.55 0.3 0.5 0.35 0.5 0.45 0.3 0.3 -0.05 0.1 -0.6 -0.6 -0.8 -0.55 -0.4 -0.2z" fill="#498D15"/><path d="M70.25 59.25h1.15l0.4 0.1 0.15 0.1h-0.6l-1.1 -0.15z" fill="#1B3012"/><path d="M40.35 16.7h0.65v0.05l-1.05 0.1 -0.85 0.25 -0.35 0.2 -0.15 -0.05 0.5 -0.3 0.8 -0.2z" fill="#58AC15"/><path d="m22.35 74.6 0.1 0.05 -0.25 0.25v0.65l-0.2 -0.05 -0.15 -0.45 0.05 -0.15 0.05 0.1 0.2 -0.3z" fill="#4D9518"/><path d="m24.8 72.45 0.05 0.1 -0.15 0.45 -0.1 0.55h-0.1l0.05 0.5v0.5h-0.05l-0.05 -0.25v-0.8l0.1 -0.6z" fill="#ABCF5F"/><path d="M33.8 66.3h0.35l0.1 0.15 -0.75 0.75 -0.1 -0.05 0.35 -0.4 0.15 -0.05v-0.2l-0.2 -0.1z" fill="#AECE58"/><path d="M68.15 43.7h0.15l0.4 0.8 0.3 0.55 -0.05 0.1 -0.2 -0.25 -0.6 -1.1z" fill="#A8D169"/><path d="m71.95 38.95 0.2 0.1 0.2 0.35 0.25 0.45 0.25 0.55v0.25l-0.15 -0.2 -0.2 -0.5 -0.1 -0.15v-0.1l-0.1 -0.05 -0.15 -0.45h-0.1z" fill="#4E9718"/><path d="m75.05 79.95 0.05 0.2 -0.7 0.4 -0.5 0.2 -0.3 0.05 0.05 -0.1 0.55 -0.25 0.35 -0.15 0.45 -0.3z" fill="#4E9715"/><path d="m73.2 57.6 0.15 0.15 0.4 0.8 -0.05 0.15 -0.15 -0.3v-0.1h-0.1v0.3l-0.1 -0.2 -0.15 -0.5z" fill="#AECE58"/><path d="M24.25 41.1h0.65l0.7 0.05v0.1h-1.15l0.1 0.4 -0.2 -0.2 -0.1 -0.2z" fill="#B6D65A"/><path d="M30.5 68.2h0.45l0.1 0.1 -0.5 0.1 -0.2 0.1 0.05 0.25 -0.05 0.2h-0.1l-0.05 -0.1v-0.3l0.2 -0.3z" fill="#1E3514"/><path d="m36.85 46.15 1.7 0.1 -0.1 0.1h-1.1l-0.5 -0.15z" fill="#4F9915"/><path d="M43.65 18.4h0.2v0.1l0.2 0.05 0.4 0.3 -0.2 -0.35 0.05 -0.1 0.3 0.4 0.1 0.25 -0.1 0.05 -0.8 -0.55z" fill="#ADCE58"/><path d="M31.65 69.4h0.8l0.7 0.05 0.1 0.05v0.1h-0.6l-1 -0.15z" fill="#A5D374"/><path d="m71.4 66.6 0.1 0.05 -0.2 0.25 -0.05 0.15 -0.3 0.25h-0.1v0.1l-0.2 0.05v0.1l-0.15 0.05 -0.1 -0.1 0.5 -0.4z" fill="#ACCF5D"/><path d="m42.35 15.95 0.45 0.05 0.85 0.35 0.05 0.1 -0.4 -0.05 -0.55 -0.25h-0.15v-0.1l-0.25 -0.05z" fill="#182D11"/><path d="m33.55 45.15 0.45 0.05 0.75 0.3 0.05 0.1 0.25 0.1 -0.15 0.05 -1.25 -0.5z" fill="#53A115"/><path d="m62.4 19.3 0.25 0.2 0.35 0.5h-0.15l-0.75 -0.5 -0.05 -0.1 0.45 0.15 -0.05 -0.05z" fill="#AECE58"/><path d="m20.65 80.15 0.2 0.1 0.45 0.55 0.4 0.35 -0.15 0.05 -0.5 -0.5 -0.35 -0.3z" fill="#1D3412"/><path d="m56.2 81.9 0.2 0.05 -0.6 0.2 -0.45 0.1h-0.65v-0.05l1.3 -0.25z" fill="#4B9117"/><path d="m79.45 73.75 0.05 0.15h0.1l0.2 0.7v1.1h-0.15l0.05 -0.3v-0.45l-0.1 -0.7 -0.15 -0.3z" fill="#54A416"/><path d="m32.35 73.4 0.05 0.15 -0.2 0.25h-0.1l-0.1 0.2 -0.25 0.3 -0.2 0.15 -0.1 -0.05 0.35 -0.45h0.1l0.1 -0.2z" fill="#A7D16C"/><path d="M67.75 42.45h0.25l0.15 1 -0.05 0.1 -0.15 -0.4 -0.15 -0.5 -0.1 -0.05z" fill="#A9D065"/><path d="m52.6 28.55 0.25 0.25 0.2 0.25v0.1h0.1l0.05 0.2 -0.35 -0.2 -0.3 -0.35z" fill="#203A18"/><path d="M58.9 33.25h0.5l-0.05 0.2 -0.15 0.05 -0.05 -0.05h-0.45l-0.5 0.15 -0.15 -0.05 0.65 -0.25z" fill="#4A8F16"/><path d="M38.2 75.4h0.3l1.2 0.4v0.1l0.1 0.05 -0.45 -0.1 -1.15 -0.4z" fill="#509B16"/><path d="M31.65 74.3v0.15l-0.4 0.5h-0.15l-0.35 0.5 -0.05 -0.1 0.3 -0.5z" fill="#A9D065"/><path d="m70.5 68.65 0.2 0.1 -0.55 0.35 -0.3 0.15h-0.1l0.1 -0.2 0.5 -0.3z" fill="#A8D169"/><path d="M40.3 19.4h0.65l0.6 0.3 0.4 0.35 0.1 0.15 -0.05 0.15 -0.3 -0.4 -0.45 -0.3 -0.25 -0.1 -0.7 -0.1z" fill="#4A8E16"/><path d="M53.5 65.75h0.65v0.15l-0.45 0.1 -0.4 -0.05z" fill="#1E3813"/><path d="m64.3 49.75 0.1 0.05 -0.25 0.25 -0.2 0.05v0.1l-0.35 0.15 -0.15 -0.05 0.2 -0.2z" fill="#182D11"/><path d="m35.85 74.35 0.3 0.05 -0.2 0.1 0.05 0.35 0.3 0.9 0.05 0.3 -0.1 -0.1 -0.45 -1.3v-0.25z" fill="#4E9616"/><path d="m64.95 76.35 0.2 0.05 0.05 0.1 -0.2 0.5h-0.1l-0.05 0.1 -0.05 -0.2 0.1 -0.5z" fill="#A8D169"/><path d="M35.45 71.1h0.05l0.05 1.4 0.1 0.45 0.25 0.25 0.05 0.1 -0.25 -0.1 -0.15 -0.15 -0.1 -0.5 -0.05 -1z" fill="#509B16"/><path d="M42.05 65.7h0.5l1.05 0.15v0.05h-1.05l-0.5 -0.1z" fill="#396B17"/><path d="m53.4 49.3 0.15 0.05h-0.1v0.1h1.2v0.05l-1.55 0.05 -0.1 -0.1z" fill="#4F9815"/><path d="m29.1 77.65 0.05 0.2 -0.15 0.4v0.6l0.2 -0.15 -0.05 0.3 -0.2 0.05 -0.05 -0.05v-0.8z" fill="#AECE58"/><path d="m81.2 63.7 0.15 0.15 0.15 0.6 0.05 0.75 -0.1 -0.15 -0.25 -1.2z" fill="#4F9A16"/><path d="m79.05 59.05 0.2 0.2 0.45 0.8 0.15 0.35 -0.05 0.2 -0.15 -0.35 -0.3 -0.6 -0.3 -0.5z" fill="#4E9719"/><path d="M68.35 70.1h0.05v0.5l-0.05 0.3 0.05 0.4 0.25 0.25 -0.05 0.15 -0.05 -0.15 -0.15 -0.05 -0.1 -0.15v-0.15l-0.1 -0.05v-0.35l0.1 -0.25z" fill="#4E9719"/><path d="M56.05 65.35h0.3l-0.1 0.1 -0.8 0.2h-0.25l-0.05 -0.15z" fill="#4F9915"/><path d="m73.5 51.55 0.05 0.15 -0.4 0.75h-0.05l0.05 -0.4 0.2 -0.4z" fill="#152711"/><path d="M53.7 39.2h0.1l-0.05 0.2 -0.4 0.2h-0.25l0.05 -0.15 0.35 -0.2z" fill="#192F11"/><path d="m44.4 82.25 0.9 0.05 0.1 0.1 0.8 0.15v0.05l-0.7 -0.05 -1.1 -0.25z" fill="#498C15"/><path d="M31.55 73.35v0.15l-0.7 0.85 -0.35 0.5v-0.15l0.35 -0.5 0.35 -0.45z" fill="#498B15"/><path d="m31.75 44.5 0.3 0.1 0.4 0.2 0.3 0.2 -0.15 0.05 -0.4 -0.15 -0.25 -0.15v-0.1l-0.2 -0.05z" fill="#509C16"/><path d="m27.9 74.25 0.1 0.05 -0.05 0.25 -0.35 0.3 -0.15 0.05 -0.05 -0.05 0.05 -0.4 0.1 -0.1 0.05 0.25 0.2 -0.05z" fill="#AECE58"/><path d="m71.3 67.9 0.1 0.05 -0.35 0.3 -0.25 0.25 -0.4 0.25 -0.05 -0.1 0.25 -0.2h0.1l0.1 -0.2h0.1v-0.1l0.25 -0.1z" fill="#AECE58"/><path d="M63.75 19.65h0.1l0.3 0.45 0.35 0.55 0.15 0.25 -0.05 0.1 -0.35 -0.45 -0.15 -0.3 -0.35 -0.5z" fill="#4E9719"/><path d="m69.45 68.2 0.15 0.05 -0.2 0.2 -0.55 0.3 -0.25 0.05 0.2 -0.2z" fill="#ABCF5E"/><path d="m33.7 45.6 0.25 0.1 0.5 0.25 0.25 0.2 -0.35 -0.05 -0.4 -0.2 -0.15 -0.15 -0.1 -0.05z" fill="#509C16"/><path d="M26.1 41.05h0.45v0.45h-0.1v-0.35l-0.35 0.05h-0.5l0.05 -0.1z" fill="#AECE58"/><path d="m42 81.45 0.4 0.05 0.8 0.3v0.05h-0.35l-0.75 -0.3z" fill="#4D9416"/><path d="m70.6 78.5 0.1 0.2 -0.25 0.2 -0.45 0.05 -0.3 -0.15 -0.1 -0.2 0.25 0.15h0.6z" fill="#4E9719"/><path d="m76.05 77.75 0.1 0.2 0.15 0.95 0.15 0.05 0.2 0.05 -0.3 0.15 -0.1 -0.05 -0.15 -0.85z" fill="#58AC15"/><path d="M73.65 76.7h0.1v0.15l-0.2 0.2 -0.05 0.1 -0.05 1 -0.05 0.35h-0.05l0.05 -1.4 0.15 -0.3z" fill="#519F17"/><path d="M68.5 66.7h0.05v0.6l0.05 0.1 0.35 -0.2 0.1 0.05 -0.5 0.35 -0.15 -0.05 0.05 -0.55z" fill="#AECE58"/><path d="m41.05 80.9 0.7 0.35 0.35 0.15v0.05l-0.35 -0.05 -0.7 -0.35z" fill="#4F9915"/><path d="m29.4 43.65 0.4 0.05 0.85 0.3v0.05l-0.45 -0.05 -0.8 -0.3z" fill="#4F9916"/><path d="M36.85 28.05h0.35l0.55 0.15v0.1l-1.2 -0.15v-0.05z" fill="#4A8F16"/><path d="m81.45 68.75 0.05 0.1h0.1l0.15 0.45 -0.05 0.95h-0.05l-0.05 -0.95 -0.15 -0.4z" fill="#519E15"/><path d="m65.85 44.15 0.05 0.1 -0.25 0.35 -0.35 0.3 -0.25 0.25 -0.2 0.1 0.3 -0.35 0.35 -0.35z" fill="#4E9719"/><path d="M55.1 38.2h0.15l-0.05 0.2 -0.45 0.35 -0.2 -0.05 0.2 -0.1 0.05 -0.15 0.25 -0.15z" fill="#1E3813"/><path d="M58.7 33.4h0.45l0.05 0.15 -0.4 0.2v-0.15l-0.25 -0.05z" fill="#274718"/><path d="m72.65 80.7 0.05 0.2 0.05 0.15 0.25 -0.05 0.5 -0.2 0.1 0.05 -0.4 0.2 -0.45 0.15 -0.2 -0.05 0.05 -0.3z" fill="#55A616"/><path d="m37.75 28.2 0.4 0.05 0.55 0.15 0.05 0.1 -0.45 -0.05 -0.55 -0.15z" fill="#498D15"/><path d="M66.8 63.7h0.15l0.3 0.65v0.1l-0.2 -0.05 -0.25 -0.6z" fill="#1B3211"/><path d="M31.45 62h0.05l0.1 0.6 0.2 0.25v0.1h0.1l-0.05 0.2 -0.45 -0.7 -0.05 -0.2z" fill="#4E9719"/><path d="M43.1 48.8h0.45l0.55 0.1 0.05 0.1h-0.75v-0.1l-0.3 -0.05z" fill="#4B9015"/><path d="m54.3 21.3 0.1 0.05 -0.1 0.05zm-0.15 0.1h0.15v0.1l-0.65 0.45 -0.25 0.2 0.1 -0.2 0.2 -0.2h0.1l0.05 -0.15z" fill="#4A8F16"/><path d="m81.15 72.6 0.05 0.2 -0.35 0.9 -0.05 -0.15 0.1 -0.4 0.15 -0.35z" fill="#4C9215"/><path d="M71.65 57.75h0.2l-0.05 0.35 -0.25 0.1 -0.05 -0.3z" fill="#E0FE66"/><path d="m63.05 47 0.15 0.05v0.15l-0.6 0.25 -0.2 -0.05 0.4 -0.25 0.1 -0.05 0.1 0.05z" fill="#1B2F13"/><path d="M28.45 38.2h0.4l-0.2 0.1 -0.7 0.2 -0.25 0.1 -0.15 -0.05 0.2 -0.05v-0.1z" fill="#4E9719"/><path d="m66.1 23.8 0.15 0.15 0.4 0.8 0.1 0.3 -0.2 -0.2 -0.4 -0.8z" fill="#4E9719"/><path d="m77.25 79.65 0.15 0.05 -0.55 0.45 -0.3 0.15 0.1 -0.2 0.15 -0.15 0.35 -0.2z" fill="#1B3111"/><path d="M26 79.35h0.3l0.05 0.2 -0.4 0.2 -0.15 -0.05 0.35 -0.15v-0.05h-0.55l0.2 -0.1z" fill="#AECE58"/><path d="M45.8 17.3h0.25l-0.15 0.05v0.1l-0.4 0.05 -0.05 0.25 -0.15 0.05 -0.05 -0.3 0.1 -0.1z" fill="#4E9719"/><path d="M35.95 24.9h0.25l-0.1 0.1 -0.5 0.1 -0.35 0.15 -0.2 -0.05 0.25 -0.15 0.6 -0.1z" fill="#4E9719"/><path d="M64.6 78.45h0.05l0.1 0.3v0.35l0.05 0.15 0.15 0.15 -0.3 -0.1 -0.05 -0.1z" fill="#4E9719"/><path d="m23.95 78.15 0.2 0.1 0.25 0.15 0.05 0.1 0.55 0.25v0.05h-0.25l-0.35 -0.2 -0.15 -0.1v-0.1l-0.2 -0.05z" fill="#4E9719"/><path d="M22.05 73.35h0.4l0.4 0.1v0.15l-0.45 -0.05 -0.35 -0.1z" fill="#1C3113"/><path d="m69.65 66.3 0.2 0.1 0.1 0.2 -0.6 0.45 -0.1 -0.05 0.25 -0.25 0.2 -0.1v-0.25z" fill="#AECE58"/><path d="m43.6 57.35 0.6 0.05 0.8 0.1v0.05h-0.9v-0.1l-0.5 -0.05z" fill="#407A17"/><path d="m55 48.95 0.2 0.05 -0.65 0.2 -0.45 0.05v-0.1z" fill="#325D17"/><path d="M38.2 24.2h0.1l0.1 0.2 -0.05 0.2 -0.15 0.05h-0.45l0.15 -0.1 0.35 -0.1z" fill="#498B15"/><path d="M53.5 57.45h0.55l-0.15 0.1 -0.55 0.1 -0.2 -0.05 -0.05 -0.1z" fill="#509A15"/><path d="M33.65 57.15v0.15l-0.5 0.6 -0.1 -0.15z" fill="#A7D16C"/><path d="M40.9 45.35h0.3l-0.15 0.25 -0.4 0.2 -0.2 -0.05 0.5 -0.25 -0.3 -0.05v-0.05z" fill="#4C9115"/><path d="m52.7 16.55 0.7 0.15 0.05 0.1h-0.6z" fill="#1E3215"/><path d="m75.5 78.95 0.05 0.1 -0.2 0.85 -0.15 0.2h-0.1l0.05 -0.2 0.1 -0.05 0.2 -0.85z" fill="#498C15"/><path d="m25.6 79.1 0.3 0.05v0.1l0.2 0.05 -0.1 0.1 -0.45 0.05 0.15 -0.15z" fill="#4A8F16"/><path d="m27.4 75 0.15 0.05 -0.15 0.5 -0.25 0.05 -0.25 -0.25 0.05 -0.1 0.2 0.2 0.15 0.05z" fill="#4E9719"/><path d="M71.8 39.35h0.05v0.4l-0.25 0.6 -0.05 -0.15z" fill="#A7D16C"/><path d="m40.4 28.1 0.25 0.1 0.65 0.5 -0.15 0.05 -0.45 -0.35 -0.3 -0.2z" fill="#4A8E16"/><path d="M58.75 83.25h0.35l0.3 0.15v0.1l-0.4 -0.05 -0.25 -0.1z" fill="#1C3013"/><path d="M41.3 57.3h0.1l0.05 0.1 0.5 0.1 -0.1 0.1h-0.5l-0.1 -0.2z" fill="#142410"/><path d="M42.2 48.65h0.55l0.5 0.1 -0.15 0.1 -0.35 -0.05 -0.55 -0.1z" fill="#4D9415"/><path d="m53.15 29.15 0.3 0.25v0.15l-0.3 -0.05v-0.1l-0.2 -0.1 -0.05 -0.1 0.25 0.1z" fill="#498C15"/><path d="m52.45 17.3 0.5 0.1 -0.1 0.2 -0.15 0.1v-0.2l-0.5 -0.1v-0.05z" fill="#4B9016"/><path d="M61.45 80h0.4l0.05 0.15 -0.2 0.1 -0.25 -0.05z" fill="#AECE58"/><path d="m79.15 76.4 0.05 0.2 -0.25 0.3 -0.35 0.25 0.1 -0.2 0.1 -0.15h0.1l0.1 -0.2z" fill="#4E9816"/><path d="m35.6 55.65 0.05 0.1 -0.25 0.25 -0.4 0.2 -0.1 -0.05 0.55 -0.4z" fill="#A7D16A"/><path d="M39.85 19.45h0.45v0.05l-0.4 0.1 -0.5 0.25h-0.15l0.15 -0.2z" fill="#4A8D15"/><path d="M75.35 79h0.05v0.5l-0.15 0.4 -0.15 0.05 0.1 -0.3z" fill="#53A316"/><path d="m77.2 78.45 0.15 0.05 -0.25 0.3 -0.3 0.1h-0.15l0.25 -0.2h0.1v-0.1z" fill="#509C15"/><path d="M79.95 73.65h0.15l0.2 0.25v0.1l0.3 -0.05 -0.1 0.2h-0.2l-0.2 -0.2z" fill="#509B15"/><path d="M32.85 67.35h0.05l0.05 0.7 0.1 0.2 0.15 -0.15 -0.05 0.3 -0.15 0.05 -0.15 -0.35z" fill="#AECE58"/><path d="m81 62.75 0.1 0.15 0.2 0.75 -0.05 0.15 -0.25 -0.7z" fill="#4A8F16"/><path d="M31.65 60h0.05l-0.05 0.4 -0.1 0.4 -0.1 -0.2 0.05 -0.4z" fill="#A9D067"/><path d="M42.55 57.2h0.4l0.65 0.1v0.05h-0.7l-0.35 -0.05z" fill="#366617"/><path d="m38.2 54.2 0.15 0.05 -0.3 0.1v0.1l-0.55 0.15 0.2 -0.2z" fill="#A6D26F"/><path d="m40.35 49.4 0.05 0.1 -0.1 0.45 -0.05 0.15h-0.1l-0.05 0.15 0.05 -0.4z" fill="#1A2F11"/><path d="M38.6 47.8h0.5l0.2 0.05 0.05 0.1 0.15 0.1 -0.4 -0.05 -0.5 -0.15z" fill="#4C9315"/><path d="m39.3 47.9 0.5 0.1 0.35 0.1 -0.1 0.1 -0.55 -0.1v-0.1l-0.2 -0.05z" fill="#509A15"/><path d="M26.4 41.5h0.1l-0.05 0.4 -0.15 0.45 -0.1 0.05z" fill="#B6D65C"/><path d="m22.25 80.35 0.2 0.05 0.3 0.15v0.15l0.25 0.1v0.1l-0.2 -0.1 -0.3 -0.2z" fill="#4E9719"/><path d="m31.15 74.85 0.05 0.15 -0.25 0.4h-0.15l0.1 -0.25z" fill="#A7D16A"/><path d="M24.75 74.1h0.05l-0.05 1.05 -0.15 -0.15 0.05 -0.3z" fill="#AECE58"/><path d="M35.25 65.6h0.05v0.35l-0.05 0.05 -0.15 0.75h-0.05v-0.35z" fill="#4E9719"/><path d="M45.25 17.8h0.15l0.25 0.4v0.35l-0.2 0.1 0.1 -0.3 -0.2 -0.4z" fill="#4A8D15"/><path d="M55.65 75.1h0.3l-0.2 0.15 -0.4 0.15 -0.15 -0.05 0.1 -0.05 -0.05 -0.1z" fill="#53A216"/><path d="M22.15 74.55h0.2v0.1l-0.25 0.15 -0.1 0.25 -0.1 -0.05v-0.1h-0.1l0.05 -0.15 0.1 0.05 0.05 -0.15z" fill="#56A815"/><path d="m71.4 66.6 0.1 0.05 -0.2 0.25 -0.05 0.15 -0.25 0.1 -0.2 0.1 0.3 -0.35z" fill="#A9D066"/><path d="m40.05 48.15 0.45 0.05 0.4 0.1v0.1l-0.35 -0.05 -0.45 -0.1z" fill="#4D9415"/><path d="M42.85 33.1h0.05l0.1 0.5h0.05v0.35l-0.1 0.1 -0.1 -0.5z" fill="#213B19"/><path d="m53.1 18.35 0.1 0.05 -0.45 0.4 -0.3 0.25 -0.1 -0.05 0.65 -0.6z" fill="#4E9719"/><path d="m27.5 43.7 0.55 0.15 0.15 0.1v0.1l-0.25 -0.05 -0.45 -0.25z" fill="#1A3011"/><path d="M71.05 37.4h0.05v0.4l-0.25 0.5 -0.05 -0.15z" fill="#4E9719"/><path d="m35.3 20.2 0.1 0.15 -0.25 0.5h-0.1l0.15 -0.55z" fill="#162911"/><path d="m31.35 83.3 0.15 0.1 -0.3 0.1h-0.45l0.1 -0.1z" fill="#192F12"/><path d="M71.5 40.55h0.05v0.4l-0.15 0.4h-0.05l0.05 -0.55z" fill="#A6D270"/><path d="m57.2 35.35 0.15 0.05 -0.3 0.4 -0.15 -0.05 0.05 -0.2z" fill="#1E3813"/><path d="m57.3 33.95 0.1 0.05 -0.25 0.15 -0.15 0.05h-0.35l0.15 -0.15z" fill="#4D9418"/><path d="m41.75 23.95 0.05 0.2 0.7 0.05v0.05h-0.85l0.05 -0.25z" fill="#4E9719"/><path d="m35.3 23.35 0.05 0.1 -0.2 0.3 -0.3 0.25 0.05 -0.2 0.35 -0.4z" fill="#4B9016"/><path d="m74.2 80.45 0.15 0.05 -0.15 0.15 -0.6 0.15 0.05 -0.1z" fill="#52A016"/><path d="M79.75 74.6h0.05v1.1h-0.15l0.05 -0.3z" fill="#519D16"/><path d="M67.75 42.45h0.2l0.05 0.55 -0.15 -0.15 -0.1 -0.25z" fill="#A5D273"/><path d="M54.75 21.1h0.25v0.1l-0.5 0.2 -0.2 0.05 0.25 -0.25z" fill="#498C15"/><path d="M72.95 79.65h0.05v0.3l-0.05 0.1h-0.1l-0.1 0.3 -0.05 -0.1 0.2 -0.55z" fill="#4A8D15"/><path d="m32.35 73.4 0.05 0.15 -0.2 0.25h-0.1l-0.05 0.15 -0.1 -0.15z" fill="#A8D169"/><path d="m64.45 45.45 0.2 0.05 -0.5 0.3h-0.25l0.2 -0.15z" fill="#4F9A15"/><path d="m78.15 78.95 0.1 0.05 -0.5 0.45h-0.1l0.05 -0.15 0.35 -0.3z" fill="#1A2F11"/><path d="m33.55 66.35 0.15 0.05 -0.45 0.45 -0.05 -0.15 0.25 -0.25z" fill="#AAD064"/><path d="m32.2 58.9 0.05 0.2 -0.15 0.25 -0.05 0.1 -0.15 -0.05 0.2 -0.4z" fill="#A7D16C"/><path d="m64.55 50.75 0.15 0.05v0.15l-0.45 0.1v-0.1h0.1v-0.1z" fill="#A8D169"/><path d="M68.6 44.5h0.1l0.3 0.55 -0.05 0.1 -0.2 -0.25 -0.15 -0.25z" fill="#A7D16B"/><path d="m56.25 36.9 0.05 0.1 -0.15 0.35 -0.2 -0.05z" fill="#1C3412"/><path d="M31.15 74.7v0.15l-0.4 0.6 -0.05 -0.1 0.3 -0.5z" fill="#AECE58"/><path d="m79.1 72.8 0.25 0.1 -0.15 0.1 0.1 0.25 -0.05 0.15 -0.2 -0.35z" fill="#509B18"/><path d="M64.6 46.35h0.15v0.1l-0.4 0.2 -0.2 -0.05z" fill="#1F3A12"/><path d="m71.8 38.95 0.2 0.05 -0.05 0.4 -0.1 0.15 0.05 -0.45 -0.2 -0.05z" fill="#AECE58"/><path d="M52.5 35h0.15l-0.1 0.25 -0.15 0.05 -0.05 0.1 -0.05 -0.2z" fill="#142510"/><path d="M58.8 24.1h0.15v0.6l-0.1 -0.05z" fill="#498C15"/><path d="M74.05 81.5h0.2l-0.05 0.15 -0.3 0.15 -0.2 -0.05z" fill="#162711"/><path d="m35.85 74.35 0.3 0.05 -0.2 0.1v0.45l-0.1 -0.15 -0.05 -0.4z" fill="#4B9016"/><path d="m81.25 72.05 0.05 0.2 -0.05 0.35h-0.1l-0.05 0.2 -0.05 -0.1z" fill="#519D16"/><path d="M70.05 68.95h0.1v0.15l-0.3 0.15h-0.1l0.1 -0.2z" fill="#A7D16C"/><path d="m74.05 62.45 0.1 0.1 -0.15 0.6 -0.1 -0.1 0.1 -0.55z" fill="#AECE58"/></svg>